G04 #@! TF.GenerationSoftware,KiCad,Pcbnew,5.0.2-bee76a0~70~ubuntu18.04.1*
G04 #@! TF.CreationDate,2020-05-14T00:48:02-07:00*
G04 #@! TF.ProjectId,pcb,7063622e-6b69-4636-9164-5f7063625858,rev?*
G04 #@! TF.SameCoordinates,Original*
G04 #@! TF.FileFunction,Copper,L1,Top*
G04 #@! TF.FilePolarity,Positive*
%FSLAX46Y46*%
G04 Gerber Fmt 4.6, Leading zero omitted, Abs format (unit mm)*
G04 Created by KiCad (PCBNEW 5.0.2-bee76a0~70~ubuntu18.04.1) date Thu 14 May 2020 12:48:02 AM PDT*
%MOMM*%
%LPD*%
G01*
G04 APERTURE LIST*
G04 #@! TA.AperFunction,ComponentPad*
%ADD10C,1.700000*%
G04 #@! TD*
G04 #@! TA.AperFunction,ComponentPad*
%ADD11O,1.700000X1.700000*%
G04 #@! TD*
G04 #@! TA.AperFunction,ComponentPad*
%ADD12R,1.700000X1.700000*%
G04 #@! TD*
G04 #@! TA.AperFunction,ComponentPad*
%ADD13C,2.000000*%
G04 #@! TD*
G04 #@! TA.AperFunction,ComponentPad*
%ADD14O,1.400000X1.400000*%
G04 #@! TD*
G04 #@! TA.AperFunction,ComponentPad*
%ADD15C,1.400000*%
G04 #@! TD*
G04 #@! TA.AperFunction,ViaPad*
%ADD16C,0.800000*%
G04 #@! TD*
G04 #@! TA.AperFunction,Conductor*
%ADD17C,0.250000*%
G04 #@! TD*
G04 #@! TA.AperFunction,Conductor*
%ADD18C,0.254000*%
G04 #@! TD*
G04 APERTURE END LIST*
D10*
G04 #@! TO.P,U1,30*
G04 #@! TO.N,Net-(U1-Pad30)*
X162560000Y-82550000D03*
G04 #@! TO.P,U1,29*
G04 #@! TO.N,SCL*
X162560000Y-85090000D03*
G04 #@! TO.P,U1,28*
G04 #@! TO.N,SDA*
X162560000Y-87630000D03*
G04 #@! TO.P,U1,27*
G04 #@! TO.N,Net-(U1-Pad27)*
X162560000Y-90170000D03*
G04 #@! TO.P,U1,26*
G04 #@! TO.N,Net-(U1-Pad26)*
X162560000Y-92710000D03*
G04 #@! TO.P,U1,25*
G04 #@! TO.N,3v3*
X162560000Y-95250000D03*
G04 #@! TO.P,U1,24*
G04 #@! TO.N,GND*
X162560000Y-97790000D03*
G04 #@! TO.P,U1,23*
G04 #@! TO.N,Net-(U1-Pad23)*
X162560000Y-100330000D03*
G04 #@! TO.P,U1,22*
G04 #@! TO.N,Net-(U1-Pad22)*
X162560000Y-102870000D03*
G04 #@! TO.P,U1,21*
G04 #@! TO.N,Net-(U1-Pad21)*
X162560000Y-105410000D03*
G04 #@! TO.P,U1,20*
G04 #@! TO.N,Net-(U1-Pad20)*
X162560000Y-107950000D03*
G04 #@! TO.P,U1,19*
G04 #@! TO.N,Net-(U1-Pad19)*
X162560000Y-110490000D03*
G04 #@! TO.P,U1,18*
G04 #@! TO.N,Net-(U1-Pad18)*
X162560000Y-113030000D03*
G04 #@! TO.P,U1,17*
G04 #@! TO.N,GND*
X162560000Y-115570000D03*
G04 #@! TO.P,U1,16*
G04 #@! TO.N,3v3*
X162560000Y-118110000D03*
G04 #@! TO.P,U1,15*
G04 #@! TO.N,Net-(U1-Pad15)*
X139065000Y-118110000D03*
G04 #@! TO.P,U1,14*
G04 #@! TO.N,Net-(U1-Pad14)*
X139065000Y-115570000D03*
G04 #@! TO.P,U1,13*
G04 #@! TO.N,Net-(U1-Pad13)*
X139065000Y-113030000D03*
G04 #@! TO.P,U1,12*
G04 #@! TO.N,Net-(U1-Pad12)*
X139065000Y-110490000D03*
G04 #@! TO.P,U1,11*
G04 #@! TO.N,3v3*
X139065000Y-107950000D03*
G04 #@! TO.P,U1,10*
G04 #@! TO.N,GND*
X139065000Y-105410000D03*
G04 #@! TO.P,U1,9*
G04 #@! TO.N,Net-(U1-Pad9)*
X139065000Y-102870000D03*
G04 #@! TO.P,U1,8*
G04 #@! TO.N,Net-(U1-Pad8)*
X139065000Y-100330000D03*
G04 #@! TO.P,U1,7*
G04 #@! TO.N,Net-(U1-Pad7)*
X139065000Y-97790000D03*
G04 #@! TO.P,U1,6*
G04 #@! TO.N,Net-(U1-Pad6)*
X139065000Y-95250000D03*
G04 #@! TO.P,U1,5*
G04 #@! TO.N,Net-(R2-Pad1)*
X139065000Y-92710000D03*
G04 #@! TO.P,U1,4*
G04 #@! TO.N,Net-(R1-Pad2)*
X139065000Y-90170000D03*
G04 #@! TO.P,U1,3*
G04 #@! TO.N,Net-(U1-Pad3)*
X139065000Y-87630000D03*
G04 #@! TO.P,U1,2*
G04 #@! TO.N,Net-(U1-Pad2)*
X139065000Y-85090000D03*
G04 #@! TO.P,U1,1*
G04 #@! TO.N,Net-(U1-Pad1)*
X139065000Y-82550000D03*
G04 #@! TD*
D11*
G04 #@! TO.P,U3,4*
G04 #@! TO.N,GND*
X167640000Y-77470000D03*
G04 #@! TO.P,U3,3*
G04 #@! TO.N,3v3*
X170180000Y-77470000D03*
G04 #@! TO.P,U3,2*
G04 #@! TO.N,SCL*
X172720000Y-77470000D03*
D12*
G04 #@! TO.P,U3,1*
G04 #@! TO.N,SDA*
X175260000Y-77470000D03*
G04 #@! TD*
D13*
G04 #@! TO.P,SW1,1*
G04 #@! TO.N,3v3*
X174140000Y-119380000D03*
G04 #@! TO.P,SW1,2*
G04 #@! TO.N,Net-(R2-Pad1)*
X174140000Y-123880000D03*
G04 #@! TO.P,SW1,1*
G04 #@! TO.N,3v3*
X167640000Y-119380000D03*
G04 #@! TO.P,SW1,2*
G04 #@! TO.N,Net-(R2-Pad1)*
X167640000Y-123880000D03*
G04 #@! TD*
D14*
G04 #@! TO.P,R2,2*
G04 #@! TO.N,GND*
X174752000Y-115824000D03*
D15*
G04 #@! TO.P,R2,1*
G04 #@! TO.N,Net-(R2-Pad1)*
X167132000Y-115824000D03*
G04 #@! TD*
D11*
G04 #@! TO.P,U4,7*
G04 #@! TO.N,3v3*
X143510000Y-107950000D03*
G04 #@! TO.P,U4,6*
G04 #@! TO.N,Net-(U4-Pad6)*
X146050000Y-107950000D03*
G04 #@! TO.P,U4,5*
G04 #@! TO.N,GND*
X148590000Y-107950000D03*
G04 #@! TO.P,U4,4*
G04 #@! TO.N,Net-(U4-Pad4)*
X151130000Y-107950000D03*
G04 #@! TO.P,U4,3*
G04 #@! TO.N,Net-(U4-Pad3)*
X153670000Y-107950000D03*
G04 #@! TO.P,U4,2*
G04 #@! TO.N,SCL*
X156210000Y-107950000D03*
D12*
G04 #@! TO.P,U4,1*
G04 #@! TO.N,SDA*
X158750000Y-107950000D03*
G04 #@! TD*
D14*
G04 #@! TO.P,R1,2*
G04 #@! TO.N,Net-(R1-Pad2)*
X160020000Y-100330000D03*
D15*
G04 #@! TO.P,R1,1*
G04 #@! TO.N,3v3*
X160020000Y-92710000D03*
G04 #@! TD*
D11*
G04 #@! TO.P,U2,4*
G04 #@! TO.N,3v3*
X154940000Y-104140000D03*
G04 #@! TO.P,U2,3*
G04 #@! TO.N,Net-(R1-Pad2)*
X152400000Y-104140000D03*
G04 #@! TO.P,U2,2*
G04 #@! TO.N,Net-(U2-Pad2)*
X149860000Y-104140000D03*
D12*
G04 #@! TO.P,U2,1*
G04 #@! TO.N,GND*
X147320000Y-104140000D03*
G04 #@! TD*
D16*
G04 #@! TO.N,3v3*
X154940000Y-99568000D03*
G04 #@! TD*
D17*
G04 #@! TO.N,3v3*
X154090001Y-104989999D02*
X154940000Y-104140000D01*
X153764999Y-105315001D02*
X154090001Y-104989999D01*
X146144999Y-105315001D02*
X153764999Y-105315001D01*
X143510000Y-107950000D02*
X146144999Y-105315001D01*
X142307919Y-107950000D02*
X139065000Y-107950000D01*
X143510000Y-107950000D02*
X142307919Y-107950000D01*
X154940000Y-110490000D02*
X162560000Y-118110000D01*
X154940000Y-104140000D02*
X154940000Y-110490000D01*
X160020000Y-92710000D02*
X162560000Y-95250000D01*
X162560000Y-95250000D02*
X159258000Y-95250000D01*
X159258000Y-95250000D02*
X154940000Y-99568000D01*
X163321999Y-94488001D02*
X162560000Y-95250000D01*
X164084000Y-93726000D02*
X163321999Y-94488001D01*
X164084000Y-79286998D02*
X164084000Y-93726000D01*
X167075999Y-76294999D02*
X164084000Y-79286998D01*
X170180000Y-77470000D02*
X169004999Y-76294999D01*
X169004999Y-76294999D02*
X167075999Y-76294999D01*
G04 #@! TO.N,GND*
X140335000Y-104140000D02*
X139065000Y-105410000D01*
X147320000Y-104140000D02*
X140335000Y-104140000D01*
X167640000Y-92710000D02*
X162560000Y-97790000D01*
X167640000Y-77470000D02*
X167640000Y-92710000D01*
G04 #@! TO.N,Net-(R1-Pad2)*
X156210000Y-100330000D02*
X160020000Y-100330000D01*
X152400000Y-104140000D02*
X156210000Y-100330000D01*
G04 #@! TO.N,Net-(R2-Pad1)*
X166432001Y-116523999D02*
X167132000Y-115824000D01*
X165608000Y-117348000D02*
X166432001Y-116523999D01*
X165608000Y-121848000D02*
X165608000Y-117348000D01*
X167640000Y-123880000D02*
X165608000Y-121848000D01*
X169054213Y-123880000D02*
X174140000Y-123880000D01*
X167640000Y-123880000D02*
X169054213Y-123880000D01*
G04 #@! TD*
D18*
G04 #@! TO.N,GND*
G36*
X176717787Y-75684065D02*
X176882920Y-75779405D01*
X177005488Y-75925477D01*
X177069969Y-76102633D01*
X177065000Y-76127613D01*
X177065001Y-124532388D01*
X177065681Y-124535804D01*
X177045935Y-124647787D01*
X176950596Y-124812919D01*
X176804524Y-124935488D01*
X176627366Y-124999968D01*
X176602388Y-124995000D01*
X175337239Y-124995000D01*
X175526086Y-124806153D01*
X175775000Y-124205222D01*
X175775000Y-123554778D01*
X175526086Y-122953847D01*
X175066153Y-122493914D01*
X174465222Y-122245000D01*
X173814778Y-122245000D01*
X173213847Y-122493914D01*
X172753914Y-122953847D01*
X172685091Y-123120000D01*
X169094909Y-123120000D01*
X169026086Y-122953847D01*
X168566153Y-122493914D01*
X167965222Y-122245000D01*
X167314778Y-122245000D01*
X167148625Y-122313823D01*
X166368000Y-121533199D01*
X166368000Y-120420239D01*
X166713847Y-120766086D01*
X167314778Y-121015000D01*
X167965222Y-121015000D01*
X168566153Y-120766086D01*
X169026086Y-120306153D01*
X169275000Y-119705222D01*
X169275000Y-119054778D01*
X172505000Y-119054778D01*
X172505000Y-119705222D01*
X172753914Y-120306153D01*
X173213847Y-120766086D01*
X173814778Y-121015000D01*
X174465222Y-121015000D01*
X175066153Y-120766086D01*
X175526086Y-120306153D01*
X175775000Y-119705222D01*
X175775000Y-119054778D01*
X175526086Y-118453847D01*
X175066153Y-117993914D01*
X174465222Y-117745000D01*
X173814778Y-117745000D01*
X173213847Y-117993914D01*
X172753914Y-118453847D01*
X172505000Y-119054778D01*
X169275000Y-119054778D01*
X169026086Y-118453847D01*
X168566153Y-117993914D01*
X167965222Y-117745000D01*
X167314778Y-117745000D01*
X166713847Y-117993914D01*
X166368000Y-118339761D01*
X166368000Y-117662802D01*
X166871803Y-117159000D01*
X167397548Y-117159000D01*
X167888217Y-116955758D01*
X168263758Y-116580217D01*
X168438924Y-116157329D01*
X173459284Y-116157329D01*
X173602203Y-116502396D01*
X173949337Y-116890764D01*
X174418669Y-117116727D01*
X174625000Y-116994206D01*
X174625000Y-115951000D01*
X174879000Y-115951000D01*
X174879000Y-116994206D01*
X175085331Y-117116727D01*
X175554663Y-116890764D01*
X175901797Y-116502396D01*
X176044716Y-116157329D01*
X175921374Y-115951000D01*
X174879000Y-115951000D01*
X174625000Y-115951000D01*
X173582626Y-115951000D01*
X173459284Y-116157329D01*
X168438924Y-116157329D01*
X168467000Y-116089548D01*
X168467000Y-115558452D01*
X168438925Y-115490671D01*
X173459284Y-115490671D01*
X173582626Y-115697000D01*
X174625000Y-115697000D01*
X174625000Y-114653794D01*
X174879000Y-114653794D01*
X174879000Y-115697000D01*
X175921374Y-115697000D01*
X176044716Y-115490671D01*
X175901797Y-115145604D01*
X175554663Y-114757236D01*
X175085331Y-114531273D01*
X174879000Y-114653794D01*
X174625000Y-114653794D01*
X174418669Y-114531273D01*
X173949337Y-114757236D01*
X173602203Y-115145604D01*
X173459284Y-115490671D01*
X168438925Y-115490671D01*
X168263758Y-115067783D01*
X167888217Y-114692242D01*
X167397548Y-114489000D01*
X166866452Y-114489000D01*
X166375783Y-114692242D01*
X166000242Y-115067783D01*
X165797000Y-115558452D01*
X165797000Y-116084197D01*
X165123527Y-116757671D01*
X165060072Y-116800071D01*
X165017672Y-116863527D01*
X165017671Y-116863528D01*
X164892097Y-117051463D01*
X164833112Y-117348000D01*
X164848001Y-117422852D01*
X164848000Y-121773153D01*
X164833112Y-121848000D01*
X164848000Y-121922847D01*
X164848000Y-121922851D01*
X164892096Y-122144536D01*
X165060071Y-122395929D01*
X165123530Y-122438331D01*
X166073823Y-123388625D01*
X166005000Y-123554778D01*
X166005000Y-124205222D01*
X166253914Y-124806153D01*
X166442761Y-124995000D01*
X138357612Y-124995000D01*
X138354193Y-124995680D01*
X138242213Y-124975935D01*
X138077081Y-124880596D01*
X137954512Y-124734524D01*
X137878445Y-124525532D01*
X137870000Y-124429004D01*
X137870000Y-122379922D01*
X138077588Y-123036309D01*
X138504639Y-123654201D01*
X139094497Y-124119208D01*
X139795010Y-124390216D01*
X140544243Y-124443264D01*
X141275952Y-124273663D01*
X141925446Y-123896407D01*
X142435299Y-123344851D01*
X142760433Y-122667761D01*
X142872102Y-121925000D01*
X142871790Y-121885323D01*
X142748468Y-121144407D01*
X142412739Y-120472507D01*
X141894285Y-119929028D01*
X141238946Y-119562021D01*
X140504663Y-119403934D01*
X139756356Y-119468744D01*
X139060186Y-119750722D01*
X138477705Y-120224936D01*
X138060412Y-120849460D01*
X137870000Y-121486154D01*
X137870000Y-119015107D01*
X138223815Y-119368922D01*
X138769615Y-119595000D01*
X139360385Y-119595000D01*
X139906185Y-119368922D01*
X140323922Y-118951185D01*
X140550000Y-118405385D01*
X140550000Y-117814615D01*
X140323922Y-117268815D01*
X139906185Y-116851078D01*
X139879440Y-116840000D01*
X139906185Y-116828922D01*
X140323922Y-116411185D01*
X140550000Y-115865385D01*
X140550000Y-115274615D01*
X140323922Y-114728815D01*
X139906185Y-114311078D01*
X139879440Y-114300000D01*
X139906185Y-114288922D01*
X140323922Y-113871185D01*
X140550000Y-113325385D01*
X140550000Y-112734615D01*
X140323922Y-112188815D01*
X139906185Y-111771078D01*
X139879440Y-111760000D01*
X139906185Y-111748922D01*
X140323922Y-111331185D01*
X140550000Y-110785385D01*
X140550000Y-110194615D01*
X140323922Y-109648815D01*
X139906185Y-109231078D01*
X139879440Y-109220000D01*
X139906185Y-109208922D01*
X140323922Y-108791185D01*
X140357550Y-108710000D01*
X142231822Y-108710000D01*
X142439375Y-109020625D01*
X142930582Y-109348839D01*
X143363744Y-109435000D01*
X143656256Y-109435000D01*
X144089418Y-109348839D01*
X144580625Y-109020625D01*
X144780000Y-108722239D01*
X144979375Y-109020625D01*
X145470582Y-109348839D01*
X145903744Y-109435000D01*
X146196256Y-109435000D01*
X146629418Y-109348839D01*
X147120625Y-109020625D01*
X147333843Y-108701522D01*
X147394817Y-108831358D01*
X147823076Y-109221645D01*
X148233110Y-109391476D01*
X148463000Y-109270155D01*
X148463000Y-108077000D01*
X148443000Y-108077000D01*
X148443000Y-107823000D01*
X148463000Y-107823000D01*
X148463000Y-106629845D01*
X148233110Y-106508524D01*
X147823076Y-106678355D01*
X147394817Y-107068642D01*
X147333843Y-107198478D01*
X147120625Y-106879375D01*
X146629418Y-106551161D01*
X146196256Y-106465000D01*
X146069803Y-106465000D01*
X146459802Y-106075001D01*
X153690152Y-106075001D01*
X153764999Y-106089889D01*
X153839846Y-106075001D01*
X153839851Y-106075001D01*
X154061536Y-106030905D01*
X154180000Y-105951750D01*
X154180000Y-106537353D01*
X153816256Y-106465000D01*
X153523744Y-106465000D01*
X153090582Y-106551161D01*
X152599375Y-106879375D01*
X152400000Y-107177761D01*
X152200625Y-106879375D01*
X151709418Y-106551161D01*
X151276256Y-106465000D01*
X150983744Y-106465000D01*
X150550582Y-106551161D01*
X150059375Y-106879375D01*
X149846157Y-107198478D01*
X149785183Y-107068642D01*
X149356924Y-106678355D01*
X148946890Y-106508524D01*
X148717000Y-106629845D01*
X148717000Y-107823000D01*
X148737000Y-107823000D01*
X148737000Y-108077000D01*
X148717000Y-108077000D01*
X148717000Y-109270155D01*
X148946890Y-109391476D01*
X149356924Y-109221645D01*
X149785183Y-108831358D01*
X149846157Y-108701522D01*
X150059375Y-109020625D01*
X150550582Y-109348839D01*
X150983744Y-109435000D01*
X151276256Y-109435000D01*
X151709418Y-109348839D01*
X152200625Y-109020625D01*
X152400000Y-108722239D01*
X152599375Y-109020625D01*
X153090582Y-109348839D01*
X153523744Y-109435000D01*
X153816256Y-109435000D01*
X154180001Y-109362647D01*
X154180001Y-110415148D01*
X154165112Y-110490000D01*
X154180001Y-110564852D01*
X154224097Y-110786537D01*
X154392072Y-111037929D01*
X154455528Y-111080329D01*
X161108628Y-117733431D01*
X161075000Y-117814615D01*
X161075000Y-118405385D01*
X161301078Y-118951185D01*
X161718815Y-119368922D01*
X162162136Y-119552552D01*
X161448612Y-119398934D01*
X160700305Y-119463744D01*
X160004135Y-119745722D01*
X159421654Y-120219936D01*
X159004361Y-120844460D01*
X158789150Y-121564076D01*
X158795049Y-122315161D01*
X159021537Y-123031309D01*
X159448588Y-123649201D01*
X160038446Y-124114208D01*
X160738959Y-124385216D01*
X161488192Y-124438264D01*
X162219901Y-124268663D01*
X162869395Y-123891407D01*
X163379248Y-123339851D01*
X163704382Y-122662761D01*
X163816051Y-121920000D01*
X163815739Y-121880323D01*
X163692417Y-121139407D01*
X163356688Y-120467507D01*
X162838234Y-119924028D01*
X162211215Y-119572881D01*
X162264615Y-119595000D01*
X162855385Y-119595000D01*
X163401185Y-119368922D01*
X163818922Y-118951185D01*
X164045000Y-118405385D01*
X164045000Y-117814615D01*
X163818922Y-117268815D01*
X163401185Y-116851078D01*
X163354753Y-116831845D01*
X163424353Y-116613958D01*
X162560000Y-115749605D01*
X162545858Y-115763748D01*
X162366253Y-115584143D01*
X162380395Y-115570000D01*
X162739605Y-115570000D01*
X163603958Y-116434353D01*
X163855259Y-116354080D01*
X164056718Y-115798721D01*
X164030315Y-115208542D01*
X163855259Y-114785920D01*
X163603958Y-114705647D01*
X162739605Y-115570000D01*
X162380395Y-115570000D01*
X161516042Y-114705647D01*
X161264741Y-114785920D01*
X161063282Y-115341279D01*
X161072517Y-115547715D01*
X155700000Y-110175199D01*
X155700000Y-109362647D01*
X156063744Y-109435000D01*
X156356256Y-109435000D01*
X156789418Y-109348839D01*
X157280625Y-109020625D01*
X157292816Y-109002381D01*
X157301843Y-109047765D01*
X157442191Y-109257809D01*
X157652235Y-109398157D01*
X157900000Y-109447440D01*
X159600000Y-109447440D01*
X159847765Y-109398157D01*
X160057809Y-109257809D01*
X160198157Y-109047765D01*
X160247440Y-108800000D01*
X160247440Y-107100000D01*
X160198157Y-106852235D01*
X160057809Y-106642191D01*
X159847765Y-106501843D01*
X159600000Y-106452560D01*
X157900000Y-106452560D01*
X157652235Y-106501843D01*
X157442191Y-106642191D01*
X157301843Y-106852235D01*
X157292816Y-106897619D01*
X157280625Y-106879375D01*
X156789418Y-106551161D01*
X156356256Y-106465000D01*
X156063744Y-106465000D01*
X155700000Y-106537353D01*
X155700000Y-105418178D01*
X156010625Y-105210625D01*
X156338839Y-104719418D01*
X156454092Y-104140000D01*
X156338839Y-103560582D01*
X156010625Y-103069375D01*
X155519418Y-102741161D01*
X155086256Y-102655000D01*
X154959802Y-102655000D01*
X156524802Y-101090000D01*
X158922226Y-101090000D01*
X159057519Y-101292481D01*
X159499109Y-101587542D01*
X159888515Y-101665000D01*
X160151485Y-101665000D01*
X160540891Y-101587542D01*
X160982481Y-101292481D01*
X161210172Y-100951718D01*
X161301078Y-101171185D01*
X161718815Y-101588922D01*
X161745560Y-101600000D01*
X161718815Y-101611078D01*
X161301078Y-102028815D01*
X161075000Y-102574615D01*
X161075000Y-103165385D01*
X161301078Y-103711185D01*
X161718815Y-104128922D01*
X161745560Y-104140000D01*
X161718815Y-104151078D01*
X161301078Y-104568815D01*
X161075000Y-105114615D01*
X161075000Y-105705385D01*
X161301078Y-106251185D01*
X161718815Y-106668922D01*
X161745560Y-106680000D01*
X161718815Y-106691078D01*
X161301078Y-107108815D01*
X161075000Y-107654615D01*
X161075000Y-108245385D01*
X161301078Y-108791185D01*
X161718815Y-109208922D01*
X161745560Y-109220000D01*
X161718815Y-109231078D01*
X161301078Y-109648815D01*
X161075000Y-110194615D01*
X161075000Y-110785385D01*
X161301078Y-111331185D01*
X161718815Y-111748922D01*
X161745560Y-111760000D01*
X161718815Y-111771078D01*
X161301078Y-112188815D01*
X161075000Y-112734615D01*
X161075000Y-113325385D01*
X161301078Y-113871185D01*
X161718815Y-114288922D01*
X161765247Y-114308155D01*
X161695647Y-114526042D01*
X162560000Y-115390395D01*
X163424353Y-114526042D01*
X163354753Y-114308155D01*
X163401185Y-114288922D01*
X163818922Y-113871185D01*
X164045000Y-113325385D01*
X164045000Y-112734615D01*
X163818922Y-112188815D01*
X163401185Y-111771078D01*
X163374440Y-111760000D01*
X163401185Y-111748922D01*
X163818922Y-111331185D01*
X164045000Y-110785385D01*
X164045000Y-110194615D01*
X163818922Y-109648815D01*
X163401185Y-109231078D01*
X163374440Y-109220000D01*
X163401185Y-109208922D01*
X163818922Y-108791185D01*
X164045000Y-108245385D01*
X164045000Y-107654615D01*
X163818922Y-107108815D01*
X163401185Y-106691078D01*
X163374440Y-106680000D01*
X163401185Y-106668922D01*
X163818922Y-106251185D01*
X164045000Y-105705385D01*
X164045000Y-105114615D01*
X163818922Y-104568815D01*
X163401185Y-104151078D01*
X163374440Y-104140000D01*
X163401185Y-104128922D01*
X163818922Y-103711185D01*
X164045000Y-103165385D01*
X164045000Y-102574615D01*
X163818922Y-102028815D01*
X163401185Y-101611078D01*
X163374440Y-101600000D01*
X163401185Y-101588922D01*
X163818922Y-101171185D01*
X164045000Y-100625385D01*
X164045000Y-100034615D01*
X163818922Y-99488815D01*
X163401185Y-99071078D01*
X163354753Y-99051845D01*
X163424353Y-98833958D01*
X162560000Y-97969605D01*
X161695647Y-98833958D01*
X161765247Y-99051845D01*
X161718815Y-99071078D01*
X161301078Y-99488815D01*
X161210172Y-99708282D01*
X160982481Y-99367519D01*
X160540891Y-99072458D01*
X160151485Y-98995000D01*
X159888515Y-98995000D01*
X159499109Y-99072458D01*
X159057519Y-99367519D01*
X158922226Y-99570000D01*
X156284848Y-99570000D01*
X156210000Y-99555112D01*
X156135152Y-99570000D01*
X156135148Y-99570000D01*
X155982422Y-99600379D01*
X158021522Y-97561279D01*
X161063282Y-97561279D01*
X161089685Y-98151458D01*
X161264741Y-98574080D01*
X161516042Y-98654353D01*
X162380395Y-97790000D01*
X162739605Y-97790000D01*
X163603958Y-98654353D01*
X163855259Y-98574080D01*
X164056718Y-98018721D01*
X164030315Y-97428542D01*
X163855259Y-97005920D01*
X163603958Y-96925647D01*
X162739605Y-97790000D01*
X162380395Y-97790000D01*
X161516042Y-96925647D01*
X161264741Y-97005920D01*
X161063282Y-97561279D01*
X158021522Y-97561279D01*
X159572802Y-96010000D01*
X161267450Y-96010000D01*
X161301078Y-96091185D01*
X161718815Y-96508922D01*
X161765247Y-96528155D01*
X161695647Y-96746042D01*
X162560000Y-97610395D01*
X163424353Y-96746042D01*
X163354753Y-96528155D01*
X163401185Y-96508922D01*
X163818922Y-96091185D01*
X164045000Y-95545385D01*
X164045000Y-94954615D01*
X164011372Y-94873429D01*
X164568473Y-94316329D01*
X164631929Y-94273929D01*
X164799904Y-94022537D01*
X164844000Y-93800852D01*
X164844000Y-93800848D01*
X164858888Y-93726001D01*
X164844000Y-93651154D01*
X164844000Y-79601799D01*
X166332853Y-78112947D01*
X166444817Y-78351358D01*
X166873076Y-78741645D01*
X167283110Y-78911476D01*
X167513000Y-78790155D01*
X167513000Y-77597000D01*
X167493000Y-77597000D01*
X167493000Y-77343000D01*
X167513000Y-77343000D01*
X167513000Y-77323000D01*
X167767000Y-77323000D01*
X167767000Y-77343000D01*
X167787000Y-77343000D01*
X167787000Y-77597000D01*
X167767000Y-77597000D01*
X167767000Y-78790155D01*
X167996890Y-78911476D01*
X168406924Y-78741645D01*
X168835183Y-78351358D01*
X168896157Y-78221522D01*
X169109375Y-78540625D01*
X169600582Y-78868839D01*
X170033744Y-78955000D01*
X170326256Y-78955000D01*
X170759418Y-78868839D01*
X171250625Y-78540625D01*
X171450000Y-78242239D01*
X171649375Y-78540625D01*
X172140582Y-78868839D01*
X172573744Y-78955000D01*
X172866256Y-78955000D01*
X173299418Y-78868839D01*
X173790625Y-78540625D01*
X173802816Y-78522381D01*
X173811843Y-78567765D01*
X173952191Y-78777809D01*
X174162235Y-78918157D01*
X174410000Y-78967440D01*
X176110000Y-78967440D01*
X176357765Y-78918157D01*
X176567809Y-78777809D01*
X176708157Y-78567765D01*
X176757440Y-78320000D01*
X176757440Y-76620000D01*
X176708157Y-76372235D01*
X176567809Y-76162191D01*
X176357765Y-76021843D01*
X176110000Y-75972560D01*
X174410000Y-75972560D01*
X174162235Y-76021843D01*
X173952191Y-76162191D01*
X173811843Y-76372235D01*
X173802816Y-76417619D01*
X173790625Y-76399375D01*
X173299418Y-76071161D01*
X172866256Y-75985000D01*
X172573744Y-75985000D01*
X172140582Y-76071161D01*
X171649375Y-76399375D01*
X171450000Y-76697761D01*
X171250625Y-76399375D01*
X170759418Y-76071161D01*
X170326256Y-75985000D01*
X170033744Y-75985000D01*
X169813592Y-76028791D01*
X169595330Y-75810529D01*
X169552928Y-75747070D01*
X169430102Y-75665000D01*
X176602388Y-75665000D01*
X176605807Y-75664320D01*
X176717787Y-75684065D01*
X176717787Y-75684065D01*
G37*
X176717787Y-75684065D02*
X176882920Y-75779405D01*
X177005488Y-75925477D01*
X177069969Y-76102633D01*
X177065000Y-76127613D01*
X177065001Y-124532388D01*
X177065681Y-124535804D01*
X177045935Y-124647787D01*
X176950596Y-124812919D01*
X176804524Y-124935488D01*
X176627366Y-124999968D01*
X176602388Y-124995000D01*
X175337239Y-124995000D01*
X175526086Y-124806153D01*
X175775000Y-124205222D01*
X175775000Y-123554778D01*
X175526086Y-122953847D01*
X175066153Y-122493914D01*
X174465222Y-122245000D01*
X173814778Y-122245000D01*
X173213847Y-122493914D01*
X172753914Y-122953847D01*
X172685091Y-123120000D01*
X169094909Y-123120000D01*
X169026086Y-122953847D01*
X168566153Y-122493914D01*
X167965222Y-122245000D01*
X167314778Y-122245000D01*
X167148625Y-122313823D01*
X166368000Y-121533199D01*
X166368000Y-120420239D01*
X166713847Y-120766086D01*
X167314778Y-121015000D01*
X167965222Y-121015000D01*
X168566153Y-120766086D01*
X169026086Y-120306153D01*
X169275000Y-119705222D01*
X169275000Y-119054778D01*
X172505000Y-119054778D01*
X172505000Y-119705222D01*
X172753914Y-120306153D01*
X173213847Y-120766086D01*
X173814778Y-121015000D01*
X174465222Y-121015000D01*
X175066153Y-120766086D01*
X175526086Y-120306153D01*
X175775000Y-119705222D01*
X175775000Y-119054778D01*
X175526086Y-118453847D01*
X175066153Y-117993914D01*
X174465222Y-117745000D01*
X173814778Y-117745000D01*
X173213847Y-117993914D01*
X172753914Y-118453847D01*
X172505000Y-119054778D01*
X169275000Y-119054778D01*
X169026086Y-118453847D01*
X168566153Y-117993914D01*
X167965222Y-117745000D01*
X167314778Y-117745000D01*
X166713847Y-117993914D01*
X166368000Y-118339761D01*
X166368000Y-117662802D01*
X166871803Y-117159000D01*
X167397548Y-117159000D01*
X167888217Y-116955758D01*
X168263758Y-116580217D01*
X168438924Y-116157329D01*
X173459284Y-116157329D01*
X173602203Y-116502396D01*
X173949337Y-116890764D01*
X174418669Y-117116727D01*
X174625000Y-116994206D01*
X174625000Y-115951000D01*
X174879000Y-115951000D01*
X174879000Y-116994206D01*
X175085331Y-117116727D01*
X175554663Y-116890764D01*
X175901797Y-116502396D01*
X176044716Y-116157329D01*
X175921374Y-115951000D01*
X174879000Y-115951000D01*
X174625000Y-115951000D01*
X173582626Y-115951000D01*
X173459284Y-116157329D01*
X168438924Y-116157329D01*
X168467000Y-116089548D01*
X168467000Y-115558452D01*
X168438925Y-115490671D01*
X173459284Y-115490671D01*
X173582626Y-115697000D01*
X174625000Y-115697000D01*
X174625000Y-114653794D01*
X174879000Y-114653794D01*
X174879000Y-115697000D01*
X175921374Y-115697000D01*
X176044716Y-115490671D01*
X175901797Y-115145604D01*
X175554663Y-114757236D01*
X175085331Y-114531273D01*
X174879000Y-114653794D01*
X174625000Y-114653794D01*
X174418669Y-114531273D01*
X173949337Y-114757236D01*
X173602203Y-115145604D01*
X173459284Y-115490671D01*
X168438925Y-115490671D01*
X168263758Y-115067783D01*
X167888217Y-114692242D01*
X167397548Y-114489000D01*
X166866452Y-114489000D01*
X166375783Y-114692242D01*
X166000242Y-115067783D01*
X165797000Y-115558452D01*
X165797000Y-116084197D01*
X165123527Y-116757671D01*
X165060072Y-116800071D01*
X165017672Y-116863527D01*
X165017671Y-116863528D01*
X164892097Y-117051463D01*
X164833112Y-117348000D01*
X164848001Y-117422852D01*
X164848000Y-121773153D01*
X164833112Y-121848000D01*
X164848000Y-121922847D01*
X164848000Y-121922851D01*
X164892096Y-122144536D01*
X165060071Y-122395929D01*
X165123530Y-122438331D01*
X166073823Y-123388625D01*
X166005000Y-123554778D01*
X166005000Y-124205222D01*
X166253914Y-124806153D01*
X166442761Y-124995000D01*
X138357612Y-124995000D01*
X138354193Y-124995680D01*
X138242213Y-124975935D01*
X138077081Y-124880596D01*
X137954512Y-124734524D01*
X137878445Y-124525532D01*
X137870000Y-124429004D01*
X137870000Y-122379922D01*
X138077588Y-123036309D01*
X138504639Y-123654201D01*
X139094497Y-124119208D01*
X139795010Y-124390216D01*
X140544243Y-124443264D01*
X141275952Y-124273663D01*
X141925446Y-123896407D01*
X142435299Y-123344851D01*
X142760433Y-122667761D01*
X142872102Y-121925000D01*
X142871790Y-121885323D01*
X142748468Y-121144407D01*
X142412739Y-120472507D01*
X141894285Y-119929028D01*
X141238946Y-119562021D01*
X140504663Y-119403934D01*
X139756356Y-119468744D01*
X139060186Y-119750722D01*
X138477705Y-120224936D01*
X138060412Y-120849460D01*
X137870000Y-121486154D01*
X137870000Y-119015107D01*
X138223815Y-119368922D01*
X138769615Y-119595000D01*
X139360385Y-119595000D01*
X139906185Y-119368922D01*
X140323922Y-118951185D01*
X140550000Y-118405385D01*
X140550000Y-117814615D01*
X140323922Y-117268815D01*
X139906185Y-116851078D01*
X139879440Y-116840000D01*
X139906185Y-116828922D01*
X140323922Y-116411185D01*
X140550000Y-115865385D01*
X140550000Y-115274615D01*
X140323922Y-114728815D01*
X139906185Y-114311078D01*
X139879440Y-114300000D01*
X139906185Y-114288922D01*
X140323922Y-113871185D01*
X140550000Y-113325385D01*
X140550000Y-112734615D01*
X140323922Y-112188815D01*
X139906185Y-111771078D01*
X139879440Y-111760000D01*
X139906185Y-111748922D01*
X140323922Y-111331185D01*
X140550000Y-110785385D01*
X140550000Y-110194615D01*
X140323922Y-109648815D01*
X139906185Y-109231078D01*
X139879440Y-109220000D01*
X139906185Y-109208922D01*
X140323922Y-108791185D01*
X140357550Y-108710000D01*
X142231822Y-108710000D01*
X142439375Y-109020625D01*
X142930582Y-109348839D01*
X143363744Y-109435000D01*
X143656256Y-109435000D01*
X144089418Y-109348839D01*
X144580625Y-109020625D01*
X144780000Y-108722239D01*
X144979375Y-109020625D01*
X145470582Y-109348839D01*
X145903744Y-109435000D01*
X146196256Y-109435000D01*
X146629418Y-109348839D01*
X147120625Y-109020625D01*
X147333843Y-108701522D01*
X147394817Y-108831358D01*
X147823076Y-109221645D01*
X148233110Y-109391476D01*
X148463000Y-109270155D01*
X148463000Y-108077000D01*
X148443000Y-108077000D01*
X148443000Y-107823000D01*
X148463000Y-107823000D01*
X148463000Y-106629845D01*
X148233110Y-106508524D01*
X147823076Y-106678355D01*
X147394817Y-107068642D01*
X147333843Y-107198478D01*
X147120625Y-106879375D01*
X146629418Y-106551161D01*
X146196256Y-106465000D01*
X146069803Y-106465000D01*
X146459802Y-106075001D01*
X153690152Y-106075001D01*
X153764999Y-106089889D01*
X153839846Y-106075001D01*
X153839851Y-106075001D01*
X154061536Y-106030905D01*
X154180000Y-105951750D01*
X154180000Y-106537353D01*
X153816256Y-106465000D01*
X153523744Y-106465000D01*
X153090582Y-106551161D01*
X152599375Y-106879375D01*
X152400000Y-107177761D01*
X152200625Y-106879375D01*
X151709418Y-106551161D01*
X151276256Y-106465000D01*
X150983744Y-106465000D01*
X150550582Y-106551161D01*
X150059375Y-106879375D01*
X149846157Y-107198478D01*
X149785183Y-107068642D01*
X149356924Y-106678355D01*
X148946890Y-106508524D01*
X148717000Y-106629845D01*
X148717000Y-107823000D01*
X148737000Y-107823000D01*
X148737000Y-108077000D01*
X148717000Y-108077000D01*
X148717000Y-109270155D01*
X148946890Y-109391476D01*
X149356924Y-109221645D01*
X149785183Y-108831358D01*
X149846157Y-108701522D01*
X150059375Y-109020625D01*
X150550582Y-109348839D01*
X150983744Y-109435000D01*
X151276256Y-109435000D01*
X151709418Y-109348839D01*
X152200625Y-109020625D01*
X152400000Y-108722239D01*
X152599375Y-109020625D01*
X153090582Y-109348839D01*
X153523744Y-109435000D01*
X153816256Y-109435000D01*
X154180001Y-109362647D01*
X154180001Y-110415148D01*
X154165112Y-110490000D01*
X154180001Y-110564852D01*
X154224097Y-110786537D01*
X154392072Y-111037929D01*
X154455528Y-111080329D01*
X161108628Y-117733431D01*
X161075000Y-117814615D01*
X161075000Y-118405385D01*
X161301078Y-118951185D01*
X161718815Y-119368922D01*
X162162136Y-119552552D01*
X161448612Y-119398934D01*
X160700305Y-119463744D01*
X160004135Y-119745722D01*
X159421654Y-120219936D01*
X159004361Y-120844460D01*
X158789150Y-121564076D01*
X158795049Y-122315161D01*
X159021537Y-123031309D01*
X159448588Y-123649201D01*
X160038446Y-124114208D01*
X160738959Y-124385216D01*
X161488192Y-124438264D01*
X162219901Y-124268663D01*
X162869395Y-123891407D01*
X163379248Y-123339851D01*
X163704382Y-122662761D01*
X163816051Y-121920000D01*
X163815739Y-121880323D01*
X163692417Y-121139407D01*
X163356688Y-120467507D01*
X162838234Y-119924028D01*
X162211215Y-119572881D01*
X162264615Y-119595000D01*
X162855385Y-119595000D01*
X163401185Y-119368922D01*
X163818922Y-118951185D01*
X164045000Y-118405385D01*
X164045000Y-117814615D01*
X163818922Y-117268815D01*
X163401185Y-116851078D01*
X163354753Y-116831845D01*
X163424353Y-116613958D01*
X162560000Y-115749605D01*
X162545858Y-115763748D01*
X162366253Y-115584143D01*
X162380395Y-115570000D01*
X162739605Y-115570000D01*
X163603958Y-116434353D01*
X163855259Y-116354080D01*
X164056718Y-115798721D01*
X164030315Y-115208542D01*
X163855259Y-114785920D01*
X163603958Y-114705647D01*
X162739605Y-115570000D01*
X162380395Y-115570000D01*
X161516042Y-114705647D01*
X161264741Y-114785920D01*
X161063282Y-115341279D01*
X161072517Y-115547715D01*
X155700000Y-110175199D01*
X155700000Y-109362647D01*
X156063744Y-109435000D01*
X156356256Y-109435000D01*
X156789418Y-109348839D01*
X157280625Y-109020625D01*
X157292816Y-109002381D01*
X157301843Y-109047765D01*
X157442191Y-109257809D01*
X157652235Y-109398157D01*
X157900000Y-109447440D01*
X159600000Y-109447440D01*
X159847765Y-109398157D01*
X160057809Y-109257809D01*
X160198157Y-109047765D01*
X160247440Y-108800000D01*
X160247440Y-107100000D01*
X160198157Y-106852235D01*
X160057809Y-106642191D01*
X159847765Y-106501843D01*
X159600000Y-106452560D01*
X157900000Y-106452560D01*
X157652235Y-106501843D01*
X157442191Y-106642191D01*
X157301843Y-106852235D01*
X157292816Y-106897619D01*
X157280625Y-106879375D01*
X156789418Y-106551161D01*
X156356256Y-106465000D01*
X156063744Y-106465000D01*
X155700000Y-106537353D01*
X155700000Y-105418178D01*
X156010625Y-105210625D01*
X156338839Y-104719418D01*
X156454092Y-104140000D01*
X156338839Y-103560582D01*
X156010625Y-103069375D01*
X155519418Y-102741161D01*
X155086256Y-102655000D01*
X154959802Y-102655000D01*
X156524802Y-101090000D01*
X158922226Y-101090000D01*
X159057519Y-101292481D01*
X159499109Y-101587542D01*
X159888515Y-101665000D01*
X160151485Y-101665000D01*
X160540891Y-101587542D01*
X160982481Y-101292481D01*
X161210172Y-100951718D01*
X161301078Y-101171185D01*
X161718815Y-101588922D01*
X161745560Y-101600000D01*
X161718815Y-101611078D01*
X161301078Y-102028815D01*
X161075000Y-102574615D01*
X161075000Y-103165385D01*
X161301078Y-103711185D01*
X161718815Y-104128922D01*
X161745560Y-104140000D01*
X161718815Y-104151078D01*
X161301078Y-104568815D01*
X161075000Y-105114615D01*
X161075000Y-105705385D01*
X161301078Y-106251185D01*
X161718815Y-106668922D01*
X161745560Y-106680000D01*
X161718815Y-106691078D01*
X161301078Y-107108815D01*
X161075000Y-107654615D01*
X161075000Y-108245385D01*
X161301078Y-108791185D01*
X161718815Y-109208922D01*
X161745560Y-109220000D01*
X161718815Y-109231078D01*
X161301078Y-109648815D01*
X161075000Y-110194615D01*
X161075000Y-110785385D01*
X161301078Y-111331185D01*
X161718815Y-111748922D01*
X161745560Y-111760000D01*
X161718815Y-111771078D01*
X161301078Y-112188815D01*
X161075000Y-112734615D01*
X161075000Y-113325385D01*
X161301078Y-113871185D01*
X161718815Y-114288922D01*
X161765247Y-114308155D01*
X161695647Y-114526042D01*
X162560000Y-115390395D01*
X163424353Y-114526042D01*
X163354753Y-114308155D01*
X163401185Y-114288922D01*
X163818922Y-113871185D01*
X164045000Y-113325385D01*
X164045000Y-112734615D01*
X163818922Y-112188815D01*
X163401185Y-111771078D01*
X163374440Y-111760000D01*
X163401185Y-111748922D01*
X163818922Y-111331185D01*
X164045000Y-110785385D01*
X164045000Y-110194615D01*
X163818922Y-109648815D01*
X163401185Y-109231078D01*
X163374440Y-109220000D01*
X163401185Y-109208922D01*
X163818922Y-108791185D01*
X164045000Y-108245385D01*
X164045000Y-107654615D01*
X163818922Y-107108815D01*
X163401185Y-106691078D01*
X163374440Y-106680000D01*
X163401185Y-106668922D01*
X163818922Y-106251185D01*
X164045000Y-105705385D01*
X164045000Y-105114615D01*
X163818922Y-104568815D01*
X163401185Y-104151078D01*
X163374440Y-104140000D01*
X163401185Y-104128922D01*
X163818922Y-103711185D01*
X164045000Y-103165385D01*
X164045000Y-102574615D01*
X163818922Y-102028815D01*
X163401185Y-101611078D01*
X163374440Y-101600000D01*
X163401185Y-101588922D01*
X163818922Y-101171185D01*
X164045000Y-100625385D01*
X164045000Y-100034615D01*
X163818922Y-99488815D01*
X163401185Y-99071078D01*
X163354753Y-99051845D01*
X163424353Y-98833958D01*
X162560000Y-97969605D01*
X161695647Y-98833958D01*
X161765247Y-99051845D01*
X161718815Y-99071078D01*
X161301078Y-99488815D01*
X161210172Y-99708282D01*
X160982481Y-99367519D01*
X160540891Y-99072458D01*
X160151485Y-98995000D01*
X159888515Y-98995000D01*
X159499109Y-99072458D01*
X159057519Y-99367519D01*
X158922226Y-99570000D01*
X156284848Y-99570000D01*
X156210000Y-99555112D01*
X156135152Y-99570000D01*
X156135148Y-99570000D01*
X155982422Y-99600379D01*
X158021522Y-97561279D01*
X161063282Y-97561279D01*
X161089685Y-98151458D01*
X161264741Y-98574080D01*
X161516042Y-98654353D01*
X162380395Y-97790000D01*
X162739605Y-97790000D01*
X163603958Y-98654353D01*
X163855259Y-98574080D01*
X164056718Y-98018721D01*
X164030315Y-97428542D01*
X163855259Y-97005920D01*
X163603958Y-96925647D01*
X162739605Y-97790000D01*
X162380395Y-97790000D01*
X161516042Y-96925647D01*
X161264741Y-97005920D01*
X161063282Y-97561279D01*
X158021522Y-97561279D01*
X159572802Y-96010000D01*
X161267450Y-96010000D01*
X161301078Y-96091185D01*
X161718815Y-96508922D01*
X161765247Y-96528155D01*
X161695647Y-96746042D01*
X162560000Y-97610395D01*
X163424353Y-96746042D01*
X163354753Y-96528155D01*
X163401185Y-96508922D01*
X163818922Y-96091185D01*
X164045000Y-95545385D01*
X164045000Y-94954615D01*
X164011372Y-94873429D01*
X164568473Y-94316329D01*
X164631929Y-94273929D01*
X164799904Y-94022537D01*
X164844000Y-93800852D01*
X164844000Y-93800848D01*
X164858888Y-93726001D01*
X164844000Y-93651154D01*
X164844000Y-79601799D01*
X166332853Y-78112947D01*
X166444817Y-78351358D01*
X166873076Y-78741645D01*
X167283110Y-78911476D01*
X167513000Y-78790155D01*
X167513000Y-77597000D01*
X167493000Y-77597000D01*
X167493000Y-77343000D01*
X167513000Y-77343000D01*
X167513000Y-77323000D01*
X167767000Y-77323000D01*
X167767000Y-77343000D01*
X167787000Y-77343000D01*
X167787000Y-77597000D01*
X167767000Y-77597000D01*
X167767000Y-78790155D01*
X167996890Y-78911476D01*
X168406924Y-78741645D01*
X168835183Y-78351358D01*
X168896157Y-78221522D01*
X169109375Y-78540625D01*
X169600582Y-78868839D01*
X170033744Y-78955000D01*
X170326256Y-78955000D01*
X170759418Y-78868839D01*
X171250625Y-78540625D01*
X171450000Y-78242239D01*
X171649375Y-78540625D01*
X172140582Y-78868839D01*
X172573744Y-78955000D01*
X172866256Y-78955000D01*
X173299418Y-78868839D01*
X173790625Y-78540625D01*
X173802816Y-78522381D01*
X173811843Y-78567765D01*
X173952191Y-78777809D01*
X174162235Y-78918157D01*
X174410000Y-78967440D01*
X176110000Y-78967440D01*
X176357765Y-78918157D01*
X176567809Y-78777809D01*
X176708157Y-78567765D01*
X176757440Y-78320000D01*
X176757440Y-76620000D01*
X176708157Y-76372235D01*
X176567809Y-76162191D01*
X176357765Y-76021843D01*
X176110000Y-75972560D01*
X174410000Y-75972560D01*
X174162235Y-76021843D01*
X173952191Y-76162191D01*
X173811843Y-76372235D01*
X173802816Y-76417619D01*
X173790625Y-76399375D01*
X173299418Y-76071161D01*
X172866256Y-75985000D01*
X172573744Y-75985000D01*
X172140582Y-76071161D01*
X171649375Y-76399375D01*
X171450000Y-76697761D01*
X171250625Y-76399375D01*
X170759418Y-76071161D01*
X170326256Y-75985000D01*
X170033744Y-75985000D01*
X169813592Y-76028791D01*
X169595330Y-75810529D01*
X169552928Y-75747070D01*
X169430102Y-75665000D01*
X176602388Y-75665000D01*
X176605807Y-75664320D01*
X176717787Y-75684065D01*
G36*
X138357612Y-75665000D02*
X166650896Y-75665000D01*
X166528070Y-75747070D01*
X166485670Y-75810526D01*
X163784365Y-78511831D01*
X163692417Y-77959407D01*
X163356688Y-77287507D01*
X162838234Y-76744028D01*
X162182895Y-76377021D01*
X161448612Y-76218934D01*
X160700305Y-76283744D01*
X160004135Y-76565722D01*
X159421654Y-77039936D01*
X159004361Y-77664460D01*
X158789150Y-78384076D01*
X158795049Y-79135161D01*
X159021537Y-79851309D01*
X159448588Y-80469201D01*
X160038446Y-80934208D01*
X160738959Y-81205216D01*
X161488192Y-81258264D01*
X162191715Y-81095196D01*
X161718815Y-81291078D01*
X161301078Y-81708815D01*
X161075000Y-82254615D01*
X161075000Y-82845385D01*
X161301078Y-83391185D01*
X161718815Y-83808922D01*
X161745560Y-83820000D01*
X161718815Y-83831078D01*
X161301078Y-84248815D01*
X161075000Y-84794615D01*
X161075000Y-85385385D01*
X161301078Y-85931185D01*
X161718815Y-86348922D01*
X161745560Y-86360000D01*
X161718815Y-86371078D01*
X161301078Y-86788815D01*
X161075000Y-87334615D01*
X161075000Y-87925385D01*
X161301078Y-88471185D01*
X161718815Y-88888922D01*
X161745560Y-88900000D01*
X161718815Y-88911078D01*
X161301078Y-89328815D01*
X161075000Y-89874615D01*
X161075000Y-90465385D01*
X161301078Y-91011185D01*
X161718815Y-91428922D01*
X161745560Y-91440000D01*
X161718815Y-91451078D01*
X161301078Y-91868815D01*
X161208821Y-92091544D01*
X161151758Y-91953783D01*
X160776217Y-91578242D01*
X160285548Y-91375000D01*
X159754452Y-91375000D01*
X159263783Y-91578242D01*
X158888242Y-91953783D01*
X158685000Y-92444452D01*
X158685000Y-92975548D01*
X158888242Y-93466217D01*
X159263783Y-93841758D01*
X159754452Y-94045000D01*
X160280198Y-94045000D01*
X160725198Y-94490000D01*
X159332846Y-94490000D01*
X159257999Y-94475112D01*
X159183152Y-94490000D01*
X159183148Y-94490000D01*
X158961463Y-94534096D01*
X158710071Y-94702071D01*
X158667672Y-94765526D01*
X154900199Y-98533000D01*
X154734126Y-98533000D01*
X154353720Y-98690569D01*
X154062569Y-98981720D01*
X153905000Y-99362126D01*
X153905000Y-99773874D01*
X154062569Y-100154280D01*
X154353720Y-100445431D01*
X154734126Y-100603000D01*
X154862198Y-100603000D01*
X152766408Y-102698791D01*
X152546256Y-102655000D01*
X152253744Y-102655000D01*
X151820582Y-102741161D01*
X151329375Y-103069375D01*
X151130000Y-103367761D01*
X150930625Y-103069375D01*
X150439418Y-102741161D01*
X150006256Y-102655000D01*
X149713744Y-102655000D01*
X149280582Y-102741161D01*
X148789375Y-103069375D01*
X148774904Y-103091033D01*
X148708327Y-102930302D01*
X148529699Y-102751673D01*
X148296310Y-102655000D01*
X147605750Y-102655000D01*
X147447000Y-102813750D01*
X147447000Y-104013000D01*
X147467000Y-104013000D01*
X147467000Y-104267000D01*
X147447000Y-104267000D01*
X147447000Y-104287000D01*
X147193000Y-104287000D01*
X147193000Y-104267000D01*
X145993750Y-104267000D01*
X145835000Y-104425750D01*
X145835000Y-104608092D01*
X145660525Y-104724672D01*
X145660523Y-104724674D01*
X145597070Y-104767072D01*
X145554672Y-104830525D01*
X143876408Y-106508791D01*
X143656256Y-106465000D01*
X143363744Y-106465000D01*
X142930582Y-106551161D01*
X142439375Y-106879375D01*
X142231822Y-107190000D01*
X140357550Y-107190000D01*
X140323922Y-107108815D01*
X139906185Y-106691078D01*
X139859753Y-106671845D01*
X139929353Y-106453958D01*
X139065000Y-105589605D01*
X138200647Y-106453958D01*
X138270247Y-106671845D01*
X138223815Y-106691078D01*
X137870000Y-107044893D01*
X137870000Y-106226106D01*
X138021042Y-106274353D01*
X138885395Y-105410000D01*
X139244605Y-105410000D01*
X140108958Y-106274353D01*
X140360259Y-106194080D01*
X140561718Y-105638721D01*
X140535315Y-105048542D01*
X140360259Y-104625920D01*
X140108958Y-104545647D01*
X139244605Y-105410000D01*
X138885395Y-105410000D01*
X138021042Y-104545647D01*
X137870000Y-104593894D01*
X137870000Y-103775107D01*
X138223815Y-104128922D01*
X138270247Y-104148155D01*
X138200647Y-104366042D01*
X139065000Y-105230395D01*
X139929353Y-104366042D01*
X139859753Y-104148155D01*
X139906185Y-104128922D01*
X140323922Y-103711185D01*
X140550000Y-103165385D01*
X140550000Y-103163691D01*
X145835000Y-103163691D01*
X145835000Y-103854250D01*
X145993750Y-104013000D01*
X147193000Y-104013000D01*
X147193000Y-102813750D01*
X147034250Y-102655000D01*
X146343690Y-102655000D01*
X146110301Y-102751673D01*
X145931673Y-102930302D01*
X145835000Y-103163691D01*
X140550000Y-103163691D01*
X140550000Y-102574615D01*
X140323922Y-102028815D01*
X139906185Y-101611078D01*
X139879440Y-101600000D01*
X139906185Y-101588922D01*
X140323922Y-101171185D01*
X140550000Y-100625385D01*
X140550000Y-100034615D01*
X140323922Y-99488815D01*
X139906185Y-99071078D01*
X139879440Y-99060000D01*
X139906185Y-99048922D01*
X140323922Y-98631185D01*
X140550000Y-98085385D01*
X140550000Y-97494615D01*
X140323922Y-96948815D01*
X139906185Y-96531078D01*
X139879440Y-96520000D01*
X139906185Y-96508922D01*
X140323922Y-96091185D01*
X140550000Y-95545385D01*
X140550000Y-94954615D01*
X140323922Y-94408815D01*
X139906185Y-93991078D01*
X139879440Y-93980000D01*
X139906185Y-93968922D01*
X140323922Y-93551185D01*
X140550000Y-93005385D01*
X140550000Y-92414615D01*
X140323922Y-91868815D01*
X139906185Y-91451078D01*
X139879440Y-91440000D01*
X139906185Y-91428922D01*
X140323922Y-91011185D01*
X140550000Y-90465385D01*
X140550000Y-89874615D01*
X140323922Y-89328815D01*
X139906185Y-88911078D01*
X139879440Y-88900000D01*
X139906185Y-88888922D01*
X140323922Y-88471185D01*
X140550000Y-87925385D01*
X140550000Y-87334615D01*
X140323922Y-86788815D01*
X139906185Y-86371078D01*
X139879440Y-86360000D01*
X139906185Y-86348922D01*
X140323922Y-85931185D01*
X140550000Y-85385385D01*
X140550000Y-84794615D01*
X140323922Y-84248815D01*
X139906185Y-83831078D01*
X139879440Y-83820000D01*
X139906185Y-83808922D01*
X140323922Y-83391185D01*
X140550000Y-82845385D01*
X140550000Y-82254615D01*
X140323922Y-81708815D01*
X139906185Y-81291078D01*
X139360385Y-81065000D01*
X138769615Y-81065000D01*
X138223815Y-81291078D01*
X137870000Y-81644893D01*
X137870000Y-79248998D01*
X138060486Y-79851309D01*
X138487537Y-80469201D01*
X139077395Y-80934208D01*
X139777908Y-81205216D01*
X140527141Y-81258264D01*
X141258850Y-81088663D01*
X141908344Y-80711407D01*
X142418197Y-80159851D01*
X142743331Y-79482761D01*
X142855000Y-78740000D01*
X142854688Y-78700323D01*
X142731366Y-77959407D01*
X142395637Y-77287507D01*
X141877183Y-76744028D01*
X141221844Y-76377021D01*
X140487561Y-76218934D01*
X139739254Y-76283744D01*
X139043084Y-76565722D01*
X138460603Y-77039936D01*
X138043310Y-77664460D01*
X137870000Y-78243969D01*
X137870000Y-76262119D01*
X137914065Y-76012213D01*
X138009405Y-75847080D01*
X138155477Y-75724512D01*
X138332633Y-75660031D01*
X138357612Y-75665000D01*
X138357612Y-75665000D01*
G37*
X138357612Y-75665000D02*
X166650896Y-75665000D01*
X166528070Y-75747070D01*
X166485670Y-75810526D01*
X163784365Y-78511831D01*
X163692417Y-77959407D01*
X163356688Y-77287507D01*
X162838234Y-76744028D01*
X162182895Y-76377021D01*
X161448612Y-76218934D01*
X160700305Y-76283744D01*
X160004135Y-76565722D01*
X159421654Y-77039936D01*
X159004361Y-77664460D01*
X158789150Y-78384076D01*
X158795049Y-79135161D01*
X159021537Y-79851309D01*
X159448588Y-80469201D01*
X160038446Y-80934208D01*
X160738959Y-81205216D01*
X161488192Y-81258264D01*
X162191715Y-81095196D01*
X161718815Y-81291078D01*
X161301078Y-81708815D01*
X161075000Y-82254615D01*
X161075000Y-82845385D01*
X161301078Y-83391185D01*
X161718815Y-83808922D01*
X161745560Y-83820000D01*
X161718815Y-83831078D01*
X161301078Y-84248815D01*
X161075000Y-84794615D01*
X161075000Y-85385385D01*
X161301078Y-85931185D01*
X161718815Y-86348922D01*
X161745560Y-86360000D01*
X161718815Y-86371078D01*
X161301078Y-86788815D01*
X161075000Y-87334615D01*
X161075000Y-87925385D01*
X161301078Y-88471185D01*
X161718815Y-88888922D01*
X161745560Y-88900000D01*
X161718815Y-88911078D01*
X161301078Y-89328815D01*
X161075000Y-89874615D01*
X161075000Y-90465385D01*
X161301078Y-91011185D01*
X161718815Y-91428922D01*
X161745560Y-91440000D01*
X161718815Y-91451078D01*
X161301078Y-91868815D01*
X161208821Y-92091544D01*
X161151758Y-91953783D01*
X160776217Y-91578242D01*
X160285548Y-91375000D01*
X159754452Y-91375000D01*
X159263783Y-91578242D01*
X158888242Y-91953783D01*
X158685000Y-92444452D01*
X158685000Y-92975548D01*
X158888242Y-93466217D01*
X159263783Y-93841758D01*
X159754452Y-94045000D01*
X160280198Y-94045000D01*
X160725198Y-94490000D01*
X159332846Y-94490000D01*
X159257999Y-94475112D01*
X159183152Y-94490000D01*
X159183148Y-94490000D01*
X158961463Y-94534096D01*
X158710071Y-94702071D01*
X158667672Y-94765526D01*
X154900199Y-98533000D01*
X154734126Y-98533000D01*
X154353720Y-98690569D01*
X154062569Y-98981720D01*
X153905000Y-99362126D01*
X153905000Y-99773874D01*
X154062569Y-100154280D01*
X154353720Y-100445431D01*
X154734126Y-100603000D01*
X154862198Y-100603000D01*
X152766408Y-102698791D01*
X152546256Y-102655000D01*
X152253744Y-102655000D01*
X151820582Y-102741161D01*
X151329375Y-103069375D01*
X151130000Y-103367761D01*
X150930625Y-103069375D01*
X150439418Y-102741161D01*
X150006256Y-102655000D01*
X149713744Y-102655000D01*
X149280582Y-102741161D01*
X148789375Y-103069375D01*
X148774904Y-103091033D01*
X148708327Y-102930302D01*
X148529699Y-102751673D01*
X148296310Y-102655000D01*
X147605750Y-102655000D01*
X147447000Y-102813750D01*
X147447000Y-104013000D01*
X147467000Y-104013000D01*
X147467000Y-104267000D01*
X147447000Y-104267000D01*
X147447000Y-104287000D01*
X147193000Y-104287000D01*
X147193000Y-104267000D01*
X145993750Y-104267000D01*
X145835000Y-104425750D01*
X145835000Y-104608092D01*
X145660525Y-104724672D01*
X145660523Y-104724674D01*
X145597070Y-104767072D01*
X145554672Y-104830525D01*
X143876408Y-106508791D01*
X143656256Y-106465000D01*
X143363744Y-106465000D01*
X142930582Y-106551161D01*
X142439375Y-106879375D01*
X142231822Y-107190000D01*
X140357550Y-107190000D01*
X140323922Y-107108815D01*
X139906185Y-106691078D01*
X139859753Y-106671845D01*
X139929353Y-106453958D01*
X139065000Y-105589605D01*
X138200647Y-106453958D01*
X138270247Y-106671845D01*
X138223815Y-106691078D01*
X137870000Y-107044893D01*
X137870000Y-106226106D01*
X138021042Y-106274353D01*
X138885395Y-105410000D01*
X139244605Y-105410000D01*
X140108958Y-106274353D01*
X140360259Y-106194080D01*
X140561718Y-105638721D01*
X140535315Y-105048542D01*
X140360259Y-104625920D01*
X140108958Y-104545647D01*
X139244605Y-105410000D01*
X138885395Y-105410000D01*
X138021042Y-104545647D01*
X137870000Y-104593894D01*
X137870000Y-103775107D01*
X138223815Y-104128922D01*
X138270247Y-104148155D01*
X138200647Y-104366042D01*
X139065000Y-105230395D01*
X139929353Y-104366042D01*
X139859753Y-104148155D01*
X139906185Y-104128922D01*
X140323922Y-103711185D01*
X140550000Y-103165385D01*
X140550000Y-103163691D01*
X145835000Y-103163691D01*
X145835000Y-103854250D01*
X145993750Y-104013000D01*
X147193000Y-104013000D01*
X147193000Y-102813750D01*
X147034250Y-102655000D01*
X146343690Y-102655000D01*
X146110301Y-102751673D01*
X145931673Y-102930302D01*
X145835000Y-103163691D01*
X140550000Y-103163691D01*
X140550000Y-102574615D01*
X140323922Y-102028815D01*
X139906185Y-101611078D01*
X139879440Y-101600000D01*
X139906185Y-101588922D01*
X140323922Y-101171185D01*
X140550000Y-100625385D01*
X140550000Y-100034615D01*
X140323922Y-99488815D01*
X139906185Y-99071078D01*
X139879440Y-99060000D01*
X139906185Y-99048922D01*
X140323922Y-98631185D01*
X140550000Y-98085385D01*
X140550000Y-97494615D01*
X140323922Y-96948815D01*
X139906185Y-96531078D01*
X139879440Y-96520000D01*
X139906185Y-96508922D01*
X140323922Y-96091185D01*
X140550000Y-95545385D01*
X140550000Y-94954615D01*
X140323922Y-94408815D01*
X139906185Y-93991078D01*
X139879440Y-93980000D01*
X139906185Y-93968922D01*
X140323922Y-93551185D01*
X140550000Y-93005385D01*
X140550000Y-92414615D01*
X140323922Y-91868815D01*
X139906185Y-91451078D01*
X139879440Y-91440000D01*
X139906185Y-91428922D01*
X140323922Y-91011185D01*
X140550000Y-90465385D01*
X140550000Y-89874615D01*
X140323922Y-89328815D01*
X139906185Y-88911078D01*
X139879440Y-88900000D01*
X139906185Y-88888922D01*
X140323922Y-88471185D01*
X140550000Y-87925385D01*
X140550000Y-87334615D01*
X140323922Y-86788815D01*
X139906185Y-86371078D01*
X139879440Y-86360000D01*
X139906185Y-86348922D01*
X140323922Y-85931185D01*
X140550000Y-85385385D01*
X140550000Y-84794615D01*
X140323922Y-84248815D01*
X139906185Y-83831078D01*
X139879440Y-83820000D01*
X139906185Y-83808922D01*
X140323922Y-83391185D01*
X140550000Y-82845385D01*
X140550000Y-82254615D01*
X140323922Y-81708815D01*
X139906185Y-81291078D01*
X139360385Y-81065000D01*
X138769615Y-81065000D01*
X138223815Y-81291078D01*
X137870000Y-81644893D01*
X137870000Y-79248998D01*
X138060486Y-79851309D01*
X138487537Y-80469201D01*
X139077395Y-80934208D01*
X139777908Y-81205216D01*
X140527141Y-81258264D01*
X141258850Y-81088663D01*
X141908344Y-80711407D01*
X142418197Y-80159851D01*
X142743331Y-79482761D01*
X142855000Y-78740000D01*
X142854688Y-78700323D01*
X142731366Y-77959407D01*
X142395637Y-77287507D01*
X141877183Y-76744028D01*
X141221844Y-76377021D01*
X140487561Y-76218934D01*
X139739254Y-76283744D01*
X139043084Y-76565722D01*
X138460603Y-77039936D01*
X138043310Y-77664460D01*
X137870000Y-78243969D01*
X137870000Y-76262119D01*
X137914065Y-76012213D01*
X138009405Y-75847080D01*
X138155477Y-75724512D01*
X138332633Y-75660031D01*
X138357612Y-75665000D01*
G04 #@! TD*
M02*
