G04 #@! TF.GenerationSoftware,KiCad,Pcbnew,5.0.2-bee76a0~70~ubuntu18.04.1*
G04 #@! TF.CreationDate,2020-05-13T22:21:42-07:00*
G04 #@! TF.ProjectId,pcb,7063622e-6b69-4636-9164-5f7063625858,rev?*
G04 #@! TF.SameCoordinates,Original*
G04 #@! TF.FileFunction,Soldermask,Top*
G04 #@! TF.FilePolarity,Negative*
%FSLAX46Y46*%
G04 Gerber Fmt 4.6, Leading zero omitted, Abs format (unit mm)*
G04 Created by KiCad (PCBNEW 5.0.2-bee76a0~70~ubuntu18.04.1) date Wed 13 May 2020 10:21:42 PM PDT*
%MOMM*%
%LPD*%
G01*
G04 APERTURE LIST*
%ADD10C,0.100000*%
G04 APERTURE END LIST*
D10*
G36*
X174446565Y-122869389D02*
X174637834Y-122948615D01*
X174809976Y-123063637D01*
X174956363Y-123210024D01*
X175071385Y-123382166D01*
X175150611Y-123573435D01*
X175191000Y-123776484D01*
X175191000Y-123983516D01*
X175150611Y-124186565D01*
X175071385Y-124377834D01*
X174956363Y-124549976D01*
X174809976Y-124696363D01*
X174637834Y-124811385D01*
X174446565Y-124890611D01*
X174243516Y-124931000D01*
X174036484Y-124931000D01*
X173833435Y-124890611D01*
X173642166Y-124811385D01*
X173470024Y-124696363D01*
X173323637Y-124549976D01*
X173208615Y-124377834D01*
X173129389Y-124186565D01*
X173089000Y-123983516D01*
X173089000Y-123776484D01*
X173129389Y-123573435D01*
X173208615Y-123382166D01*
X173323637Y-123210024D01*
X173470024Y-123063637D01*
X173642166Y-122948615D01*
X173833435Y-122869389D01*
X174036484Y-122829000D01*
X174243516Y-122829000D01*
X174446565Y-122869389D01*
X174446565Y-122869389D01*
G37*
G36*
X167946565Y-122869389D02*
X168137834Y-122948615D01*
X168309976Y-123063637D01*
X168456363Y-123210024D01*
X168571385Y-123382166D01*
X168650611Y-123573435D01*
X168691000Y-123776484D01*
X168691000Y-123983516D01*
X168650611Y-124186565D01*
X168571385Y-124377834D01*
X168456363Y-124549976D01*
X168309976Y-124696363D01*
X168137834Y-124811385D01*
X167946565Y-124890611D01*
X167743516Y-124931000D01*
X167536484Y-124931000D01*
X167333435Y-124890611D01*
X167142166Y-124811385D01*
X166970024Y-124696363D01*
X166823637Y-124549976D01*
X166708615Y-124377834D01*
X166629389Y-124186565D01*
X166589000Y-123983516D01*
X166589000Y-123776484D01*
X166629389Y-123573435D01*
X166708615Y-123382166D01*
X166823637Y-123210024D01*
X166970024Y-123063637D01*
X167142166Y-122948615D01*
X167333435Y-122869389D01*
X167536484Y-122829000D01*
X167743516Y-122829000D01*
X167946565Y-122869389D01*
X167946565Y-122869389D01*
G37*
G36*
X167946565Y-118369389D02*
X168137834Y-118448615D01*
X168309976Y-118563637D01*
X168456363Y-118710024D01*
X168571385Y-118882166D01*
X168650611Y-119073435D01*
X168691000Y-119276484D01*
X168691000Y-119483516D01*
X168650611Y-119686565D01*
X168571385Y-119877834D01*
X168456363Y-120049976D01*
X168309976Y-120196363D01*
X168137834Y-120311385D01*
X167946565Y-120390611D01*
X167743516Y-120431000D01*
X167536484Y-120431000D01*
X167333435Y-120390611D01*
X167142166Y-120311385D01*
X166970024Y-120196363D01*
X166823637Y-120049976D01*
X166708615Y-119877834D01*
X166629389Y-119686565D01*
X166589000Y-119483516D01*
X166589000Y-119276484D01*
X166629389Y-119073435D01*
X166708615Y-118882166D01*
X166823637Y-118710024D01*
X166970024Y-118563637D01*
X167142166Y-118448615D01*
X167333435Y-118369389D01*
X167536484Y-118329000D01*
X167743516Y-118329000D01*
X167946565Y-118369389D01*
X167946565Y-118369389D01*
G37*
G36*
X174446565Y-118369389D02*
X174637834Y-118448615D01*
X174809976Y-118563637D01*
X174956363Y-118710024D01*
X175071385Y-118882166D01*
X175150611Y-119073435D01*
X175191000Y-119276484D01*
X175191000Y-119483516D01*
X175150611Y-119686565D01*
X175071385Y-119877834D01*
X174956363Y-120049976D01*
X174809976Y-120196363D01*
X174637834Y-120311385D01*
X174446565Y-120390611D01*
X174243516Y-120431000D01*
X174036484Y-120431000D01*
X173833435Y-120390611D01*
X173642166Y-120311385D01*
X173470024Y-120196363D01*
X173323637Y-120049976D01*
X173208615Y-119877834D01*
X173129389Y-119686565D01*
X173089000Y-119483516D01*
X173089000Y-119276484D01*
X173129389Y-119073435D01*
X173208615Y-118882166D01*
X173323637Y-118710024D01*
X173470024Y-118563637D01*
X173642166Y-118448615D01*
X173833435Y-118369389D01*
X174036484Y-118329000D01*
X174243516Y-118329000D01*
X174446565Y-118369389D01*
X174446565Y-118369389D01*
G37*
G36*
X162822812Y-117243624D02*
X162986784Y-117311544D01*
X163134354Y-117410147D01*
X163259853Y-117535646D01*
X163358456Y-117683216D01*
X163426376Y-117847188D01*
X163461000Y-118021259D01*
X163461000Y-118198741D01*
X163426376Y-118372812D01*
X163358456Y-118536784D01*
X163259853Y-118684354D01*
X163134354Y-118809853D01*
X162986784Y-118908456D01*
X162822812Y-118976376D01*
X162648741Y-119011000D01*
X162471259Y-119011000D01*
X162297188Y-118976376D01*
X162133216Y-118908456D01*
X161985646Y-118809853D01*
X161860147Y-118684354D01*
X161761544Y-118536784D01*
X161693624Y-118372812D01*
X161659000Y-118198741D01*
X161659000Y-118021259D01*
X161693624Y-117847188D01*
X161761544Y-117683216D01*
X161860147Y-117535646D01*
X161985646Y-117410147D01*
X162133216Y-117311544D01*
X162297188Y-117243624D01*
X162471259Y-117209000D01*
X162648741Y-117209000D01*
X162822812Y-117243624D01*
X162822812Y-117243624D01*
G37*
G36*
X139327812Y-117243624D02*
X139491784Y-117311544D01*
X139639354Y-117410147D01*
X139764853Y-117535646D01*
X139863456Y-117683216D01*
X139931376Y-117847188D01*
X139966000Y-118021259D01*
X139966000Y-118198741D01*
X139931376Y-118372812D01*
X139863456Y-118536784D01*
X139764853Y-118684354D01*
X139639354Y-118809853D01*
X139491784Y-118908456D01*
X139327812Y-118976376D01*
X139153741Y-119011000D01*
X138976259Y-119011000D01*
X138802188Y-118976376D01*
X138638216Y-118908456D01*
X138490646Y-118809853D01*
X138365147Y-118684354D01*
X138266544Y-118536784D01*
X138198624Y-118372812D01*
X138164000Y-118198741D01*
X138164000Y-118021259D01*
X138198624Y-117847188D01*
X138266544Y-117683216D01*
X138365147Y-117535646D01*
X138490646Y-117410147D01*
X138638216Y-117311544D01*
X138802188Y-117243624D01*
X138976259Y-117209000D01*
X139153741Y-117209000D01*
X139327812Y-117243624D01*
X139327812Y-117243624D01*
G37*
G36*
X174825665Y-115076622D02*
X174899222Y-115083867D01*
X175040786Y-115126810D01*
X175171252Y-115196546D01*
X175285606Y-115290394D01*
X175379454Y-115404748D01*
X175449190Y-115535214D01*
X175492133Y-115676778D01*
X175506633Y-115824000D01*
X175492133Y-115971222D01*
X175449190Y-116112786D01*
X175379454Y-116243252D01*
X175285606Y-116357606D01*
X175171252Y-116451454D01*
X175040786Y-116521190D01*
X174899222Y-116564133D01*
X174825665Y-116571378D01*
X174788888Y-116575000D01*
X174715112Y-116575000D01*
X174678335Y-116571378D01*
X174604778Y-116564133D01*
X174463214Y-116521190D01*
X174332748Y-116451454D01*
X174218394Y-116357606D01*
X174124546Y-116243252D01*
X174054810Y-116112786D01*
X174011867Y-115971222D01*
X173997367Y-115824000D01*
X174011867Y-115676778D01*
X174054810Y-115535214D01*
X174124546Y-115404748D01*
X174218394Y-115290394D01*
X174332748Y-115196546D01*
X174463214Y-115126810D01*
X174604778Y-115083867D01*
X174678335Y-115076622D01*
X174715112Y-115073000D01*
X174788888Y-115073000D01*
X174825665Y-115076622D01*
X174825665Y-115076622D01*
G37*
G36*
X167260600Y-115083867D02*
X167351059Y-115101860D01*
X167487732Y-115158472D01*
X167544715Y-115196547D01*
X167610738Y-115240662D01*
X167715338Y-115345262D01*
X167715340Y-115345265D01*
X167797528Y-115468268D01*
X167854140Y-115604941D01*
X167883000Y-115750033D01*
X167883000Y-115897967D01*
X167854140Y-116043059D01*
X167797528Y-116179732D01*
X167737313Y-116269850D01*
X167715338Y-116302738D01*
X167610738Y-116407338D01*
X167610735Y-116407340D01*
X167487732Y-116489528D01*
X167351059Y-116546140D01*
X167264004Y-116563456D01*
X167205969Y-116575000D01*
X167058031Y-116575000D01*
X166999996Y-116563456D01*
X166912941Y-116546140D01*
X166776268Y-116489528D01*
X166653265Y-116407340D01*
X166653262Y-116407338D01*
X166548662Y-116302738D01*
X166526687Y-116269850D01*
X166466472Y-116179732D01*
X166409860Y-116043059D01*
X166381000Y-115897967D01*
X166381000Y-115750033D01*
X166409860Y-115604941D01*
X166466472Y-115468268D01*
X166548660Y-115345265D01*
X166548662Y-115345262D01*
X166653262Y-115240662D01*
X166719285Y-115196547D01*
X166776268Y-115158472D01*
X166912941Y-115101860D01*
X167003400Y-115083867D01*
X167058031Y-115073000D01*
X167205969Y-115073000D01*
X167260600Y-115083867D01*
X167260600Y-115083867D01*
G37*
G36*
X162822812Y-114703624D02*
X162986784Y-114771544D01*
X163134354Y-114870147D01*
X163259853Y-114995646D01*
X163358456Y-115143216D01*
X163426376Y-115307188D01*
X163461000Y-115481259D01*
X163461000Y-115658741D01*
X163426376Y-115832812D01*
X163358456Y-115996784D01*
X163259853Y-116144354D01*
X163134354Y-116269853D01*
X162986784Y-116368456D01*
X162822812Y-116436376D01*
X162648741Y-116471000D01*
X162471259Y-116471000D01*
X162297188Y-116436376D01*
X162133216Y-116368456D01*
X161985646Y-116269853D01*
X161860147Y-116144354D01*
X161761544Y-115996784D01*
X161693624Y-115832812D01*
X161659000Y-115658741D01*
X161659000Y-115481259D01*
X161693624Y-115307188D01*
X161761544Y-115143216D01*
X161860147Y-114995646D01*
X161985646Y-114870147D01*
X162133216Y-114771544D01*
X162297188Y-114703624D01*
X162471259Y-114669000D01*
X162648741Y-114669000D01*
X162822812Y-114703624D01*
X162822812Y-114703624D01*
G37*
G36*
X139327812Y-114703624D02*
X139491784Y-114771544D01*
X139639354Y-114870147D01*
X139764853Y-114995646D01*
X139863456Y-115143216D01*
X139931376Y-115307188D01*
X139966000Y-115481259D01*
X139966000Y-115658741D01*
X139931376Y-115832812D01*
X139863456Y-115996784D01*
X139764853Y-116144354D01*
X139639354Y-116269853D01*
X139491784Y-116368456D01*
X139327812Y-116436376D01*
X139153741Y-116471000D01*
X138976259Y-116471000D01*
X138802188Y-116436376D01*
X138638216Y-116368456D01*
X138490646Y-116269853D01*
X138365147Y-116144354D01*
X138266544Y-115996784D01*
X138198624Y-115832812D01*
X138164000Y-115658741D01*
X138164000Y-115481259D01*
X138198624Y-115307188D01*
X138266544Y-115143216D01*
X138365147Y-114995646D01*
X138490646Y-114870147D01*
X138638216Y-114771544D01*
X138802188Y-114703624D01*
X138976259Y-114669000D01*
X139153741Y-114669000D01*
X139327812Y-114703624D01*
X139327812Y-114703624D01*
G37*
G36*
X139327812Y-112163624D02*
X139491784Y-112231544D01*
X139639354Y-112330147D01*
X139764853Y-112455646D01*
X139863456Y-112603216D01*
X139931376Y-112767188D01*
X139966000Y-112941259D01*
X139966000Y-113118741D01*
X139931376Y-113292812D01*
X139863456Y-113456784D01*
X139764853Y-113604354D01*
X139639354Y-113729853D01*
X139491784Y-113828456D01*
X139327812Y-113896376D01*
X139153741Y-113931000D01*
X138976259Y-113931000D01*
X138802188Y-113896376D01*
X138638216Y-113828456D01*
X138490646Y-113729853D01*
X138365147Y-113604354D01*
X138266544Y-113456784D01*
X138198624Y-113292812D01*
X138164000Y-113118741D01*
X138164000Y-112941259D01*
X138198624Y-112767188D01*
X138266544Y-112603216D01*
X138365147Y-112455646D01*
X138490646Y-112330147D01*
X138638216Y-112231544D01*
X138802188Y-112163624D01*
X138976259Y-112129000D01*
X139153741Y-112129000D01*
X139327812Y-112163624D01*
X139327812Y-112163624D01*
G37*
G36*
X162822812Y-112163624D02*
X162986784Y-112231544D01*
X163134354Y-112330147D01*
X163259853Y-112455646D01*
X163358456Y-112603216D01*
X163426376Y-112767188D01*
X163461000Y-112941259D01*
X163461000Y-113118741D01*
X163426376Y-113292812D01*
X163358456Y-113456784D01*
X163259853Y-113604354D01*
X163134354Y-113729853D01*
X162986784Y-113828456D01*
X162822812Y-113896376D01*
X162648741Y-113931000D01*
X162471259Y-113931000D01*
X162297188Y-113896376D01*
X162133216Y-113828456D01*
X161985646Y-113729853D01*
X161860147Y-113604354D01*
X161761544Y-113456784D01*
X161693624Y-113292812D01*
X161659000Y-113118741D01*
X161659000Y-112941259D01*
X161693624Y-112767188D01*
X161761544Y-112603216D01*
X161860147Y-112455646D01*
X161985646Y-112330147D01*
X162133216Y-112231544D01*
X162297188Y-112163624D01*
X162471259Y-112129000D01*
X162648741Y-112129000D01*
X162822812Y-112163624D01*
X162822812Y-112163624D01*
G37*
G36*
X139327812Y-109623624D02*
X139491784Y-109691544D01*
X139639354Y-109790147D01*
X139764853Y-109915646D01*
X139863456Y-110063216D01*
X139931376Y-110227188D01*
X139966000Y-110401259D01*
X139966000Y-110578741D01*
X139931376Y-110752812D01*
X139863456Y-110916784D01*
X139764853Y-111064354D01*
X139639354Y-111189853D01*
X139491784Y-111288456D01*
X139327812Y-111356376D01*
X139153741Y-111391000D01*
X138976259Y-111391000D01*
X138802188Y-111356376D01*
X138638216Y-111288456D01*
X138490646Y-111189853D01*
X138365147Y-111064354D01*
X138266544Y-110916784D01*
X138198624Y-110752812D01*
X138164000Y-110578741D01*
X138164000Y-110401259D01*
X138198624Y-110227188D01*
X138266544Y-110063216D01*
X138365147Y-109915646D01*
X138490646Y-109790147D01*
X138638216Y-109691544D01*
X138802188Y-109623624D01*
X138976259Y-109589000D01*
X139153741Y-109589000D01*
X139327812Y-109623624D01*
X139327812Y-109623624D01*
G37*
G36*
X162822812Y-109623624D02*
X162986784Y-109691544D01*
X163134354Y-109790147D01*
X163259853Y-109915646D01*
X163358456Y-110063216D01*
X163426376Y-110227188D01*
X163461000Y-110401259D01*
X163461000Y-110578741D01*
X163426376Y-110752812D01*
X163358456Y-110916784D01*
X163259853Y-111064354D01*
X163134354Y-111189853D01*
X162986784Y-111288456D01*
X162822812Y-111356376D01*
X162648741Y-111391000D01*
X162471259Y-111391000D01*
X162297188Y-111356376D01*
X162133216Y-111288456D01*
X161985646Y-111189853D01*
X161860147Y-111064354D01*
X161761544Y-110916784D01*
X161693624Y-110752812D01*
X161659000Y-110578741D01*
X161659000Y-110401259D01*
X161693624Y-110227188D01*
X161761544Y-110063216D01*
X161860147Y-109915646D01*
X161985646Y-109790147D01*
X162133216Y-109691544D01*
X162297188Y-109623624D01*
X162471259Y-109589000D01*
X162648741Y-109589000D01*
X162822812Y-109623624D01*
X162822812Y-109623624D01*
G37*
G36*
X148700442Y-107055518D02*
X148766627Y-107062037D01*
X148879853Y-107096384D01*
X148936467Y-107113557D01*
X149075087Y-107187652D01*
X149092991Y-107197222D01*
X149128729Y-107226552D01*
X149230186Y-107309814D01*
X149313448Y-107411271D01*
X149342778Y-107447009D01*
X149342779Y-107447011D01*
X149426443Y-107603533D01*
X149426443Y-107603534D01*
X149477963Y-107773373D01*
X149495359Y-107950000D01*
X149477963Y-108126627D01*
X149451819Y-108212812D01*
X149426443Y-108296467D01*
X149383513Y-108376782D01*
X149342778Y-108452991D01*
X149313448Y-108488729D01*
X149230186Y-108590186D01*
X149157480Y-108649853D01*
X149092991Y-108702778D01*
X149092989Y-108702779D01*
X148936467Y-108786443D01*
X148879853Y-108803616D01*
X148766627Y-108837963D01*
X148700442Y-108844482D01*
X148634260Y-108851000D01*
X148545740Y-108851000D01*
X148479558Y-108844482D01*
X148413373Y-108837963D01*
X148300147Y-108803616D01*
X148243533Y-108786443D01*
X148087011Y-108702779D01*
X148087009Y-108702778D01*
X148022520Y-108649853D01*
X147949814Y-108590186D01*
X147866552Y-108488729D01*
X147837222Y-108452991D01*
X147796487Y-108376782D01*
X147753557Y-108296467D01*
X147728181Y-108212812D01*
X147702037Y-108126627D01*
X147684641Y-107950000D01*
X147702037Y-107773373D01*
X147753557Y-107603534D01*
X147753557Y-107603533D01*
X147837221Y-107447011D01*
X147837222Y-107447009D01*
X147866552Y-107411271D01*
X147949814Y-107309814D01*
X148051271Y-107226552D01*
X148087009Y-107197222D01*
X148104913Y-107187652D01*
X148243533Y-107113557D01*
X148300147Y-107096384D01*
X148413373Y-107062037D01*
X148479558Y-107055518D01*
X148545740Y-107049000D01*
X148634260Y-107049000D01*
X148700442Y-107055518D01*
X148700442Y-107055518D01*
G37*
G36*
X159651000Y-108851000D02*
X157849000Y-108851000D01*
X157849000Y-107049000D01*
X159651000Y-107049000D01*
X159651000Y-108851000D01*
X159651000Y-108851000D01*
G37*
G36*
X156320442Y-107055518D02*
X156386627Y-107062037D01*
X156499853Y-107096384D01*
X156556467Y-107113557D01*
X156695087Y-107187652D01*
X156712991Y-107197222D01*
X156748729Y-107226552D01*
X156850186Y-107309814D01*
X156933448Y-107411271D01*
X156962778Y-107447009D01*
X156962779Y-107447011D01*
X157046443Y-107603533D01*
X157046443Y-107603534D01*
X157097963Y-107773373D01*
X157115359Y-107950000D01*
X157097963Y-108126627D01*
X157071819Y-108212812D01*
X157046443Y-108296467D01*
X157003513Y-108376782D01*
X156962778Y-108452991D01*
X156933448Y-108488729D01*
X156850186Y-108590186D01*
X156777480Y-108649853D01*
X156712991Y-108702778D01*
X156712989Y-108702779D01*
X156556467Y-108786443D01*
X156499853Y-108803616D01*
X156386627Y-108837963D01*
X156320442Y-108844482D01*
X156254260Y-108851000D01*
X156165740Y-108851000D01*
X156099558Y-108844482D01*
X156033373Y-108837963D01*
X155920147Y-108803616D01*
X155863533Y-108786443D01*
X155707011Y-108702779D01*
X155707009Y-108702778D01*
X155642520Y-108649853D01*
X155569814Y-108590186D01*
X155486552Y-108488729D01*
X155457222Y-108452991D01*
X155416487Y-108376782D01*
X155373557Y-108296467D01*
X155348181Y-108212812D01*
X155322037Y-108126627D01*
X155304641Y-107950000D01*
X155322037Y-107773373D01*
X155373557Y-107603534D01*
X155373557Y-107603533D01*
X155457221Y-107447011D01*
X155457222Y-107447009D01*
X155486552Y-107411271D01*
X155569814Y-107309814D01*
X155671271Y-107226552D01*
X155707009Y-107197222D01*
X155724913Y-107187652D01*
X155863533Y-107113557D01*
X155920147Y-107096384D01*
X156033373Y-107062037D01*
X156099558Y-107055518D01*
X156165740Y-107049000D01*
X156254260Y-107049000D01*
X156320442Y-107055518D01*
X156320442Y-107055518D01*
G37*
G36*
X153780442Y-107055518D02*
X153846627Y-107062037D01*
X153959853Y-107096384D01*
X154016467Y-107113557D01*
X154155087Y-107187652D01*
X154172991Y-107197222D01*
X154208729Y-107226552D01*
X154310186Y-107309814D01*
X154393448Y-107411271D01*
X154422778Y-107447009D01*
X154422779Y-107447011D01*
X154506443Y-107603533D01*
X154506443Y-107603534D01*
X154557963Y-107773373D01*
X154575359Y-107950000D01*
X154557963Y-108126627D01*
X154531819Y-108212812D01*
X154506443Y-108296467D01*
X154463513Y-108376782D01*
X154422778Y-108452991D01*
X154393448Y-108488729D01*
X154310186Y-108590186D01*
X154237480Y-108649853D01*
X154172991Y-108702778D01*
X154172989Y-108702779D01*
X154016467Y-108786443D01*
X153959853Y-108803616D01*
X153846627Y-108837963D01*
X153780442Y-108844482D01*
X153714260Y-108851000D01*
X153625740Y-108851000D01*
X153559558Y-108844482D01*
X153493373Y-108837963D01*
X153380147Y-108803616D01*
X153323533Y-108786443D01*
X153167011Y-108702779D01*
X153167009Y-108702778D01*
X153102520Y-108649853D01*
X153029814Y-108590186D01*
X152946552Y-108488729D01*
X152917222Y-108452991D01*
X152876487Y-108376782D01*
X152833557Y-108296467D01*
X152808181Y-108212812D01*
X152782037Y-108126627D01*
X152764641Y-107950000D01*
X152782037Y-107773373D01*
X152833557Y-107603534D01*
X152833557Y-107603533D01*
X152917221Y-107447011D01*
X152917222Y-107447009D01*
X152946552Y-107411271D01*
X153029814Y-107309814D01*
X153131271Y-107226552D01*
X153167009Y-107197222D01*
X153184913Y-107187652D01*
X153323533Y-107113557D01*
X153380147Y-107096384D01*
X153493373Y-107062037D01*
X153559558Y-107055518D01*
X153625740Y-107049000D01*
X153714260Y-107049000D01*
X153780442Y-107055518D01*
X153780442Y-107055518D01*
G37*
G36*
X151240442Y-107055518D02*
X151306627Y-107062037D01*
X151419853Y-107096384D01*
X151476467Y-107113557D01*
X151615087Y-107187652D01*
X151632991Y-107197222D01*
X151668729Y-107226552D01*
X151770186Y-107309814D01*
X151853448Y-107411271D01*
X151882778Y-107447009D01*
X151882779Y-107447011D01*
X151966443Y-107603533D01*
X151966443Y-107603534D01*
X152017963Y-107773373D01*
X152035359Y-107950000D01*
X152017963Y-108126627D01*
X151991819Y-108212812D01*
X151966443Y-108296467D01*
X151923513Y-108376782D01*
X151882778Y-108452991D01*
X151853448Y-108488729D01*
X151770186Y-108590186D01*
X151697480Y-108649853D01*
X151632991Y-108702778D01*
X151632989Y-108702779D01*
X151476467Y-108786443D01*
X151419853Y-108803616D01*
X151306627Y-108837963D01*
X151240442Y-108844482D01*
X151174260Y-108851000D01*
X151085740Y-108851000D01*
X151019558Y-108844482D01*
X150953373Y-108837963D01*
X150840147Y-108803616D01*
X150783533Y-108786443D01*
X150627011Y-108702779D01*
X150627009Y-108702778D01*
X150562520Y-108649853D01*
X150489814Y-108590186D01*
X150406552Y-108488729D01*
X150377222Y-108452991D01*
X150336487Y-108376782D01*
X150293557Y-108296467D01*
X150268181Y-108212812D01*
X150242037Y-108126627D01*
X150224641Y-107950000D01*
X150242037Y-107773373D01*
X150293557Y-107603534D01*
X150293557Y-107603533D01*
X150377221Y-107447011D01*
X150377222Y-107447009D01*
X150406552Y-107411271D01*
X150489814Y-107309814D01*
X150591271Y-107226552D01*
X150627009Y-107197222D01*
X150644913Y-107187652D01*
X150783533Y-107113557D01*
X150840147Y-107096384D01*
X150953373Y-107062037D01*
X151019558Y-107055518D01*
X151085740Y-107049000D01*
X151174260Y-107049000D01*
X151240442Y-107055518D01*
X151240442Y-107055518D01*
G37*
G36*
X146160442Y-107055518D02*
X146226627Y-107062037D01*
X146339853Y-107096384D01*
X146396467Y-107113557D01*
X146535087Y-107187652D01*
X146552991Y-107197222D01*
X146588729Y-107226552D01*
X146690186Y-107309814D01*
X146773448Y-107411271D01*
X146802778Y-107447009D01*
X146802779Y-107447011D01*
X146886443Y-107603533D01*
X146886443Y-107603534D01*
X146937963Y-107773373D01*
X146955359Y-107950000D01*
X146937963Y-108126627D01*
X146911819Y-108212812D01*
X146886443Y-108296467D01*
X146843513Y-108376782D01*
X146802778Y-108452991D01*
X146773448Y-108488729D01*
X146690186Y-108590186D01*
X146617480Y-108649853D01*
X146552991Y-108702778D01*
X146552989Y-108702779D01*
X146396467Y-108786443D01*
X146339853Y-108803616D01*
X146226627Y-108837963D01*
X146160442Y-108844482D01*
X146094260Y-108851000D01*
X146005740Y-108851000D01*
X145939558Y-108844482D01*
X145873373Y-108837963D01*
X145760147Y-108803616D01*
X145703533Y-108786443D01*
X145547011Y-108702779D01*
X145547009Y-108702778D01*
X145482520Y-108649853D01*
X145409814Y-108590186D01*
X145326552Y-108488729D01*
X145297222Y-108452991D01*
X145256487Y-108376782D01*
X145213557Y-108296467D01*
X145188181Y-108212812D01*
X145162037Y-108126627D01*
X145144641Y-107950000D01*
X145162037Y-107773373D01*
X145213557Y-107603534D01*
X145213557Y-107603533D01*
X145297221Y-107447011D01*
X145297222Y-107447009D01*
X145326552Y-107411271D01*
X145409814Y-107309814D01*
X145511271Y-107226552D01*
X145547009Y-107197222D01*
X145564913Y-107187652D01*
X145703533Y-107113557D01*
X145760147Y-107096384D01*
X145873373Y-107062037D01*
X145939558Y-107055518D01*
X146005740Y-107049000D01*
X146094260Y-107049000D01*
X146160442Y-107055518D01*
X146160442Y-107055518D01*
G37*
G36*
X143620442Y-107055518D02*
X143686627Y-107062037D01*
X143799853Y-107096384D01*
X143856467Y-107113557D01*
X143995087Y-107187652D01*
X144012991Y-107197222D01*
X144048729Y-107226552D01*
X144150186Y-107309814D01*
X144233448Y-107411271D01*
X144262778Y-107447009D01*
X144262779Y-107447011D01*
X144346443Y-107603533D01*
X144346443Y-107603534D01*
X144397963Y-107773373D01*
X144415359Y-107950000D01*
X144397963Y-108126627D01*
X144371819Y-108212812D01*
X144346443Y-108296467D01*
X144303513Y-108376782D01*
X144262778Y-108452991D01*
X144233448Y-108488729D01*
X144150186Y-108590186D01*
X144077480Y-108649853D01*
X144012991Y-108702778D01*
X144012989Y-108702779D01*
X143856467Y-108786443D01*
X143799853Y-108803616D01*
X143686627Y-108837963D01*
X143620442Y-108844482D01*
X143554260Y-108851000D01*
X143465740Y-108851000D01*
X143399558Y-108844482D01*
X143333373Y-108837963D01*
X143220147Y-108803616D01*
X143163533Y-108786443D01*
X143007011Y-108702779D01*
X143007009Y-108702778D01*
X142942520Y-108649853D01*
X142869814Y-108590186D01*
X142786552Y-108488729D01*
X142757222Y-108452991D01*
X142716487Y-108376782D01*
X142673557Y-108296467D01*
X142648181Y-108212812D01*
X142622037Y-108126627D01*
X142604641Y-107950000D01*
X142622037Y-107773373D01*
X142673557Y-107603534D01*
X142673557Y-107603533D01*
X142757221Y-107447011D01*
X142757222Y-107447009D01*
X142786552Y-107411271D01*
X142869814Y-107309814D01*
X142971271Y-107226552D01*
X143007009Y-107197222D01*
X143024913Y-107187652D01*
X143163533Y-107113557D01*
X143220147Y-107096384D01*
X143333373Y-107062037D01*
X143399558Y-107055518D01*
X143465740Y-107049000D01*
X143554260Y-107049000D01*
X143620442Y-107055518D01*
X143620442Y-107055518D01*
G37*
G36*
X162822812Y-107083624D02*
X162986784Y-107151544D01*
X163134354Y-107250147D01*
X163259853Y-107375646D01*
X163358456Y-107523216D01*
X163426376Y-107687188D01*
X163461000Y-107861259D01*
X163461000Y-108038741D01*
X163426376Y-108212812D01*
X163358456Y-108376784D01*
X163259853Y-108524354D01*
X163134354Y-108649853D01*
X162986784Y-108748456D01*
X162822812Y-108816376D01*
X162648741Y-108851000D01*
X162471259Y-108851000D01*
X162297188Y-108816376D01*
X162133216Y-108748456D01*
X161985646Y-108649853D01*
X161860147Y-108524354D01*
X161761544Y-108376784D01*
X161693624Y-108212812D01*
X161659000Y-108038741D01*
X161659000Y-107861259D01*
X161693624Y-107687188D01*
X161761544Y-107523216D01*
X161860147Y-107375646D01*
X161985646Y-107250147D01*
X162133216Y-107151544D01*
X162297188Y-107083624D01*
X162471259Y-107049000D01*
X162648741Y-107049000D01*
X162822812Y-107083624D01*
X162822812Y-107083624D01*
G37*
G36*
X139327812Y-107083624D02*
X139491784Y-107151544D01*
X139639354Y-107250147D01*
X139764853Y-107375646D01*
X139863456Y-107523216D01*
X139931376Y-107687188D01*
X139966000Y-107861259D01*
X139966000Y-108038741D01*
X139931376Y-108212812D01*
X139863456Y-108376784D01*
X139764853Y-108524354D01*
X139639354Y-108649853D01*
X139491784Y-108748456D01*
X139327812Y-108816376D01*
X139153741Y-108851000D01*
X138976259Y-108851000D01*
X138802188Y-108816376D01*
X138638216Y-108748456D01*
X138490646Y-108649853D01*
X138365147Y-108524354D01*
X138266544Y-108376784D01*
X138198624Y-108212812D01*
X138164000Y-108038741D01*
X138164000Y-107861259D01*
X138198624Y-107687188D01*
X138266544Y-107523216D01*
X138365147Y-107375646D01*
X138490646Y-107250147D01*
X138638216Y-107151544D01*
X138802188Y-107083624D01*
X138976259Y-107049000D01*
X139153741Y-107049000D01*
X139327812Y-107083624D01*
X139327812Y-107083624D01*
G37*
G36*
X162822812Y-104543624D02*
X162986784Y-104611544D01*
X163134354Y-104710147D01*
X163259853Y-104835646D01*
X163358456Y-104983216D01*
X163426376Y-105147188D01*
X163461000Y-105321259D01*
X163461000Y-105498741D01*
X163426376Y-105672812D01*
X163358456Y-105836784D01*
X163259853Y-105984354D01*
X163134354Y-106109853D01*
X162986784Y-106208456D01*
X162822812Y-106276376D01*
X162648741Y-106311000D01*
X162471259Y-106311000D01*
X162297188Y-106276376D01*
X162133216Y-106208456D01*
X161985646Y-106109853D01*
X161860147Y-105984354D01*
X161761544Y-105836784D01*
X161693624Y-105672812D01*
X161659000Y-105498741D01*
X161659000Y-105321259D01*
X161693624Y-105147188D01*
X161761544Y-104983216D01*
X161860147Y-104835646D01*
X161985646Y-104710147D01*
X162133216Y-104611544D01*
X162297188Y-104543624D01*
X162471259Y-104509000D01*
X162648741Y-104509000D01*
X162822812Y-104543624D01*
X162822812Y-104543624D01*
G37*
G36*
X139327812Y-104543624D02*
X139491784Y-104611544D01*
X139639354Y-104710147D01*
X139764853Y-104835646D01*
X139863456Y-104983216D01*
X139931376Y-105147188D01*
X139966000Y-105321259D01*
X139966000Y-105498741D01*
X139931376Y-105672812D01*
X139863456Y-105836784D01*
X139764853Y-105984354D01*
X139639354Y-106109853D01*
X139491784Y-106208456D01*
X139327812Y-106276376D01*
X139153741Y-106311000D01*
X138976259Y-106311000D01*
X138802188Y-106276376D01*
X138638216Y-106208456D01*
X138490646Y-106109853D01*
X138365147Y-105984354D01*
X138266544Y-105836784D01*
X138198624Y-105672812D01*
X138164000Y-105498741D01*
X138164000Y-105321259D01*
X138198624Y-105147188D01*
X138266544Y-104983216D01*
X138365147Y-104835646D01*
X138490646Y-104710147D01*
X138638216Y-104611544D01*
X138802188Y-104543624D01*
X138976259Y-104509000D01*
X139153741Y-104509000D01*
X139327812Y-104543624D01*
X139327812Y-104543624D01*
G37*
G36*
X148221000Y-105041000D02*
X146419000Y-105041000D01*
X146419000Y-103239000D01*
X148221000Y-103239000D01*
X148221000Y-105041000D01*
X148221000Y-105041000D01*
G37*
G36*
X152510443Y-103245519D02*
X152576627Y-103252037D01*
X152689853Y-103286384D01*
X152746467Y-103303557D01*
X152885087Y-103377652D01*
X152902991Y-103387222D01*
X152938729Y-103416552D01*
X153040186Y-103499814D01*
X153123448Y-103601271D01*
X153152778Y-103637009D01*
X153152779Y-103637011D01*
X153236443Y-103793533D01*
X153236443Y-103793534D01*
X153287963Y-103963373D01*
X153305359Y-104140000D01*
X153287963Y-104316627D01*
X153253616Y-104429853D01*
X153236443Y-104486467D01*
X153205891Y-104543624D01*
X153152778Y-104642991D01*
X153123448Y-104678729D01*
X153040186Y-104780186D01*
X152938729Y-104863448D01*
X152902991Y-104892778D01*
X152902989Y-104892779D01*
X152746467Y-104976443D01*
X152724132Y-104983218D01*
X152576627Y-105027963D01*
X152510442Y-105034482D01*
X152444260Y-105041000D01*
X152355740Y-105041000D01*
X152289557Y-105034481D01*
X152223373Y-105027963D01*
X152075868Y-104983218D01*
X152053533Y-104976443D01*
X151897011Y-104892779D01*
X151897009Y-104892778D01*
X151861271Y-104863448D01*
X151759814Y-104780186D01*
X151676552Y-104678729D01*
X151647222Y-104642991D01*
X151594109Y-104543624D01*
X151563557Y-104486467D01*
X151546384Y-104429853D01*
X151512037Y-104316627D01*
X151494641Y-104140000D01*
X151512037Y-103963373D01*
X151563557Y-103793534D01*
X151563557Y-103793533D01*
X151647221Y-103637011D01*
X151647222Y-103637009D01*
X151676552Y-103601271D01*
X151759814Y-103499814D01*
X151861271Y-103416552D01*
X151897009Y-103387222D01*
X151914913Y-103377652D01*
X152053533Y-103303557D01*
X152110147Y-103286384D01*
X152223373Y-103252037D01*
X152289558Y-103245518D01*
X152355740Y-103239000D01*
X152444260Y-103239000D01*
X152510443Y-103245519D01*
X152510443Y-103245519D01*
G37*
G36*
X155050443Y-103245519D02*
X155116627Y-103252037D01*
X155229853Y-103286384D01*
X155286467Y-103303557D01*
X155425087Y-103377652D01*
X155442991Y-103387222D01*
X155478729Y-103416552D01*
X155580186Y-103499814D01*
X155663448Y-103601271D01*
X155692778Y-103637009D01*
X155692779Y-103637011D01*
X155776443Y-103793533D01*
X155776443Y-103793534D01*
X155827963Y-103963373D01*
X155845359Y-104140000D01*
X155827963Y-104316627D01*
X155793616Y-104429853D01*
X155776443Y-104486467D01*
X155745891Y-104543624D01*
X155692778Y-104642991D01*
X155663448Y-104678729D01*
X155580186Y-104780186D01*
X155478729Y-104863448D01*
X155442991Y-104892778D01*
X155442989Y-104892779D01*
X155286467Y-104976443D01*
X155264132Y-104983218D01*
X155116627Y-105027963D01*
X155050442Y-105034482D01*
X154984260Y-105041000D01*
X154895740Y-105041000D01*
X154829557Y-105034481D01*
X154763373Y-105027963D01*
X154615868Y-104983218D01*
X154593533Y-104976443D01*
X154437011Y-104892779D01*
X154437009Y-104892778D01*
X154401271Y-104863448D01*
X154299814Y-104780186D01*
X154216552Y-104678729D01*
X154187222Y-104642991D01*
X154134109Y-104543624D01*
X154103557Y-104486467D01*
X154086384Y-104429853D01*
X154052037Y-104316627D01*
X154034641Y-104140000D01*
X154052037Y-103963373D01*
X154103557Y-103793534D01*
X154103557Y-103793533D01*
X154187221Y-103637011D01*
X154187222Y-103637009D01*
X154216552Y-103601271D01*
X154299814Y-103499814D01*
X154401271Y-103416552D01*
X154437009Y-103387222D01*
X154454913Y-103377652D01*
X154593533Y-103303557D01*
X154650147Y-103286384D01*
X154763373Y-103252037D01*
X154829558Y-103245518D01*
X154895740Y-103239000D01*
X154984260Y-103239000D01*
X155050443Y-103245519D01*
X155050443Y-103245519D01*
G37*
G36*
X149970443Y-103245519D02*
X150036627Y-103252037D01*
X150149853Y-103286384D01*
X150206467Y-103303557D01*
X150345087Y-103377652D01*
X150362991Y-103387222D01*
X150398729Y-103416552D01*
X150500186Y-103499814D01*
X150583448Y-103601271D01*
X150612778Y-103637009D01*
X150612779Y-103637011D01*
X150696443Y-103793533D01*
X150696443Y-103793534D01*
X150747963Y-103963373D01*
X150765359Y-104140000D01*
X150747963Y-104316627D01*
X150713616Y-104429853D01*
X150696443Y-104486467D01*
X150665891Y-104543624D01*
X150612778Y-104642991D01*
X150583448Y-104678729D01*
X150500186Y-104780186D01*
X150398729Y-104863448D01*
X150362991Y-104892778D01*
X150362989Y-104892779D01*
X150206467Y-104976443D01*
X150184132Y-104983218D01*
X150036627Y-105027963D01*
X149970442Y-105034482D01*
X149904260Y-105041000D01*
X149815740Y-105041000D01*
X149749557Y-105034481D01*
X149683373Y-105027963D01*
X149535868Y-104983218D01*
X149513533Y-104976443D01*
X149357011Y-104892779D01*
X149357009Y-104892778D01*
X149321271Y-104863448D01*
X149219814Y-104780186D01*
X149136552Y-104678729D01*
X149107222Y-104642991D01*
X149054109Y-104543624D01*
X149023557Y-104486467D01*
X149006384Y-104429853D01*
X148972037Y-104316627D01*
X148954641Y-104140000D01*
X148972037Y-103963373D01*
X149023557Y-103793534D01*
X149023557Y-103793533D01*
X149107221Y-103637011D01*
X149107222Y-103637009D01*
X149136552Y-103601271D01*
X149219814Y-103499814D01*
X149321271Y-103416552D01*
X149357009Y-103387222D01*
X149374913Y-103377652D01*
X149513533Y-103303557D01*
X149570147Y-103286384D01*
X149683373Y-103252037D01*
X149749558Y-103245518D01*
X149815740Y-103239000D01*
X149904260Y-103239000D01*
X149970443Y-103245519D01*
X149970443Y-103245519D01*
G37*
G36*
X139327812Y-102003624D02*
X139491784Y-102071544D01*
X139639354Y-102170147D01*
X139764853Y-102295646D01*
X139863456Y-102443216D01*
X139931376Y-102607188D01*
X139966000Y-102781259D01*
X139966000Y-102958741D01*
X139931376Y-103132812D01*
X139863456Y-103296784D01*
X139764853Y-103444354D01*
X139639354Y-103569853D01*
X139491784Y-103668456D01*
X139327812Y-103736376D01*
X139153741Y-103771000D01*
X138976259Y-103771000D01*
X138802188Y-103736376D01*
X138638216Y-103668456D01*
X138490646Y-103569853D01*
X138365147Y-103444354D01*
X138266544Y-103296784D01*
X138198624Y-103132812D01*
X138164000Y-102958741D01*
X138164000Y-102781259D01*
X138198624Y-102607188D01*
X138266544Y-102443216D01*
X138365147Y-102295646D01*
X138490646Y-102170147D01*
X138638216Y-102071544D01*
X138802188Y-102003624D01*
X138976259Y-101969000D01*
X139153741Y-101969000D01*
X139327812Y-102003624D01*
X139327812Y-102003624D01*
G37*
G36*
X162822812Y-102003624D02*
X162986784Y-102071544D01*
X163134354Y-102170147D01*
X163259853Y-102295646D01*
X163358456Y-102443216D01*
X163426376Y-102607188D01*
X163461000Y-102781259D01*
X163461000Y-102958741D01*
X163426376Y-103132812D01*
X163358456Y-103296784D01*
X163259853Y-103444354D01*
X163134354Y-103569853D01*
X162986784Y-103668456D01*
X162822812Y-103736376D01*
X162648741Y-103771000D01*
X162471259Y-103771000D01*
X162297188Y-103736376D01*
X162133216Y-103668456D01*
X161985646Y-103569853D01*
X161860147Y-103444354D01*
X161761544Y-103296784D01*
X161693624Y-103132812D01*
X161659000Y-102958741D01*
X161659000Y-102781259D01*
X161693624Y-102607188D01*
X161761544Y-102443216D01*
X161860147Y-102295646D01*
X161985646Y-102170147D01*
X162133216Y-102071544D01*
X162297188Y-102003624D01*
X162471259Y-101969000D01*
X162648741Y-101969000D01*
X162822812Y-102003624D01*
X162822812Y-102003624D01*
G37*
G36*
X139327812Y-99463624D02*
X139491784Y-99531544D01*
X139639354Y-99630147D01*
X139764853Y-99755646D01*
X139863456Y-99903216D01*
X139931376Y-100067188D01*
X139966000Y-100241259D01*
X139966000Y-100418741D01*
X139931376Y-100592812D01*
X139863456Y-100756784D01*
X139764853Y-100904354D01*
X139639354Y-101029853D01*
X139491784Y-101128456D01*
X139327812Y-101196376D01*
X139153741Y-101231000D01*
X138976259Y-101231000D01*
X138802188Y-101196376D01*
X138638216Y-101128456D01*
X138490646Y-101029853D01*
X138365147Y-100904354D01*
X138266544Y-100756784D01*
X138198624Y-100592812D01*
X138164000Y-100418741D01*
X138164000Y-100241259D01*
X138198624Y-100067188D01*
X138266544Y-99903216D01*
X138365147Y-99755646D01*
X138490646Y-99630147D01*
X138638216Y-99531544D01*
X138802188Y-99463624D01*
X138976259Y-99429000D01*
X139153741Y-99429000D01*
X139327812Y-99463624D01*
X139327812Y-99463624D01*
G37*
G36*
X162822812Y-99463624D02*
X162986784Y-99531544D01*
X163134354Y-99630147D01*
X163259853Y-99755646D01*
X163358456Y-99903216D01*
X163426376Y-100067188D01*
X163461000Y-100241259D01*
X163461000Y-100418741D01*
X163426376Y-100592812D01*
X163358456Y-100756784D01*
X163259853Y-100904354D01*
X163134354Y-101029853D01*
X162986784Y-101128456D01*
X162822812Y-101196376D01*
X162648741Y-101231000D01*
X162471259Y-101231000D01*
X162297188Y-101196376D01*
X162133216Y-101128456D01*
X161985646Y-101029853D01*
X161860147Y-100904354D01*
X161761544Y-100756784D01*
X161693624Y-100592812D01*
X161659000Y-100418741D01*
X161659000Y-100241259D01*
X161693624Y-100067188D01*
X161761544Y-99903216D01*
X161860147Y-99755646D01*
X161985646Y-99630147D01*
X162133216Y-99531544D01*
X162297188Y-99463624D01*
X162471259Y-99429000D01*
X162648741Y-99429000D01*
X162822812Y-99463624D01*
X162822812Y-99463624D01*
G37*
G36*
X160093665Y-99582622D02*
X160167222Y-99589867D01*
X160308786Y-99632810D01*
X160439252Y-99702546D01*
X160553606Y-99796394D01*
X160647454Y-99910748D01*
X160717190Y-100041214D01*
X160760133Y-100182778D01*
X160774633Y-100330000D01*
X160760133Y-100477222D01*
X160717190Y-100618786D01*
X160647454Y-100749252D01*
X160553606Y-100863606D01*
X160439252Y-100957454D01*
X160308786Y-101027190D01*
X160167222Y-101070133D01*
X160093665Y-101077378D01*
X160056888Y-101081000D01*
X159983112Y-101081000D01*
X159946335Y-101077378D01*
X159872778Y-101070133D01*
X159731214Y-101027190D01*
X159600748Y-100957454D01*
X159486394Y-100863606D01*
X159392546Y-100749252D01*
X159322810Y-100618786D01*
X159279867Y-100477222D01*
X159265367Y-100330000D01*
X159279867Y-100182778D01*
X159322810Y-100041214D01*
X159392546Y-99910748D01*
X159486394Y-99796394D01*
X159600748Y-99702546D01*
X159731214Y-99632810D01*
X159872778Y-99589867D01*
X159946335Y-99582622D01*
X159983112Y-99579000D01*
X160056888Y-99579000D01*
X160093665Y-99582622D01*
X160093665Y-99582622D01*
G37*
G36*
X139327812Y-96923624D02*
X139491784Y-96991544D01*
X139639354Y-97090147D01*
X139764853Y-97215646D01*
X139863456Y-97363216D01*
X139931376Y-97527188D01*
X139966000Y-97701259D01*
X139966000Y-97878741D01*
X139931376Y-98052812D01*
X139863456Y-98216784D01*
X139764853Y-98364354D01*
X139639354Y-98489853D01*
X139491784Y-98588456D01*
X139327812Y-98656376D01*
X139153741Y-98691000D01*
X138976259Y-98691000D01*
X138802188Y-98656376D01*
X138638216Y-98588456D01*
X138490646Y-98489853D01*
X138365147Y-98364354D01*
X138266544Y-98216784D01*
X138198624Y-98052812D01*
X138164000Y-97878741D01*
X138164000Y-97701259D01*
X138198624Y-97527188D01*
X138266544Y-97363216D01*
X138365147Y-97215646D01*
X138490646Y-97090147D01*
X138638216Y-96991544D01*
X138802188Y-96923624D01*
X138976259Y-96889000D01*
X139153741Y-96889000D01*
X139327812Y-96923624D01*
X139327812Y-96923624D01*
G37*
G36*
X162822812Y-96923624D02*
X162986784Y-96991544D01*
X163134354Y-97090147D01*
X163259853Y-97215646D01*
X163358456Y-97363216D01*
X163426376Y-97527188D01*
X163461000Y-97701259D01*
X163461000Y-97878741D01*
X163426376Y-98052812D01*
X163358456Y-98216784D01*
X163259853Y-98364354D01*
X163134354Y-98489853D01*
X162986784Y-98588456D01*
X162822812Y-98656376D01*
X162648741Y-98691000D01*
X162471259Y-98691000D01*
X162297188Y-98656376D01*
X162133216Y-98588456D01*
X161985646Y-98489853D01*
X161860147Y-98364354D01*
X161761544Y-98216784D01*
X161693624Y-98052812D01*
X161659000Y-97878741D01*
X161659000Y-97701259D01*
X161693624Y-97527188D01*
X161761544Y-97363216D01*
X161860147Y-97215646D01*
X161985646Y-97090147D01*
X162133216Y-96991544D01*
X162297188Y-96923624D01*
X162471259Y-96889000D01*
X162648741Y-96889000D01*
X162822812Y-96923624D01*
X162822812Y-96923624D01*
G37*
G36*
X162822812Y-94383624D02*
X162986784Y-94451544D01*
X163134354Y-94550147D01*
X163259853Y-94675646D01*
X163358456Y-94823216D01*
X163426376Y-94987188D01*
X163461000Y-95161259D01*
X163461000Y-95338741D01*
X163426376Y-95512812D01*
X163358456Y-95676784D01*
X163259853Y-95824354D01*
X163134354Y-95949853D01*
X162986784Y-96048456D01*
X162822812Y-96116376D01*
X162648741Y-96151000D01*
X162471259Y-96151000D01*
X162297188Y-96116376D01*
X162133216Y-96048456D01*
X161985646Y-95949853D01*
X161860147Y-95824354D01*
X161761544Y-95676784D01*
X161693624Y-95512812D01*
X161659000Y-95338741D01*
X161659000Y-95161259D01*
X161693624Y-94987188D01*
X161761544Y-94823216D01*
X161860147Y-94675646D01*
X161985646Y-94550147D01*
X162133216Y-94451544D01*
X162297188Y-94383624D01*
X162471259Y-94349000D01*
X162648741Y-94349000D01*
X162822812Y-94383624D01*
X162822812Y-94383624D01*
G37*
G36*
X139327812Y-94383624D02*
X139491784Y-94451544D01*
X139639354Y-94550147D01*
X139764853Y-94675646D01*
X139863456Y-94823216D01*
X139931376Y-94987188D01*
X139966000Y-95161259D01*
X139966000Y-95338741D01*
X139931376Y-95512812D01*
X139863456Y-95676784D01*
X139764853Y-95824354D01*
X139639354Y-95949853D01*
X139491784Y-96048456D01*
X139327812Y-96116376D01*
X139153741Y-96151000D01*
X138976259Y-96151000D01*
X138802188Y-96116376D01*
X138638216Y-96048456D01*
X138490646Y-95949853D01*
X138365147Y-95824354D01*
X138266544Y-95676784D01*
X138198624Y-95512812D01*
X138164000Y-95338741D01*
X138164000Y-95161259D01*
X138198624Y-94987188D01*
X138266544Y-94823216D01*
X138365147Y-94675646D01*
X138490646Y-94550147D01*
X138638216Y-94451544D01*
X138802188Y-94383624D01*
X138976259Y-94349000D01*
X139153741Y-94349000D01*
X139327812Y-94383624D01*
X139327812Y-94383624D01*
G37*
G36*
X162822812Y-91843624D02*
X162986784Y-91911544D01*
X163134354Y-92010147D01*
X163259853Y-92135646D01*
X163358456Y-92283216D01*
X163426376Y-92447188D01*
X163461000Y-92621259D01*
X163461000Y-92798741D01*
X163426376Y-92972812D01*
X163358456Y-93136784D01*
X163259853Y-93284354D01*
X163134354Y-93409853D01*
X162986784Y-93508456D01*
X162822812Y-93576376D01*
X162648741Y-93611000D01*
X162471259Y-93611000D01*
X162297188Y-93576376D01*
X162133216Y-93508456D01*
X161985646Y-93409853D01*
X161860147Y-93284354D01*
X161761544Y-93136784D01*
X161693624Y-92972812D01*
X161659000Y-92798741D01*
X161659000Y-92621259D01*
X161693624Y-92447188D01*
X161761544Y-92283216D01*
X161860147Y-92135646D01*
X161985646Y-92010147D01*
X162133216Y-91911544D01*
X162297188Y-91843624D01*
X162471259Y-91809000D01*
X162648741Y-91809000D01*
X162822812Y-91843624D01*
X162822812Y-91843624D01*
G37*
G36*
X139327812Y-91843624D02*
X139491784Y-91911544D01*
X139639354Y-92010147D01*
X139764853Y-92135646D01*
X139863456Y-92283216D01*
X139931376Y-92447188D01*
X139966000Y-92621259D01*
X139966000Y-92798741D01*
X139931376Y-92972812D01*
X139863456Y-93136784D01*
X139764853Y-93284354D01*
X139639354Y-93409853D01*
X139491784Y-93508456D01*
X139327812Y-93576376D01*
X139153741Y-93611000D01*
X138976259Y-93611000D01*
X138802188Y-93576376D01*
X138638216Y-93508456D01*
X138490646Y-93409853D01*
X138365147Y-93284354D01*
X138266544Y-93136784D01*
X138198624Y-92972812D01*
X138164000Y-92798741D01*
X138164000Y-92621259D01*
X138198624Y-92447188D01*
X138266544Y-92283216D01*
X138365147Y-92135646D01*
X138490646Y-92010147D01*
X138638216Y-91911544D01*
X138802188Y-91843624D01*
X138976259Y-91809000D01*
X139153741Y-91809000D01*
X139327812Y-91843624D01*
X139327812Y-91843624D01*
G37*
G36*
X160152004Y-91970544D02*
X160239059Y-91987860D01*
X160375732Y-92044472D01*
X160375733Y-92044473D01*
X160498738Y-92126662D01*
X160603338Y-92231262D01*
X160603340Y-92231265D01*
X160685528Y-92354268D01*
X160742140Y-92490941D01*
X160759456Y-92577996D01*
X160771000Y-92636031D01*
X160771000Y-92783969D01*
X160759456Y-92842004D01*
X160742140Y-92929059D01*
X160685528Y-93065732D01*
X160604446Y-93187079D01*
X160603338Y-93188738D01*
X160498738Y-93293338D01*
X160498735Y-93293340D01*
X160375732Y-93375528D01*
X160239059Y-93432140D01*
X160152004Y-93449456D01*
X160093969Y-93461000D01*
X159946031Y-93461000D01*
X159887996Y-93449456D01*
X159800941Y-93432140D01*
X159664268Y-93375528D01*
X159541265Y-93293340D01*
X159541262Y-93293338D01*
X159436662Y-93188738D01*
X159435554Y-93187079D01*
X159354472Y-93065732D01*
X159297860Y-92929059D01*
X159280544Y-92842004D01*
X159269000Y-92783969D01*
X159269000Y-92636031D01*
X159280544Y-92577996D01*
X159297860Y-92490941D01*
X159354472Y-92354268D01*
X159436660Y-92231265D01*
X159436662Y-92231262D01*
X159541262Y-92126662D01*
X159664267Y-92044473D01*
X159664268Y-92044472D01*
X159800941Y-91987860D01*
X159887996Y-91970544D01*
X159946031Y-91959000D01*
X160093969Y-91959000D01*
X160152004Y-91970544D01*
X160152004Y-91970544D01*
G37*
G36*
X139327812Y-89303624D02*
X139491784Y-89371544D01*
X139639354Y-89470147D01*
X139764853Y-89595646D01*
X139863456Y-89743216D01*
X139931376Y-89907188D01*
X139966000Y-90081259D01*
X139966000Y-90258741D01*
X139931376Y-90432812D01*
X139863456Y-90596784D01*
X139764853Y-90744354D01*
X139639354Y-90869853D01*
X139491784Y-90968456D01*
X139327812Y-91036376D01*
X139153741Y-91071000D01*
X138976259Y-91071000D01*
X138802188Y-91036376D01*
X138638216Y-90968456D01*
X138490646Y-90869853D01*
X138365147Y-90744354D01*
X138266544Y-90596784D01*
X138198624Y-90432812D01*
X138164000Y-90258741D01*
X138164000Y-90081259D01*
X138198624Y-89907188D01*
X138266544Y-89743216D01*
X138365147Y-89595646D01*
X138490646Y-89470147D01*
X138638216Y-89371544D01*
X138802188Y-89303624D01*
X138976259Y-89269000D01*
X139153741Y-89269000D01*
X139327812Y-89303624D01*
X139327812Y-89303624D01*
G37*
G36*
X162822812Y-89303624D02*
X162986784Y-89371544D01*
X163134354Y-89470147D01*
X163259853Y-89595646D01*
X163358456Y-89743216D01*
X163426376Y-89907188D01*
X163461000Y-90081259D01*
X163461000Y-90258741D01*
X163426376Y-90432812D01*
X163358456Y-90596784D01*
X163259853Y-90744354D01*
X163134354Y-90869853D01*
X162986784Y-90968456D01*
X162822812Y-91036376D01*
X162648741Y-91071000D01*
X162471259Y-91071000D01*
X162297188Y-91036376D01*
X162133216Y-90968456D01*
X161985646Y-90869853D01*
X161860147Y-90744354D01*
X161761544Y-90596784D01*
X161693624Y-90432812D01*
X161659000Y-90258741D01*
X161659000Y-90081259D01*
X161693624Y-89907188D01*
X161761544Y-89743216D01*
X161860147Y-89595646D01*
X161985646Y-89470147D01*
X162133216Y-89371544D01*
X162297188Y-89303624D01*
X162471259Y-89269000D01*
X162648741Y-89269000D01*
X162822812Y-89303624D01*
X162822812Y-89303624D01*
G37*
G36*
X139327812Y-86763624D02*
X139491784Y-86831544D01*
X139639354Y-86930147D01*
X139764853Y-87055646D01*
X139863456Y-87203216D01*
X139931376Y-87367188D01*
X139966000Y-87541259D01*
X139966000Y-87718741D01*
X139931376Y-87892812D01*
X139863456Y-88056784D01*
X139764853Y-88204354D01*
X139639354Y-88329853D01*
X139491784Y-88428456D01*
X139327812Y-88496376D01*
X139153741Y-88531000D01*
X138976259Y-88531000D01*
X138802188Y-88496376D01*
X138638216Y-88428456D01*
X138490646Y-88329853D01*
X138365147Y-88204354D01*
X138266544Y-88056784D01*
X138198624Y-87892812D01*
X138164000Y-87718741D01*
X138164000Y-87541259D01*
X138198624Y-87367188D01*
X138266544Y-87203216D01*
X138365147Y-87055646D01*
X138490646Y-86930147D01*
X138638216Y-86831544D01*
X138802188Y-86763624D01*
X138976259Y-86729000D01*
X139153741Y-86729000D01*
X139327812Y-86763624D01*
X139327812Y-86763624D01*
G37*
G36*
X162822812Y-86763624D02*
X162986784Y-86831544D01*
X163134354Y-86930147D01*
X163259853Y-87055646D01*
X163358456Y-87203216D01*
X163426376Y-87367188D01*
X163461000Y-87541259D01*
X163461000Y-87718741D01*
X163426376Y-87892812D01*
X163358456Y-88056784D01*
X163259853Y-88204354D01*
X163134354Y-88329853D01*
X162986784Y-88428456D01*
X162822812Y-88496376D01*
X162648741Y-88531000D01*
X162471259Y-88531000D01*
X162297188Y-88496376D01*
X162133216Y-88428456D01*
X161985646Y-88329853D01*
X161860147Y-88204354D01*
X161761544Y-88056784D01*
X161693624Y-87892812D01*
X161659000Y-87718741D01*
X161659000Y-87541259D01*
X161693624Y-87367188D01*
X161761544Y-87203216D01*
X161860147Y-87055646D01*
X161985646Y-86930147D01*
X162133216Y-86831544D01*
X162297188Y-86763624D01*
X162471259Y-86729000D01*
X162648741Y-86729000D01*
X162822812Y-86763624D01*
X162822812Y-86763624D01*
G37*
G36*
X162822812Y-84223624D02*
X162986784Y-84291544D01*
X163134354Y-84390147D01*
X163259853Y-84515646D01*
X163358456Y-84663216D01*
X163426376Y-84827188D01*
X163461000Y-85001259D01*
X163461000Y-85178741D01*
X163426376Y-85352812D01*
X163358456Y-85516784D01*
X163259853Y-85664354D01*
X163134354Y-85789853D01*
X162986784Y-85888456D01*
X162822812Y-85956376D01*
X162648741Y-85991000D01*
X162471259Y-85991000D01*
X162297188Y-85956376D01*
X162133216Y-85888456D01*
X161985646Y-85789853D01*
X161860147Y-85664354D01*
X161761544Y-85516784D01*
X161693624Y-85352812D01*
X161659000Y-85178741D01*
X161659000Y-85001259D01*
X161693624Y-84827188D01*
X161761544Y-84663216D01*
X161860147Y-84515646D01*
X161985646Y-84390147D01*
X162133216Y-84291544D01*
X162297188Y-84223624D01*
X162471259Y-84189000D01*
X162648741Y-84189000D01*
X162822812Y-84223624D01*
X162822812Y-84223624D01*
G37*
G36*
X139327812Y-84223624D02*
X139491784Y-84291544D01*
X139639354Y-84390147D01*
X139764853Y-84515646D01*
X139863456Y-84663216D01*
X139931376Y-84827188D01*
X139966000Y-85001259D01*
X139966000Y-85178741D01*
X139931376Y-85352812D01*
X139863456Y-85516784D01*
X139764853Y-85664354D01*
X139639354Y-85789853D01*
X139491784Y-85888456D01*
X139327812Y-85956376D01*
X139153741Y-85991000D01*
X138976259Y-85991000D01*
X138802188Y-85956376D01*
X138638216Y-85888456D01*
X138490646Y-85789853D01*
X138365147Y-85664354D01*
X138266544Y-85516784D01*
X138198624Y-85352812D01*
X138164000Y-85178741D01*
X138164000Y-85001259D01*
X138198624Y-84827188D01*
X138266544Y-84663216D01*
X138365147Y-84515646D01*
X138490646Y-84390147D01*
X138638216Y-84291544D01*
X138802188Y-84223624D01*
X138976259Y-84189000D01*
X139153741Y-84189000D01*
X139327812Y-84223624D01*
X139327812Y-84223624D01*
G37*
G36*
X139327812Y-81683624D02*
X139491784Y-81751544D01*
X139639354Y-81850147D01*
X139764853Y-81975646D01*
X139863456Y-82123216D01*
X139931376Y-82287188D01*
X139966000Y-82461259D01*
X139966000Y-82638741D01*
X139931376Y-82812812D01*
X139863456Y-82976784D01*
X139764853Y-83124354D01*
X139639354Y-83249853D01*
X139491784Y-83348456D01*
X139327812Y-83416376D01*
X139153741Y-83451000D01*
X138976259Y-83451000D01*
X138802188Y-83416376D01*
X138638216Y-83348456D01*
X138490646Y-83249853D01*
X138365147Y-83124354D01*
X138266544Y-82976784D01*
X138198624Y-82812812D01*
X138164000Y-82638741D01*
X138164000Y-82461259D01*
X138198624Y-82287188D01*
X138266544Y-82123216D01*
X138365147Y-81975646D01*
X138490646Y-81850147D01*
X138638216Y-81751544D01*
X138802188Y-81683624D01*
X138976259Y-81649000D01*
X139153741Y-81649000D01*
X139327812Y-81683624D01*
X139327812Y-81683624D01*
G37*
G36*
X162822812Y-81683624D02*
X162986784Y-81751544D01*
X163134354Y-81850147D01*
X163259853Y-81975646D01*
X163358456Y-82123216D01*
X163426376Y-82287188D01*
X163461000Y-82461259D01*
X163461000Y-82638741D01*
X163426376Y-82812812D01*
X163358456Y-82976784D01*
X163259853Y-83124354D01*
X163134354Y-83249853D01*
X162986784Y-83348456D01*
X162822812Y-83416376D01*
X162648741Y-83451000D01*
X162471259Y-83451000D01*
X162297188Y-83416376D01*
X162133216Y-83348456D01*
X161985646Y-83249853D01*
X161860147Y-83124354D01*
X161761544Y-82976784D01*
X161693624Y-82812812D01*
X161659000Y-82638741D01*
X161659000Y-82461259D01*
X161693624Y-82287188D01*
X161761544Y-82123216D01*
X161860147Y-81975646D01*
X161985646Y-81850147D01*
X162133216Y-81751544D01*
X162297188Y-81683624D01*
X162471259Y-81649000D01*
X162648741Y-81649000D01*
X162822812Y-81683624D01*
X162822812Y-81683624D01*
G37*
G36*
X167750443Y-76575519D02*
X167816627Y-76582037D01*
X167929853Y-76616384D01*
X167986467Y-76633557D01*
X168125087Y-76707652D01*
X168142991Y-76717222D01*
X168178729Y-76746552D01*
X168280186Y-76829814D01*
X168363448Y-76931271D01*
X168392778Y-76967009D01*
X168392779Y-76967011D01*
X168476443Y-77123533D01*
X168476443Y-77123534D01*
X168527963Y-77293373D01*
X168545359Y-77470000D01*
X168527963Y-77646627D01*
X168493616Y-77759853D01*
X168476443Y-77816467D01*
X168402348Y-77955087D01*
X168392778Y-77972991D01*
X168363448Y-78008729D01*
X168280186Y-78110186D01*
X168178729Y-78193448D01*
X168142991Y-78222778D01*
X168142989Y-78222779D01*
X167986467Y-78306443D01*
X167929853Y-78323616D01*
X167816627Y-78357963D01*
X167750443Y-78364481D01*
X167684260Y-78371000D01*
X167595740Y-78371000D01*
X167529557Y-78364481D01*
X167463373Y-78357963D01*
X167350147Y-78323616D01*
X167293533Y-78306443D01*
X167137011Y-78222779D01*
X167137009Y-78222778D01*
X167101271Y-78193448D01*
X166999814Y-78110186D01*
X166916552Y-78008729D01*
X166887222Y-77972991D01*
X166877652Y-77955087D01*
X166803557Y-77816467D01*
X166786384Y-77759853D01*
X166752037Y-77646627D01*
X166734641Y-77470000D01*
X166752037Y-77293373D01*
X166803557Y-77123534D01*
X166803557Y-77123533D01*
X166887221Y-76967011D01*
X166887222Y-76967009D01*
X166916552Y-76931271D01*
X166999814Y-76829814D01*
X167101271Y-76746552D01*
X167137009Y-76717222D01*
X167154913Y-76707652D01*
X167293533Y-76633557D01*
X167350147Y-76616384D01*
X167463373Y-76582037D01*
X167529557Y-76575519D01*
X167595740Y-76569000D01*
X167684260Y-76569000D01*
X167750443Y-76575519D01*
X167750443Y-76575519D01*
G37*
G36*
X176161000Y-78371000D02*
X174359000Y-78371000D01*
X174359000Y-76569000D01*
X176161000Y-76569000D01*
X176161000Y-78371000D01*
X176161000Y-78371000D01*
G37*
G36*
X170290443Y-76575519D02*
X170356627Y-76582037D01*
X170469853Y-76616384D01*
X170526467Y-76633557D01*
X170665087Y-76707652D01*
X170682991Y-76717222D01*
X170718729Y-76746552D01*
X170820186Y-76829814D01*
X170903448Y-76931271D01*
X170932778Y-76967009D01*
X170932779Y-76967011D01*
X171016443Y-77123533D01*
X171016443Y-77123534D01*
X171067963Y-77293373D01*
X171085359Y-77470000D01*
X171067963Y-77646627D01*
X171033616Y-77759853D01*
X171016443Y-77816467D01*
X170942348Y-77955087D01*
X170932778Y-77972991D01*
X170903448Y-78008729D01*
X170820186Y-78110186D01*
X170718729Y-78193448D01*
X170682991Y-78222778D01*
X170682989Y-78222779D01*
X170526467Y-78306443D01*
X170469853Y-78323616D01*
X170356627Y-78357963D01*
X170290443Y-78364481D01*
X170224260Y-78371000D01*
X170135740Y-78371000D01*
X170069557Y-78364481D01*
X170003373Y-78357963D01*
X169890147Y-78323616D01*
X169833533Y-78306443D01*
X169677011Y-78222779D01*
X169677009Y-78222778D01*
X169641271Y-78193448D01*
X169539814Y-78110186D01*
X169456552Y-78008729D01*
X169427222Y-77972991D01*
X169417652Y-77955087D01*
X169343557Y-77816467D01*
X169326384Y-77759853D01*
X169292037Y-77646627D01*
X169274641Y-77470000D01*
X169292037Y-77293373D01*
X169343557Y-77123534D01*
X169343557Y-77123533D01*
X169427221Y-76967011D01*
X169427222Y-76967009D01*
X169456552Y-76931271D01*
X169539814Y-76829814D01*
X169641271Y-76746552D01*
X169677009Y-76717222D01*
X169694913Y-76707652D01*
X169833533Y-76633557D01*
X169890147Y-76616384D01*
X170003373Y-76582037D01*
X170069557Y-76575519D01*
X170135740Y-76569000D01*
X170224260Y-76569000D01*
X170290443Y-76575519D01*
X170290443Y-76575519D01*
G37*
G36*
X172830443Y-76575519D02*
X172896627Y-76582037D01*
X173009853Y-76616384D01*
X173066467Y-76633557D01*
X173205087Y-76707652D01*
X173222991Y-76717222D01*
X173258729Y-76746552D01*
X173360186Y-76829814D01*
X173443448Y-76931271D01*
X173472778Y-76967009D01*
X173472779Y-76967011D01*
X173556443Y-77123533D01*
X173556443Y-77123534D01*
X173607963Y-77293373D01*
X173625359Y-77470000D01*
X173607963Y-77646627D01*
X173573616Y-77759853D01*
X173556443Y-77816467D01*
X173482348Y-77955087D01*
X173472778Y-77972991D01*
X173443448Y-78008729D01*
X173360186Y-78110186D01*
X173258729Y-78193448D01*
X173222991Y-78222778D01*
X173222989Y-78222779D01*
X173066467Y-78306443D01*
X173009853Y-78323616D01*
X172896627Y-78357963D01*
X172830443Y-78364481D01*
X172764260Y-78371000D01*
X172675740Y-78371000D01*
X172609557Y-78364481D01*
X172543373Y-78357963D01*
X172430147Y-78323616D01*
X172373533Y-78306443D01*
X172217011Y-78222779D01*
X172217009Y-78222778D01*
X172181271Y-78193448D01*
X172079814Y-78110186D01*
X171996552Y-78008729D01*
X171967222Y-77972991D01*
X171957652Y-77955087D01*
X171883557Y-77816467D01*
X171866384Y-77759853D01*
X171832037Y-77646627D01*
X171814641Y-77470000D01*
X171832037Y-77293373D01*
X171883557Y-77123534D01*
X171883557Y-77123533D01*
X171967221Y-76967011D01*
X171967222Y-76967009D01*
X171996552Y-76931271D01*
X172079814Y-76829814D01*
X172181271Y-76746552D01*
X172217009Y-76717222D01*
X172234913Y-76707652D01*
X172373533Y-76633557D01*
X172430147Y-76616384D01*
X172543373Y-76582037D01*
X172609557Y-76575519D01*
X172675740Y-76569000D01*
X172764260Y-76569000D01*
X172830443Y-76575519D01*
X172830443Y-76575519D01*
G37*
M02*
