G04 #@! TF.GenerationSoftware,KiCad,Pcbnew,5.0.2-bee76a0~70~ubuntu18.04.1*
G04 #@! TF.CreationDate,2020-05-12T16:43:30-07:00*
G04 #@! TF.ProjectId,pcb,7063622e-6b69-4636-9164-5f7063625858,rev?*
G04 #@! TF.SameCoordinates,Original*
G04 #@! TF.FileFunction,Legend,Bot*
G04 #@! TF.FilePolarity,Positive*
%FSLAX46Y46*%
G04 Gerber Fmt 4.6, Leading zero omitted, Abs format (unit mm)*
G04 Created by KiCad (PCBNEW 5.0.2-bee76a0~70~ubuntu18.04.1) date Tue 12 May 2020 04:43:30 PM PDT*
%MOMM*%
%LPD*%
G01*
G04 APERTURE LIST*
%ADD10C,0.300000*%
%ADD11C,0.120000*%
%ADD12C,0.150000*%
G04 APERTURE END LIST*
D10*
X176086428Y-104587714D02*
X175015000Y-104587714D01*
X174800714Y-104659142D01*
X174657857Y-104802000D01*
X174586428Y-105016285D01*
X174586428Y-105159142D01*
X174586428Y-103159142D02*
X174586428Y-103873428D01*
X176086428Y-103873428D01*
X175015000Y-102730571D02*
X175015000Y-102016285D01*
X174586428Y-102873428D02*
X176086428Y-102373428D01*
X174586428Y-101873428D01*
X174586428Y-101373428D02*
X176086428Y-101373428D01*
X175015000Y-100873428D01*
X176086428Y-100373428D01*
X174586428Y-100373428D01*
X176086428Y-96444857D02*
X174586428Y-95944857D01*
X176086428Y-95444857D01*
X174586428Y-94159142D02*
X174586428Y-95016285D01*
X174586428Y-94587714D02*
X176086428Y-94587714D01*
X175872142Y-94730571D01*
X175729285Y-94873428D01*
X175657857Y-95016285D01*
X174729285Y-93516285D02*
X174657857Y-93444857D01*
X174586428Y-93516285D01*
X174657857Y-93587714D01*
X174729285Y-93516285D01*
X174586428Y-93516285D01*
X176086428Y-92516285D02*
X176086428Y-92373428D01*
X176015000Y-92230571D01*
X175943571Y-92159142D01*
X175800714Y-92087714D01*
X175515000Y-92016285D01*
X175157857Y-92016285D01*
X174872142Y-92087714D01*
X174729285Y-92159142D01*
X174657857Y-92230571D01*
X174586428Y-92373428D01*
X174586428Y-92516285D01*
X174657857Y-92659142D01*
X174729285Y-92730571D01*
X174872142Y-92802000D01*
X175157857Y-92873428D01*
X175515000Y-92873428D01*
X175800714Y-92802000D01*
X175943571Y-92730571D01*
X176015000Y-92659142D01*
X176086428Y-92516285D01*
X173393571Y-105837714D02*
X173465000Y-105766285D01*
X173536428Y-105623428D01*
X173536428Y-105266285D01*
X173465000Y-105123428D01*
X173393571Y-105052000D01*
X173250714Y-104980571D01*
X173107857Y-104980571D01*
X172893571Y-105052000D01*
X172036428Y-105909142D01*
X172036428Y-104980571D01*
X173536428Y-104052000D02*
X173536428Y-103909142D01*
X173465000Y-103766285D01*
X173393571Y-103694857D01*
X173250714Y-103623428D01*
X172965000Y-103552000D01*
X172607857Y-103552000D01*
X172322142Y-103623428D01*
X172179285Y-103694857D01*
X172107857Y-103766285D01*
X172036428Y-103909142D01*
X172036428Y-104052000D01*
X172107857Y-104194857D01*
X172179285Y-104266285D01*
X172322142Y-104337714D01*
X172607857Y-104409142D01*
X172965000Y-104409142D01*
X173250714Y-104337714D01*
X173393571Y-104266285D01*
X173465000Y-104194857D01*
X173536428Y-104052000D01*
X173393571Y-102980571D02*
X173465000Y-102909142D01*
X173536428Y-102766285D01*
X173536428Y-102409142D01*
X173465000Y-102266285D01*
X173393571Y-102194857D01*
X173250714Y-102123428D01*
X173107857Y-102123428D01*
X172893571Y-102194857D01*
X172036428Y-103052000D01*
X172036428Y-102123428D01*
X173536428Y-101194857D02*
X173536428Y-101052000D01*
X173465000Y-100909142D01*
X173393571Y-100837714D01*
X173250714Y-100766285D01*
X172965000Y-100694857D01*
X172607857Y-100694857D01*
X172322142Y-100766285D01*
X172179285Y-100837714D01*
X172107857Y-100909142D01*
X172036428Y-101052000D01*
X172036428Y-101194857D01*
X172107857Y-101337714D01*
X172179285Y-101409142D01*
X172322142Y-101480571D01*
X172607857Y-101552000D01*
X172965000Y-101552000D01*
X173250714Y-101480571D01*
X173393571Y-101409142D01*
X173465000Y-101337714D01*
X173536428Y-101194857D01*
X172607857Y-100052000D02*
X172607857Y-98909142D01*
X173536428Y-97909142D02*
X173536428Y-97766285D01*
X173465000Y-97623428D01*
X173393571Y-97552000D01*
X173250714Y-97480571D01*
X172965000Y-97409142D01*
X172607857Y-97409142D01*
X172322142Y-97480571D01*
X172179285Y-97552000D01*
X172107857Y-97623428D01*
X172036428Y-97766285D01*
X172036428Y-97909142D01*
X172107857Y-98052000D01*
X172179285Y-98123428D01*
X172322142Y-98194857D01*
X172607857Y-98266285D01*
X172965000Y-98266285D01*
X173250714Y-98194857D01*
X173393571Y-98123428D01*
X173465000Y-98052000D01*
X173536428Y-97909142D01*
X173536428Y-96052000D02*
X173536428Y-96766285D01*
X172822142Y-96837714D01*
X172893571Y-96766285D01*
X172965000Y-96623428D01*
X172965000Y-96266285D01*
X172893571Y-96123428D01*
X172822142Y-96052000D01*
X172679285Y-95980571D01*
X172322142Y-95980571D01*
X172179285Y-96052000D01*
X172107857Y-96123428D01*
X172036428Y-96266285D01*
X172036428Y-96623428D01*
X172107857Y-96766285D01*
X172179285Y-96837714D01*
X172607857Y-95337714D02*
X172607857Y-94194857D01*
X172036428Y-92694857D02*
X172036428Y-93552000D01*
X172036428Y-93123428D02*
X173536428Y-93123428D01*
X173322142Y-93266285D01*
X173179285Y-93409142D01*
X173107857Y-93552000D01*
X173393571Y-92123428D02*
X173465000Y-92052000D01*
X173536428Y-91909142D01*
X173536428Y-91552000D01*
X173465000Y-91409142D01*
X173393571Y-91337714D01*
X173250714Y-91266285D01*
X173107857Y-91266285D01*
X172893571Y-91337714D01*
X172036428Y-92194857D01*
X172036428Y-91266285D01*
D11*
G04 #@! TO.C,R2*
X169022000Y-116744000D02*
X169022000Y-114904000D01*
X169022000Y-114904000D02*
X172862000Y-114904000D01*
X172862000Y-114904000D02*
X172862000Y-116744000D01*
X172862000Y-116744000D02*
X169022000Y-116744000D01*
X168072000Y-115824000D02*
X169022000Y-115824000D01*
X173812000Y-115824000D02*
X172862000Y-115824000D01*
G04 #@! TO.C,U4*
X160080000Y-107950000D02*
X160080000Y-106620000D01*
X160080000Y-106620000D02*
X158750000Y-106620000D01*
X157480000Y-106620000D02*
X142180000Y-106620000D01*
X142180000Y-109280000D02*
X142180000Y-106620000D01*
X157480000Y-109280000D02*
X142180000Y-109280000D01*
X157480000Y-109280000D02*
X157480000Y-106620000D01*
G04 #@! TO.C,R1*
X160020000Y-99390000D02*
X160020000Y-98440000D01*
X160020000Y-93650000D02*
X160020000Y-94600000D01*
X159100000Y-98440000D02*
X159100000Y-94600000D01*
X160940000Y-98440000D02*
X159100000Y-98440000D01*
X160940000Y-94600000D02*
X160940000Y-98440000D01*
X159100000Y-94600000D02*
X160940000Y-94600000D01*
G04 #@! TO.C,U2*
X145990000Y-104140000D02*
X145990000Y-105250000D01*
X145990000Y-105250000D02*
X147320000Y-105250000D01*
X145990000Y-94050000D02*
X156270000Y-94050000D01*
X156270000Y-94050000D02*
X156270000Y-102680000D01*
X145990000Y-102680000D02*
X156270000Y-102680000D01*
X145990000Y-94050000D02*
X145990000Y-102680000D01*
X153670000Y-94050000D02*
X153670000Y-102680000D01*
X151130000Y-94050000D02*
X151130000Y-102680000D01*
X148590000Y-94050000D02*
X148590000Y-102680000D01*
X155300000Y-102680000D02*
X155300000Y-103090000D01*
X154580000Y-102680000D02*
X154580000Y-103090000D01*
X152760000Y-102680000D02*
X152760000Y-103090000D01*
X152040000Y-102680000D02*
X152040000Y-103090000D01*
X150220000Y-102680000D02*
X150220000Y-103090000D01*
X149500000Y-102680000D02*
X149500000Y-103090000D01*
X147680000Y-102680000D02*
X147680000Y-103030000D01*
X146960000Y-102680000D02*
X146960000Y-103030000D01*
X148471900Y-94050000D02*
X148471900Y-102680000D01*
X148353805Y-94050000D02*
X148353805Y-102680000D01*
X148235710Y-94050000D02*
X148235710Y-102680000D01*
X148117615Y-94050000D02*
X148117615Y-102680000D01*
X147999520Y-94050000D02*
X147999520Y-102680000D01*
X147881425Y-94050000D02*
X147881425Y-102680000D01*
X147763330Y-94050000D02*
X147763330Y-102680000D01*
X147645235Y-94050000D02*
X147645235Y-102680000D01*
X147527140Y-94050000D02*
X147527140Y-102680000D01*
X147409045Y-94050000D02*
X147409045Y-102680000D01*
X147290950Y-94050000D02*
X147290950Y-102680000D01*
X147172855Y-94050000D02*
X147172855Y-102680000D01*
X147054760Y-94050000D02*
X147054760Y-102680000D01*
X146936665Y-94050000D02*
X146936665Y-102680000D01*
X146818570Y-94050000D02*
X146818570Y-102680000D01*
X146700475Y-94050000D02*
X146700475Y-102680000D01*
X146582380Y-94050000D02*
X146582380Y-102680000D01*
X146464285Y-94050000D02*
X146464285Y-102680000D01*
X146346190Y-94050000D02*
X146346190Y-102680000D01*
X146228095Y-94050000D02*
X146228095Y-102680000D01*
X146110000Y-94050000D02*
X146110000Y-102680000D01*
G04 #@! TO.C,R2*
D12*
X171108666Y-118196380D02*
X171442000Y-117720190D01*
X171680095Y-118196380D02*
X171680095Y-117196380D01*
X171299142Y-117196380D01*
X171203904Y-117244000D01*
X171156285Y-117291619D01*
X171108666Y-117386857D01*
X171108666Y-117529714D01*
X171156285Y-117624952D01*
X171203904Y-117672571D01*
X171299142Y-117720190D01*
X171680095Y-117720190D01*
X170727714Y-117291619D02*
X170680095Y-117244000D01*
X170584857Y-117196380D01*
X170346761Y-117196380D01*
X170251523Y-117244000D01*
X170203904Y-117291619D01*
X170156285Y-117386857D01*
X170156285Y-117482095D01*
X170203904Y-117624952D01*
X170775333Y-118196380D01*
X170156285Y-118196380D01*
G04 #@! TO.C,U4*
X160972380Y-107188095D02*
X161781904Y-107188095D01*
X161877142Y-107235714D01*
X161924761Y-107283333D01*
X161972380Y-107378571D01*
X161972380Y-107569047D01*
X161924761Y-107664285D01*
X161877142Y-107711904D01*
X161781904Y-107759523D01*
X160972380Y-107759523D01*
X161305714Y-108664285D02*
X161972380Y-108664285D01*
X160924761Y-108426190D02*
X161639047Y-108188095D01*
X161639047Y-108807142D01*
G04 #@! TO.C,R1*
X158552380Y-96353333D02*
X158076190Y-96020000D01*
X158552380Y-95781904D02*
X157552380Y-95781904D01*
X157552380Y-96162857D01*
X157600000Y-96258095D01*
X157647619Y-96305714D01*
X157742857Y-96353333D01*
X157885714Y-96353333D01*
X157980952Y-96305714D01*
X158028571Y-96258095D01*
X158076190Y-96162857D01*
X158076190Y-95781904D01*
X158552380Y-97305714D02*
X158552380Y-96734285D01*
X158552380Y-97020000D02*
X157552380Y-97020000D01*
X157695238Y-96924761D01*
X157790476Y-96829523D01*
X157838095Y-96734285D01*
G04 #@! TO.C,U2*
X144232380Y-99568095D02*
X145041904Y-99568095D01*
X145137142Y-99615714D01*
X145184761Y-99663333D01*
X145232380Y-99758571D01*
X145232380Y-99949047D01*
X145184761Y-100044285D01*
X145137142Y-100091904D01*
X145041904Y-100139523D01*
X144232380Y-100139523D01*
X144327619Y-100568095D02*
X144280000Y-100615714D01*
X144232380Y-100710952D01*
X144232380Y-100949047D01*
X144280000Y-101044285D01*
X144327619Y-101091904D01*
X144422857Y-101139523D01*
X144518095Y-101139523D01*
X144660952Y-101091904D01*
X145232380Y-100520476D01*
X145232380Y-101139523D01*
G04 #@! TD*
M02*
