G04 #@! TF.GenerationSoftware,KiCad,Pcbnew,5.0.2-bee76a0~70~ubuntu18.04.1*
G04 #@! TF.CreationDate,2020-05-14T00:48:02-07:00*
G04 #@! TF.ProjectId,pcb,7063622e-6b69-4636-9164-5f7063625858,rev?*
G04 #@! TF.SameCoordinates,Original*
G04 #@! TF.FileFunction,Copper,L2,Bot*
G04 #@! TF.FilePolarity,Positive*
%FSLAX46Y46*%
G04 Gerber Fmt 4.6, Leading zero omitted, Abs format (unit mm)*
G04 Created by KiCad (PCBNEW 5.0.2-bee76a0~70~ubuntu18.04.1) date Thu 14 May 2020 12:48:02 AM PDT*
%MOMM*%
%LPD*%
G01*
G04 APERTURE LIST*
G04 #@! TA.AperFunction,ComponentPad*
%ADD10C,1.700000*%
G04 #@! TD*
G04 #@! TA.AperFunction,ComponentPad*
%ADD11O,1.700000X1.700000*%
G04 #@! TD*
G04 #@! TA.AperFunction,ComponentPad*
%ADD12R,1.700000X1.700000*%
G04 #@! TD*
G04 #@! TA.AperFunction,ComponentPad*
%ADD13C,2.000000*%
G04 #@! TD*
G04 #@! TA.AperFunction,ComponentPad*
%ADD14O,1.400000X1.400000*%
G04 #@! TD*
G04 #@! TA.AperFunction,ComponentPad*
%ADD15C,1.400000*%
G04 #@! TD*
G04 #@! TA.AperFunction,ViaPad*
%ADD16C,0.800000*%
G04 #@! TD*
G04 #@! TA.AperFunction,Conductor*
%ADD17C,0.250000*%
G04 #@! TD*
G04 APERTURE END LIST*
D10*
G04 #@! TO.P,U1,30*
G04 #@! TO.N,Net-(U1-Pad30)*
X162560000Y-82550000D03*
G04 #@! TO.P,U1,29*
G04 #@! TO.N,SCL*
X162560000Y-85090000D03*
G04 #@! TO.P,U1,28*
G04 #@! TO.N,SDA*
X162560000Y-87630000D03*
G04 #@! TO.P,U1,27*
G04 #@! TO.N,Net-(U1-Pad27)*
X162560000Y-90170000D03*
G04 #@! TO.P,U1,26*
G04 #@! TO.N,Net-(U1-Pad26)*
X162560000Y-92710000D03*
G04 #@! TO.P,U1,25*
G04 #@! TO.N,3v3*
X162560000Y-95250000D03*
G04 #@! TO.P,U1,24*
G04 #@! TO.N,GND*
X162560000Y-97790000D03*
G04 #@! TO.P,U1,23*
G04 #@! TO.N,Net-(U1-Pad23)*
X162560000Y-100330000D03*
G04 #@! TO.P,U1,22*
G04 #@! TO.N,Net-(U1-Pad22)*
X162560000Y-102870000D03*
G04 #@! TO.P,U1,21*
G04 #@! TO.N,Net-(U1-Pad21)*
X162560000Y-105410000D03*
G04 #@! TO.P,U1,20*
G04 #@! TO.N,Net-(U1-Pad20)*
X162560000Y-107950000D03*
G04 #@! TO.P,U1,19*
G04 #@! TO.N,Net-(U1-Pad19)*
X162560000Y-110490000D03*
G04 #@! TO.P,U1,18*
G04 #@! TO.N,Net-(U1-Pad18)*
X162560000Y-113030000D03*
G04 #@! TO.P,U1,17*
G04 #@! TO.N,GND*
X162560000Y-115570000D03*
G04 #@! TO.P,U1,16*
G04 #@! TO.N,3v3*
X162560000Y-118110000D03*
G04 #@! TO.P,U1,15*
G04 #@! TO.N,Net-(U1-Pad15)*
X139065000Y-118110000D03*
G04 #@! TO.P,U1,14*
G04 #@! TO.N,Net-(U1-Pad14)*
X139065000Y-115570000D03*
G04 #@! TO.P,U1,13*
G04 #@! TO.N,Net-(U1-Pad13)*
X139065000Y-113030000D03*
G04 #@! TO.P,U1,12*
G04 #@! TO.N,Net-(U1-Pad12)*
X139065000Y-110490000D03*
G04 #@! TO.P,U1,11*
G04 #@! TO.N,3v3*
X139065000Y-107950000D03*
G04 #@! TO.P,U1,10*
G04 #@! TO.N,GND*
X139065000Y-105410000D03*
G04 #@! TO.P,U1,9*
G04 #@! TO.N,Net-(U1-Pad9)*
X139065000Y-102870000D03*
G04 #@! TO.P,U1,8*
G04 #@! TO.N,Net-(U1-Pad8)*
X139065000Y-100330000D03*
G04 #@! TO.P,U1,7*
G04 #@! TO.N,Net-(U1-Pad7)*
X139065000Y-97790000D03*
G04 #@! TO.P,U1,6*
G04 #@! TO.N,Net-(U1-Pad6)*
X139065000Y-95250000D03*
G04 #@! TO.P,U1,5*
G04 #@! TO.N,Net-(R2-Pad1)*
X139065000Y-92710000D03*
G04 #@! TO.P,U1,4*
G04 #@! TO.N,Net-(R1-Pad2)*
X139065000Y-90170000D03*
G04 #@! TO.P,U1,3*
G04 #@! TO.N,Net-(U1-Pad3)*
X139065000Y-87630000D03*
G04 #@! TO.P,U1,2*
G04 #@! TO.N,Net-(U1-Pad2)*
X139065000Y-85090000D03*
G04 #@! TO.P,U1,1*
G04 #@! TO.N,Net-(U1-Pad1)*
X139065000Y-82550000D03*
G04 #@! TD*
D11*
G04 #@! TO.P,U3,4*
G04 #@! TO.N,GND*
X167640000Y-77470000D03*
G04 #@! TO.P,U3,3*
G04 #@! TO.N,3v3*
X170180000Y-77470000D03*
G04 #@! TO.P,U3,2*
G04 #@! TO.N,SCL*
X172720000Y-77470000D03*
D12*
G04 #@! TO.P,U3,1*
G04 #@! TO.N,SDA*
X175260000Y-77470000D03*
G04 #@! TD*
D13*
G04 #@! TO.P,SW1,1*
G04 #@! TO.N,3v3*
X174140000Y-119380000D03*
G04 #@! TO.P,SW1,2*
G04 #@! TO.N,Net-(R2-Pad1)*
X174140000Y-123880000D03*
G04 #@! TO.P,SW1,1*
G04 #@! TO.N,3v3*
X167640000Y-119380000D03*
G04 #@! TO.P,SW1,2*
G04 #@! TO.N,Net-(R2-Pad1)*
X167640000Y-123880000D03*
G04 #@! TD*
D14*
G04 #@! TO.P,R2,2*
G04 #@! TO.N,GND*
X174752000Y-115824000D03*
D15*
G04 #@! TO.P,R2,1*
G04 #@! TO.N,Net-(R2-Pad1)*
X167132000Y-115824000D03*
G04 #@! TD*
D11*
G04 #@! TO.P,U4,7*
G04 #@! TO.N,3v3*
X143510000Y-107950000D03*
G04 #@! TO.P,U4,6*
G04 #@! TO.N,Net-(U4-Pad6)*
X146050000Y-107950000D03*
G04 #@! TO.P,U4,5*
G04 #@! TO.N,GND*
X148590000Y-107950000D03*
G04 #@! TO.P,U4,4*
G04 #@! TO.N,Net-(U4-Pad4)*
X151130000Y-107950000D03*
G04 #@! TO.P,U4,3*
G04 #@! TO.N,Net-(U4-Pad3)*
X153670000Y-107950000D03*
G04 #@! TO.P,U4,2*
G04 #@! TO.N,SCL*
X156210000Y-107950000D03*
D12*
G04 #@! TO.P,U4,1*
G04 #@! TO.N,SDA*
X158750000Y-107950000D03*
G04 #@! TD*
D14*
G04 #@! TO.P,R1,2*
G04 #@! TO.N,Net-(R1-Pad2)*
X160020000Y-100330000D03*
D15*
G04 #@! TO.P,R1,1*
G04 #@! TO.N,3v3*
X160020000Y-92710000D03*
G04 #@! TD*
D11*
G04 #@! TO.P,U2,4*
G04 #@! TO.N,3v3*
X154940000Y-104140000D03*
G04 #@! TO.P,U2,3*
G04 #@! TO.N,Net-(R1-Pad2)*
X152400000Y-104140000D03*
G04 #@! TO.P,U2,2*
G04 #@! TO.N,Net-(U2-Pad2)*
X149860000Y-104140000D03*
D12*
G04 #@! TO.P,U2,1*
G04 #@! TO.N,GND*
X147320000Y-104140000D03*
G04 #@! TD*
D16*
G04 #@! TO.N,3v3*
X154940000Y-99568000D03*
G04 #@! TD*
D17*
G04 #@! TO.N,SDA*
X163637630Y-87630000D02*
X162560000Y-87630000D01*
X166200000Y-87630000D02*
X163637630Y-87630000D01*
X175260000Y-78570000D02*
X166200000Y-87630000D01*
X175260000Y-77470000D02*
X175260000Y-78570000D01*
X158750000Y-91440000D02*
X158750000Y-107950000D01*
X162560000Y-87630000D02*
X158750000Y-91440000D01*
G04 #@! TO.N,SCL*
X165100000Y-85090000D02*
X162560000Y-85090000D01*
X172720000Y-77470000D02*
X165100000Y-85090000D01*
X156210000Y-91440000D02*
X156210000Y-107950000D01*
X162560000Y-85090000D02*
X156210000Y-91440000D01*
G04 #@! TO.N,3v3*
X154940000Y-99568000D02*
X154940000Y-104140000D01*
X163830000Y-119380000D02*
X162560000Y-118110000D01*
X167640000Y-119380000D02*
X163830000Y-119380000D01*
X174140000Y-119380000D02*
X167640000Y-119380000D01*
G04 #@! TO.N,GND*
X147320000Y-106680000D02*
X148590000Y-107950000D01*
X147320000Y-104140000D02*
X147320000Y-106680000D01*
G04 #@! TO.N,Net-(R1-Pad2)*
X152400000Y-104140000D02*
X152400000Y-102235000D01*
X140335000Y-90170000D02*
X139065000Y-90170000D01*
X152400000Y-102235000D02*
X140335000Y-90170000D01*
G04 #@! TO.N,Net-(R2-Pad1)*
X140970000Y-94615000D02*
X140970000Y-110490000D01*
X140970000Y-110490000D02*
X144962999Y-114482999D01*
X139065000Y-92710000D02*
X140970000Y-94615000D01*
X144962999Y-114482999D02*
X165790999Y-114482999D01*
X165790999Y-114482999D02*
X166432001Y-115124001D01*
X166432001Y-115124001D02*
X167132000Y-115824000D01*
G04 #@! TD*
M02*
