G04 #@! TF.GenerationSoftware,KiCad,Pcbnew,5.0.2-bee76a0~70~ubuntu18.04.1*
G04 #@! TF.CreationDate,2020-05-13T09:36:55-07:00*
G04 #@! TF.ProjectId,pcb,7063622e-6b69-4636-9164-5f7063625858,rev?*
G04 #@! TF.SameCoordinates,Original*
G04 #@! TF.FileFunction,Soldermask,Bot*
G04 #@! TF.FilePolarity,Negative*
%FSLAX46Y46*%
G04 Gerber Fmt 4.6, Leading zero omitted, Abs format (unit mm)*
G04 Created by KiCad (PCBNEW 5.0.2-bee76a0~70~ubuntu18.04.1) date Wed 13 May 2020 09:36:55 AM PDT*
%MOMM*%
%LPD*%
G01*
G04 APERTURE LIST*
%ADD10C,2.000000*%
%ADD11C,0.100000*%
G04 APERTURE END LIST*
D10*
X142151060Y-78740000D02*
G75*
G03X142151060Y-78740000I-1805009J0D01*
G01*
X142151060Y-121920000D02*
G75*
G03X142151060Y-121920000I-1805009J0D01*
G01*
X163095009Y-121920000D02*
G75*
G03X163095009Y-121920000I-1805009J0D01*
G01*
X163095009Y-78740000D02*
G75*
G03X163095009Y-78740000I-1805009J0D01*
G01*
D11*
G36*
X174446565Y-122869389D02*
X174637834Y-122948615D01*
X174809976Y-123063637D01*
X174956363Y-123210024D01*
X175071385Y-123382166D01*
X175150611Y-123573435D01*
X175191000Y-123776484D01*
X175191000Y-123983516D01*
X175150611Y-124186565D01*
X175071385Y-124377834D01*
X174956363Y-124549976D01*
X174809976Y-124696363D01*
X174637834Y-124811385D01*
X174446565Y-124890611D01*
X174243516Y-124931000D01*
X174036484Y-124931000D01*
X173833435Y-124890611D01*
X173642166Y-124811385D01*
X173470024Y-124696363D01*
X173323637Y-124549976D01*
X173208615Y-124377834D01*
X173129389Y-124186565D01*
X173089000Y-123983516D01*
X173089000Y-123776484D01*
X173129389Y-123573435D01*
X173208615Y-123382166D01*
X173323637Y-123210024D01*
X173470024Y-123063637D01*
X173642166Y-122948615D01*
X173833435Y-122869389D01*
X174036484Y-122829000D01*
X174243516Y-122829000D01*
X174446565Y-122869389D01*
X174446565Y-122869389D01*
G37*
G36*
X167946565Y-122869389D02*
X168137834Y-122948615D01*
X168309976Y-123063637D01*
X168456363Y-123210024D01*
X168571385Y-123382166D01*
X168650611Y-123573435D01*
X168691000Y-123776484D01*
X168691000Y-123983516D01*
X168650611Y-124186565D01*
X168571385Y-124377834D01*
X168456363Y-124549976D01*
X168309976Y-124696363D01*
X168137834Y-124811385D01*
X167946565Y-124890611D01*
X167743516Y-124931000D01*
X167536484Y-124931000D01*
X167333435Y-124890611D01*
X167142166Y-124811385D01*
X166970024Y-124696363D01*
X166823637Y-124549976D01*
X166708615Y-124377834D01*
X166629389Y-124186565D01*
X166589000Y-123983516D01*
X166589000Y-123776484D01*
X166629389Y-123573435D01*
X166708615Y-123382166D01*
X166823637Y-123210024D01*
X166970024Y-123063637D01*
X167142166Y-122948615D01*
X167333435Y-122869389D01*
X167536484Y-122829000D01*
X167743516Y-122829000D01*
X167946565Y-122869389D01*
X167946565Y-122869389D01*
G37*
G36*
X174446565Y-118369389D02*
X174637834Y-118448615D01*
X174809976Y-118563637D01*
X174956363Y-118710024D01*
X175071385Y-118882166D01*
X175150611Y-119073435D01*
X175191000Y-119276484D01*
X175191000Y-119483516D01*
X175150611Y-119686565D01*
X175071385Y-119877834D01*
X174956363Y-120049976D01*
X174809976Y-120196363D01*
X174637834Y-120311385D01*
X174446565Y-120390611D01*
X174243516Y-120431000D01*
X174036484Y-120431000D01*
X173833435Y-120390611D01*
X173642166Y-120311385D01*
X173470024Y-120196363D01*
X173323637Y-120049976D01*
X173208615Y-119877834D01*
X173129389Y-119686565D01*
X173089000Y-119483516D01*
X173089000Y-119276484D01*
X173129389Y-119073435D01*
X173208615Y-118882166D01*
X173323637Y-118710024D01*
X173470024Y-118563637D01*
X173642166Y-118448615D01*
X173833435Y-118369389D01*
X174036484Y-118329000D01*
X174243516Y-118329000D01*
X174446565Y-118369389D01*
X174446565Y-118369389D01*
G37*
G36*
X167946565Y-118369389D02*
X168137834Y-118448615D01*
X168309976Y-118563637D01*
X168456363Y-118710024D01*
X168571385Y-118882166D01*
X168650611Y-119073435D01*
X168691000Y-119276484D01*
X168691000Y-119483516D01*
X168650611Y-119686565D01*
X168571385Y-119877834D01*
X168456363Y-120049976D01*
X168309976Y-120196363D01*
X168137834Y-120311385D01*
X167946565Y-120390611D01*
X167743516Y-120431000D01*
X167536484Y-120431000D01*
X167333435Y-120390611D01*
X167142166Y-120311385D01*
X166970024Y-120196363D01*
X166823637Y-120049976D01*
X166708615Y-119877834D01*
X166629389Y-119686565D01*
X166589000Y-119483516D01*
X166589000Y-119276484D01*
X166629389Y-119073435D01*
X166708615Y-118882166D01*
X166823637Y-118710024D01*
X166970024Y-118563637D01*
X167142166Y-118448615D01*
X167333435Y-118369389D01*
X167536484Y-118329000D01*
X167743516Y-118329000D01*
X167946565Y-118369389D01*
X167946565Y-118369389D01*
G37*
G36*
X162797142Y-117328242D02*
X162945102Y-117389530D01*
X163078258Y-117478502D01*
X163191498Y-117591742D01*
X163280470Y-117724898D01*
X163341758Y-117872858D01*
X163373000Y-118029925D01*
X163373000Y-118190075D01*
X163341758Y-118347142D01*
X163280470Y-118495102D01*
X163191498Y-118628258D01*
X163078258Y-118741498D01*
X162945102Y-118830470D01*
X162797142Y-118891758D01*
X162640075Y-118923000D01*
X162479925Y-118923000D01*
X162322858Y-118891758D01*
X162174898Y-118830470D01*
X162041742Y-118741498D01*
X161928502Y-118628258D01*
X161839530Y-118495102D01*
X161778242Y-118347142D01*
X161747000Y-118190075D01*
X161747000Y-118029925D01*
X161778242Y-117872858D01*
X161839530Y-117724898D01*
X161928502Y-117591742D01*
X162041742Y-117478502D01*
X162174898Y-117389530D01*
X162322858Y-117328242D01*
X162479925Y-117297000D01*
X162640075Y-117297000D01*
X162797142Y-117328242D01*
X162797142Y-117328242D01*
G37*
G36*
X139302142Y-117328242D02*
X139450102Y-117389530D01*
X139583258Y-117478502D01*
X139696498Y-117591742D01*
X139785470Y-117724898D01*
X139846758Y-117872858D01*
X139878000Y-118029925D01*
X139878000Y-118190075D01*
X139846758Y-118347142D01*
X139785470Y-118495102D01*
X139696498Y-118628258D01*
X139583258Y-118741498D01*
X139450102Y-118830470D01*
X139302142Y-118891758D01*
X139145075Y-118923000D01*
X138984925Y-118923000D01*
X138827858Y-118891758D01*
X138679898Y-118830470D01*
X138546742Y-118741498D01*
X138433502Y-118628258D01*
X138344530Y-118495102D01*
X138283242Y-118347142D01*
X138252000Y-118190075D01*
X138252000Y-118029925D01*
X138283242Y-117872858D01*
X138344530Y-117724898D01*
X138433502Y-117591742D01*
X138546742Y-117478502D01*
X138679898Y-117389530D01*
X138827858Y-117328242D01*
X138984925Y-117297000D01*
X139145075Y-117297000D01*
X139302142Y-117328242D01*
X139302142Y-117328242D01*
G37*
G36*
X174825665Y-115076622D02*
X174899222Y-115083867D01*
X175040786Y-115126810D01*
X175171252Y-115196546D01*
X175285606Y-115290394D01*
X175379454Y-115404748D01*
X175449190Y-115535214D01*
X175492133Y-115676778D01*
X175506633Y-115824000D01*
X175492133Y-115971222D01*
X175449190Y-116112786D01*
X175379454Y-116243252D01*
X175285606Y-116357606D01*
X175171252Y-116451454D01*
X175040786Y-116521190D01*
X174899222Y-116564133D01*
X174825665Y-116571378D01*
X174788888Y-116575000D01*
X174715112Y-116575000D01*
X174678335Y-116571378D01*
X174604778Y-116564133D01*
X174463214Y-116521190D01*
X174332748Y-116451454D01*
X174218394Y-116357606D01*
X174124546Y-116243252D01*
X174054810Y-116112786D01*
X174011867Y-115971222D01*
X173997367Y-115824000D01*
X174011867Y-115676778D01*
X174054810Y-115535214D01*
X174124546Y-115404748D01*
X174218394Y-115290394D01*
X174332748Y-115196546D01*
X174463214Y-115126810D01*
X174604778Y-115083867D01*
X174678335Y-115076622D01*
X174715112Y-115073000D01*
X174788888Y-115073000D01*
X174825665Y-115076622D01*
X174825665Y-115076622D01*
G37*
G36*
X167260600Y-115083867D02*
X167351059Y-115101860D01*
X167487732Y-115158472D01*
X167544715Y-115196547D01*
X167610738Y-115240662D01*
X167715338Y-115345262D01*
X167715340Y-115345265D01*
X167797528Y-115468268D01*
X167854140Y-115604941D01*
X167883000Y-115750033D01*
X167883000Y-115897967D01*
X167854140Y-116043059D01*
X167797528Y-116179732D01*
X167723535Y-116290470D01*
X167715338Y-116302738D01*
X167610738Y-116407338D01*
X167610735Y-116407340D01*
X167487732Y-116489528D01*
X167351059Y-116546140D01*
X167264004Y-116563456D01*
X167205969Y-116575000D01*
X167058031Y-116575000D01*
X166999996Y-116563456D01*
X166912941Y-116546140D01*
X166776268Y-116489528D01*
X166653265Y-116407340D01*
X166653262Y-116407338D01*
X166548662Y-116302738D01*
X166540465Y-116290470D01*
X166466472Y-116179732D01*
X166409860Y-116043059D01*
X166381000Y-115897967D01*
X166381000Y-115750033D01*
X166409860Y-115604941D01*
X166466472Y-115468268D01*
X166548660Y-115345265D01*
X166548662Y-115345262D01*
X166653262Y-115240662D01*
X166719285Y-115196547D01*
X166776268Y-115158472D01*
X166912941Y-115101860D01*
X167003400Y-115083867D01*
X167058031Y-115073000D01*
X167205969Y-115073000D01*
X167260600Y-115083867D01*
X167260600Y-115083867D01*
G37*
G36*
X162797142Y-114788242D02*
X162945102Y-114849530D01*
X163078258Y-114938502D01*
X163191498Y-115051742D01*
X163280470Y-115184898D01*
X163341758Y-115332858D01*
X163373000Y-115489925D01*
X163373000Y-115650075D01*
X163341758Y-115807142D01*
X163280470Y-115955102D01*
X163191498Y-116088258D01*
X163078258Y-116201498D01*
X162945102Y-116290470D01*
X162797142Y-116351758D01*
X162640075Y-116383000D01*
X162479925Y-116383000D01*
X162322858Y-116351758D01*
X162174898Y-116290470D01*
X162041742Y-116201498D01*
X161928502Y-116088258D01*
X161839530Y-115955102D01*
X161778242Y-115807142D01*
X161747000Y-115650075D01*
X161747000Y-115489925D01*
X161778242Y-115332858D01*
X161839530Y-115184898D01*
X161928502Y-115051742D01*
X162041742Y-114938502D01*
X162174898Y-114849530D01*
X162322858Y-114788242D01*
X162479925Y-114757000D01*
X162640075Y-114757000D01*
X162797142Y-114788242D01*
X162797142Y-114788242D01*
G37*
G36*
X139302142Y-114788242D02*
X139450102Y-114849530D01*
X139583258Y-114938502D01*
X139696498Y-115051742D01*
X139785470Y-115184898D01*
X139846758Y-115332858D01*
X139878000Y-115489925D01*
X139878000Y-115650075D01*
X139846758Y-115807142D01*
X139785470Y-115955102D01*
X139696498Y-116088258D01*
X139583258Y-116201498D01*
X139450102Y-116290470D01*
X139302142Y-116351758D01*
X139145075Y-116383000D01*
X138984925Y-116383000D01*
X138827858Y-116351758D01*
X138679898Y-116290470D01*
X138546742Y-116201498D01*
X138433502Y-116088258D01*
X138344530Y-115955102D01*
X138283242Y-115807142D01*
X138252000Y-115650075D01*
X138252000Y-115489925D01*
X138283242Y-115332858D01*
X138344530Y-115184898D01*
X138433502Y-115051742D01*
X138546742Y-114938502D01*
X138679898Y-114849530D01*
X138827858Y-114788242D01*
X138984925Y-114757000D01*
X139145075Y-114757000D01*
X139302142Y-114788242D01*
X139302142Y-114788242D01*
G37*
G36*
X162797142Y-112248242D02*
X162945102Y-112309530D01*
X163078258Y-112398502D01*
X163191498Y-112511742D01*
X163280470Y-112644898D01*
X163341758Y-112792858D01*
X163373000Y-112949925D01*
X163373000Y-113110075D01*
X163341758Y-113267142D01*
X163280470Y-113415102D01*
X163191498Y-113548258D01*
X163078258Y-113661498D01*
X162945102Y-113750470D01*
X162797142Y-113811758D01*
X162640075Y-113843000D01*
X162479925Y-113843000D01*
X162322858Y-113811758D01*
X162174898Y-113750470D01*
X162041742Y-113661498D01*
X161928502Y-113548258D01*
X161839530Y-113415102D01*
X161778242Y-113267142D01*
X161747000Y-113110075D01*
X161747000Y-112949925D01*
X161778242Y-112792858D01*
X161839530Y-112644898D01*
X161928502Y-112511742D01*
X162041742Y-112398502D01*
X162174898Y-112309530D01*
X162322858Y-112248242D01*
X162479925Y-112217000D01*
X162640075Y-112217000D01*
X162797142Y-112248242D01*
X162797142Y-112248242D01*
G37*
G36*
X139302142Y-112248242D02*
X139450102Y-112309530D01*
X139583258Y-112398502D01*
X139696498Y-112511742D01*
X139785470Y-112644898D01*
X139846758Y-112792858D01*
X139878000Y-112949925D01*
X139878000Y-113110075D01*
X139846758Y-113267142D01*
X139785470Y-113415102D01*
X139696498Y-113548258D01*
X139583258Y-113661498D01*
X139450102Y-113750470D01*
X139302142Y-113811758D01*
X139145075Y-113843000D01*
X138984925Y-113843000D01*
X138827858Y-113811758D01*
X138679898Y-113750470D01*
X138546742Y-113661498D01*
X138433502Y-113548258D01*
X138344530Y-113415102D01*
X138283242Y-113267142D01*
X138252000Y-113110075D01*
X138252000Y-112949925D01*
X138283242Y-112792858D01*
X138344530Y-112644898D01*
X138433502Y-112511742D01*
X138546742Y-112398502D01*
X138679898Y-112309530D01*
X138827858Y-112248242D01*
X138984925Y-112217000D01*
X139145075Y-112217000D01*
X139302142Y-112248242D01*
X139302142Y-112248242D01*
G37*
G36*
X162797142Y-109708242D02*
X162945102Y-109769530D01*
X163078258Y-109858502D01*
X163191498Y-109971742D01*
X163280470Y-110104898D01*
X163341758Y-110252858D01*
X163373000Y-110409925D01*
X163373000Y-110570075D01*
X163341758Y-110727142D01*
X163280470Y-110875102D01*
X163191498Y-111008258D01*
X163078258Y-111121498D01*
X162945102Y-111210470D01*
X162797142Y-111271758D01*
X162640075Y-111303000D01*
X162479925Y-111303000D01*
X162322858Y-111271758D01*
X162174898Y-111210470D01*
X162041742Y-111121498D01*
X161928502Y-111008258D01*
X161839530Y-110875102D01*
X161778242Y-110727142D01*
X161747000Y-110570075D01*
X161747000Y-110409925D01*
X161778242Y-110252858D01*
X161839530Y-110104898D01*
X161928502Y-109971742D01*
X162041742Y-109858502D01*
X162174898Y-109769530D01*
X162322858Y-109708242D01*
X162479925Y-109677000D01*
X162640075Y-109677000D01*
X162797142Y-109708242D01*
X162797142Y-109708242D01*
G37*
G36*
X139302142Y-109708242D02*
X139450102Y-109769530D01*
X139583258Y-109858502D01*
X139696498Y-109971742D01*
X139785470Y-110104898D01*
X139846758Y-110252858D01*
X139878000Y-110409925D01*
X139878000Y-110570075D01*
X139846758Y-110727142D01*
X139785470Y-110875102D01*
X139696498Y-111008258D01*
X139583258Y-111121498D01*
X139450102Y-111210470D01*
X139302142Y-111271758D01*
X139145075Y-111303000D01*
X138984925Y-111303000D01*
X138827858Y-111271758D01*
X138679898Y-111210470D01*
X138546742Y-111121498D01*
X138433502Y-111008258D01*
X138344530Y-110875102D01*
X138283242Y-110727142D01*
X138252000Y-110570075D01*
X138252000Y-110409925D01*
X138283242Y-110252858D01*
X138344530Y-110104898D01*
X138433502Y-109971742D01*
X138546742Y-109858502D01*
X138679898Y-109769530D01*
X138827858Y-109708242D01*
X138984925Y-109677000D01*
X139145075Y-109677000D01*
X139302142Y-109708242D01*
X139302142Y-109708242D01*
G37*
G36*
X146160442Y-107055518D02*
X146226627Y-107062037D01*
X146339853Y-107096384D01*
X146396467Y-107113557D01*
X146498774Y-107168242D01*
X146552991Y-107197222D01*
X146588729Y-107226552D01*
X146690186Y-107309814D01*
X146773448Y-107411271D01*
X146802778Y-107447009D01*
X146802779Y-107447011D01*
X146886443Y-107603533D01*
X146886443Y-107603534D01*
X146937963Y-107773373D01*
X146955359Y-107950000D01*
X146937963Y-108126627D01*
X146903616Y-108239853D01*
X146886443Y-108296467D01*
X146812348Y-108435087D01*
X146802778Y-108452991D01*
X146773448Y-108488729D01*
X146690186Y-108590186D01*
X146592358Y-108670470D01*
X146552991Y-108702778D01*
X146552989Y-108702779D01*
X146396467Y-108786443D01*
X146339853Y-108803616D01*
X146226627Y-108837963D01*
X146160442Y-108844482D01*
X146094260Y-108851000D01*
X146005740Y-108851000D01*
X145939558Y-108844482D01*
X145873373Y-108837963D01*
X145760147Y-108803616D01*
X145703533Y-108786443D01*
X145547011Y-108702779D01*
X145547009Y-108702778D01*
X145507642Y-108670470D01*
X145409814Y-108590186D01*
X145326552Y-108488729D01*
X145297222Y-108452991D01*
X145287652Y-108435087D01*
X145213557Y-108296467D01*
X145196384Y-108239853D01*
X145162037Y-108126627D01*
X145144641Y-107950000D01*
X145162037Y-107773373D01*
X145213557Y-107603534D01*
X145213557Y-107603533D01*
X145297221Y-107447011D01*
X145297222Y-107447009D01*
X145326552Y-107411271D01*
X145409814Y-107309814D01*
X145511271Y-107226552D01*
X145547009Y-107197222D01*
X145601226Y-107168242D01*
X145703533Y-107113557D01*
X145760147Y-107096384D01*
X145873373Y-107062037D01*
X145939558Y-107055518D01*
X146005740Y-107049000D01*
X146094260Y-107049000D01*
X146160442Y-107055518D01*
X146160442Y-107055518D01*
G37*
G36*
X156320442Y-107055518D02*
X156386627Y-107062037D01*
X156499853Y-107096384D01*
X156556467Y-107113557D01*
X156658774Y-107168242D01*
X156712991Y-107197222D01*
X156748729Y-107226552D01*
X156850186Y-107309814D01*
X156933448Y-107411271D01*
X156962778Y-107447009D01*
X156962779Y-107447011D01*
X157046443Y-107603533D01*
X157046443Y-107603534D01*
X157097963Y-107773373D01*
X157115359Y-107950000D01*
X157097963Y-108126627D01*
X157063616Y-108239853D01*
X157046443Y-108296467D01*
X156972348Y-108435087D01*
X156962778Y-108452991D01*
X156933448Y-108488729D01*
X156850186Y-108590186D01*
X156752358Y-108670470D01*
X156712991Y-108702778D01*
X156712989Y-108702779D01*
X156556467Y-108786443D01*
X156499853Y-108803616D01*
X156386627Y-108837963D01*
X156320442Y-108844482D01*
X156254260Y-108851000D01*
X156165740Y-108851000D01*
X156099558Y-108844482D01*
X156033373Y-108837963D01*
X155920147Y-108803616D01*
X155863533Y-108786443D01*
X155707011Y-108702779D01*
X155707009Y-108702778D01*
X155667642Y-108670470D01*
X155569814Y-108590186D01*
X155486552Y-108488729D01*
X155457222Y-108452991D01*
X155447652Y-108435087D01*
X155373557Y-108296467D01*
X155356384Y-108239853D01*
X155322037Y-108126627D01*
X155304641Y-107950000D01*
X155322037Y-107773373D01*
X155373557Y-107603534D01*
X155373557Y-107603533D01*
X155457221Y-107447011D01*
X155457222Y-107447009D01*
X155486552Y-107411271D01*
X155569814Y-107309814D01*
X155671271Y-107226552D01*
X155707009Y-107197222D01*
X155761226Y-107168242D01*
X155863533Y-107113557D01*
X155920147Y-107096384D01*
X156033373Y-107062037D01*
X156099558Y-107055518D01*
X156165740Y-107049000D01*
X156254260Y-107049000D01*
X156320442Y-107055518D01*
X156320442Y-107055518D01*
G37*
G36*
X153780442Y-107055518D02*
X153846627Y-107062037D01*
X153959853Y-107096384D01*
X154016467Y-107113557D01*
X154118774Y-107168242D01*
X154172991Y-107197222D01*
X154208729Y-107226552D01*
X154310186Y-107309814D01*
X154393448Y-107411271D01*
X154422778Y-107447009D01*
X154422779Y-107447011D01*
X154506443Y-107603533D01*
X154506443Y-107603534D01*
X154557963Y-107773373D01*
X154575359Y-107950000D01*
X154557963Y-108126627D01*
X154523616Y-108239853D01*
X154506443Y-108296467D01*
X154432348Y-108435087D01*
X154422778Y-108452991D01*
X154393448Y-108488729D01*
X154310186Y-108590186D01*
X154212358Y-108670470D01*
X154172991Y-108702778D01*
X154172989Y-108702779D01*
X154016467Y-108786443D01*
X153959853Y-108803616D01*
X153846627Y-108837963D01*
X153780442Y-108844482D01*
X153714260Y-108851000D01*
X153625740Y-108851000D01*
X153559558Y-108844482D01*
X153493373Y-108837963D01*
X153380147Y-108803616D01*
X153323533Y-108786443D01*
X153167011Y-108702779D01*
X153167009Y-108702778D01*
X153127642Y-108670470D01*
X153029814Y-108590186D01*
X152946552Y-108488729D01*
X152917222Y-108452991D01*
X152907652Y-108435087D01*
X152833557Y-108296467D01*
X152816384Y-108239853D01*
X152782037Y-108126627D01*
X152764641Y-107950000D01*
X152782037Y-107773373D01*
X152833557Y-107603534D01*
X152833557Y-107603533D01*
X152917221Y-107447011D01*
X152917222Y-107447009D01*
X152946552Y-107411271D01*
X153029814Y-107309814D01*
X153131271Y-107226552D01*
X153167009Y-107197222D01*
X153221226Y-107168242D01*
X153323533Y-107113557D01*
X153380147Y-107096384D01*
X153493373Y-107062037D01*
X153559558Y-107055518D01*
X153625740Y-107049000D01*
X153714260Y-107049000D01*
X153780442Y-107055518D01*
X153780442Y-107055518D01*
G37*
G36*
X151240442Y-107055518D02*
X151306627Y-107062037D01*
X151419853Y-107096384D01*
X151476467Y-107113557D01*
X151578774Y-107168242D01*
X151632991Y-107197222D01*
X151668729Y-107226552D01*
X151770186Y-107309814D01*
X151853448Y-107411271D01*
X151882778Y-107447009D01*
X151882779Y-107447011D01*
X151966443Y-107603533D01*
X151966443Y-107603534D01*
X152017963Y-107773373D01*
X152035359Y-107950000D01*
X152017963Y-108126627D01*
X151983616Y-108239853D01*
X151966443Y-108296467D01*
X151892348Y-108435087D01*
X151882778Y-108452991D01*
X151853448Y-108488729D01*
X151770186Y-108590186D01*
X151672358Y-108670470D01*
X151632991Y-108702778D01*
X151632989Y-108702779D01*
X151476467Y-108786443D01*
X151419853Y-108803616D01*
X151306627Y-108837963D01*
X151240442Y-108844482D01*
X151174260Y-108851000D01*
X151085740Y-108851000D01*
X151019558Y-108844482D01*
X150953373Y-108837963D01*
X150840147Y-108803616D01*
X150783533Y-108786443D01*
X150627011Y-108702779D01*
X150627009Y-108702778D01*
X150587642Y-108670470D01*
X150489814Y-108590186D01*
X150406552Y-108488729D01*
X150377222Y-108452991D01*
X150367652Y-108435087D01*
X150293557Y-108296467D01*
X150276384Y-108239853D01*
X150242037Y-108126627D01*
X150224641Y-107950000D01*
X150242037Y-107773373D01*
X150293557Y-107603534D01*
X150293557Y-107603533D01*
X150377221Y-107447011D01*
X150377222Y-107447009D01*
X150406552Y-107411271D01*
X150489814Y-107309814D01*
X150591271Y-107226552D01*
X150627009Y-107197222D01*
X150681226Y-107168242D01*
X150783533Y-107113557D01*
X150840147Y-107096384D01*
X150953373Y-107062037D01*
X151019558Y-107055518D01*
X151085740Y-107049000D01*
X151174260Y-107049000D01*
X151240442Y-107055518D01*
X151240442Y-107055518D01*
G37*
G36*
X148700442Y-107055518D02*
X148766627Y-107062037D01*
X148879853Y-107096384D01*
X148936467Y-107113557D01*
X149038774Y-107168242D01*
X149092991Y-107197222D01*
X149128729Y-107226552D01*
X149230186Y-107309814D01*
X149313448Y-107411271D01*
X149342778Y-107447009D01*
X149342779Y-107447011D01*
X149426443Y-107603533D01*
X149426443Y-107603534D01*
X149477963Y-107773373D01*
X149495359Y-107950000D01*
X149477963Y-108126627D01*
X149443616Y-108239853D01*
X149426443Y-108296467D01*
X149352348Y-108435087D01*
X149342778Y-108452991D01*
X149313448Y-108488729D01*
X149230186Y-108590186D01*
X149132358Y-108670470D01*
X149092991Y-108702778D01*
X149092989Y-108702779D01*
X148936467Y-108786443D01*
X148879853Y-108803616D01*
X148766627Y-108837963D01*
X148700442Y-108844482D01*
X148634260Y-108851000D01*
X148545740Y-108851000D01*
X148479558Y-108844482D01*
X148413373Y-108837963D01*
X148300147Y-108803616D01*
X148243533Y-108786443D01*
X148087011Y-108702779D01*
X148087009Y-108702778D01*
X148047642Y-108670470D01*
X147949814Y-108590186D01*
X147866552Y-108488729D01*
X147837222Y-108452991D01*
X147827652Y-108435087D01*
X147753557Y-108296467D01*
X147736384Y-108239853D01*
X147702037Y-108126627D01*
X147684641Y-107950000D01*
X147702037Y-107773373D01*
X147753557Y-107603534D01*
X147753557Y-107603533D01*
X147837221Y-107447011D01*
X147837222Y-107447009D01*
X147866552Y-107411271D01*
X147949814Y-107309814D01*
X148051271Y-107226552D01*
X148087009Y-107197222D01*
X148141226Y-107168242D01*
X148243533Y-107113557D01*
X148300147Y-107096384D01*
X148413373Y-107062037D01*
X148479558Y-107055518D01*
X148545740Y-107049000D01*
X148634260Y-107049000D01*
X148700442Y-107055518D01*
X148700442Y-107055518D01*
G37*
G36*
X143620442Y-107055518D02*
X143686627Y-107062037D01*
X143799853Y-107096384D01*
X143856467Y-107113557D01*
X143958774Y-107168242D01*
X144012991Y-107197222D01*
X144048729Y-107226552D01*
X144150186Y-107309814D01*
X144233448Y-107411271D01*
X144262778Y-107447009D01*
X144262779Y-107447011D01*
X144346443Y-107603533D01*
X144346443Y-107603534D01*
X144397963Y-107773373D01*
X144415359Y-107950000D01*
X144397963Y-108126627D01*
X144363616Y-108239853D01*
X144346443Y-108296467D01*
X144272348Y-108435087D01*
X144262778Y-108452991D01*
X144233448Y-108488729D01*
X144150186Y-108590186D01*
X144052358Y-108670470D01*
X144012991Y-108702778D01*
X144012989Y-108702779D01*
X143856467Y-108786443D01*
X143799853Y-108803616D01*
X143686627Y-108837963D01*
X143620442Y-108844482D01*
X143554260Y-108851000D01*
X143465740Y-108851000D01*
X143399558Y-108844482D01*
X143333373Y-108837963D01*
X143220147Y-108803616D01*
X143163533Y-108786443D01*
X143007011Y-108702779D01*
X143007009Y-108702778D01*
X142967642Y-108670470D01*
X142869814Y-108590186D01*
X142786552Y-108488729D01*
X142757222Y-108452991D01*
X142747652Y-108435087D01*
X142673557Y-108296467D01*
X142656384Y-108239853D01*
X142622037Y-108126627D01*
X142604641Y-107950000D01*
X142622037Y-107773373D01*
X142673557Y-107603534D01*
X142673557Y-107603533D01*
X142757221Y-107447011D01*
X142757222Y-107447009D01*
X142786552Y-107411271D01*
X142869814Y-107309814D01*
X142971271Y-107226552D01*
X143007009Y-107197222D01*
X143061226Y-107168242D01*
X143163533Y-107113557D01*
X143220147Y-107096384D01*
X143333373Y-107062037D01*
X143399558Y-107055518D01*
X143465740Y-107049000D01*
X143554260Y-107049000D01*
X143620442Y-107055518D01*
X143620442Y-107055518D01*
G37*
G36*
X159651000Y-108851000D02*
X157849000Y-108851000D01*
X157849000Y-107049000D01*
X159651000Y-107049000D01*
X159651000Y-108851000D01*
X159651000Y-108851000D01*
G37*
G36*
X139302142Y-107168242D02*
X139450102Y-107229530D01*
X139517130Y-107274317D01*
X139583257Y-107318501D01*
X139696499Y-107431743D01*
X139740683Y-107497870D01*
X139785470Y-107564898D01*
X139846758Y-107712858D01*
X139878000Y-107869925D01*
X139878000Y-108030075D01*
X139846758Y-108187142D01*
X139801474Y-108296466D01*
X139785471Y-108335100D01*
X139696499Y-108468257D01*
X139583257Y-108581499D01*
X139517130Y-108625683D01*
X139450102Y-108670470D01*
X139302142Y-108731758D01*
X139145075Y-108763000D01*
X138984925Y-108763000D01*
X138827858Y-108731758D01*
X138679898Y-108670470D01*
X138612870Y-108625683D01*
X138546743Y-108581499D01*
X138433501Y-108468257D01*
X138344529Y-108335100D01*
X138328526Y-108296466D01*
X138283242Y-108187142D01*
X138252000Y-108030075D01*
X138252000Y-107869925D01*
X138283242Y-107712858D01*
X138344530Y-107564898D01*
X138389317Y-107497870D01*
X138433501Y-107431743D01*
X138546743Y-107318501D01*
X138612870Y-107274317D01*
X138679898Y-107229530D01*
X138827858Y-107168242D01*
X138984925Y-107137000D01*
X139145075Y-107137000D01*
X139302142Y-107168242D01*
X139302142Y-107168242D01*
G37*
G36*
X162797142Y-107168242D02*
X162945102Y-107229530D01*
X163012130Y-107274317D01*
X163078257Y-107318501D01*
X163191499Y-107431743D01*
X163235683Y-107497870D01*
X163280470Y-107564898D01*
X163341758Y-107712858D01*
X163373000Y-107869925D01*
X163373000Y-108030075D01*
X163341758Y-108187142D01*
X163296474Y-108296466D01*
X163280471Y-108335100D01*
X163191499Y-108468257D01*
X163078257Y-108581499D01*
X163012130Y-108625683D01*
X162945102Y-108670470D01*
X162797142Y-108731758D01*
X162640075Y-108763000D01*
X162479925Y-108763000D01*
X162322858Y-108731758D01*
X162174898Y-108670470D01*
X162107870Y-108625683D01*
X162041743Y-108581499D01*
X161928501Y-108468257D01*
X161839529Y-108335100D01*
X161823526Y-108296466D01*
X161778242Y-108187142D01*
X161747000Y-108030075D01*
X161747000Y-107869925D01*
X161778242Y-107712858D01*
X161839530Y-107564898D01*
X161884317Y-107497870D01*
X161928501Y-107431743D01*
X162041743Y-107318501D01*
X162107870Y-107274317D01*
X162174898Y-107229530D01*
X162322858Y-107168242D01*
X162479925Y-107137000D01*
X162640075Y-107137000D01*
X162797142Y-107168242D01*
X162797142Y-107168242D01*
G37*
G36*
X139302142Y-104628242D02*
X139450102Y-104689530D01*
X139517130Y-104734317D01*
X139583257Y-104778501D01*
X139696499Y-104891743D01*
X139697191Y-104892779D01*
X139785470Y-105024898D01*
X139846758Y-105172858D01*
X139878000Y-105329925D01*
X139878000Y-105490075D01*
X139846758Y-105647142D01*
X139785470Y-105795102D01*
X139696498Y-105928258D01*
X139583258Y-106041498D01*
X139450102Y-106130470D01*
X139302142Y-106191758D01*
X139145075Y-106223000D01*
X138984925Y-106223000D01*
X138827858Y-106191758D01*
X138679898Y-106130470D01*
X138546742Y-106041498D01*
X138433502Y-105928258D01*
X138344530Y-105795102D01*
X138283242Y-105647142D01*
X138252000Y-105490075D01*
X138252000Y-105329925D01*
X138283242Y-105172858D01*
X138344530Y-105024898D01*
X138432809Y-104892779D01*
X138433501Y-104891743D01*
X138546743Y-104778501D01*
X138612870Y-104734317D01*
X138679898Y-104689530D01*
X138827858Y-104628242D01*
X138984925Y-104597000D01*
X139145075Y-104597000D01*
X139302142Y-104628242D01*
X139302142Y-104628242D01*
G37*
G36*
X162797142Y-104628242D02*
X162945102Y-104689530D01*
X163012130Y-104734317D01*
X163078257Y-104778501D01*
X163191499Y-104891743D01*
X163192191Y-104892779D01*
X163280470Y-105024898D01*
X163341758Y-105172858D01*
X163373000Y-105329925D01*
X163373000Y-105490075D01*
X163341758Y-105647142D01*
X163280470Y-105795102D01*
X163191498Y-105928258D01*
X163078258Y-106041498D01*
X162945102Y-106130470D01*
X162797142Y-106191758D01*
X162640075Y-106223000D01*
X162479925Y-106223000D01*
X162322858Y-106191758D01*
X162174898Y-106130470D01*
X162041742Y-106041498D01*
X161928502Y-105928258D01*
X161839530Y-105795102D01*
X161778242Y-105647142D01*
X161747000Y-105490075D01*
X161747000Y-105329925D01*
X161778242Y-105172858D01*
X161839530Y-105024898D01*
X161927809Y-104892779D01*
X161928501Y-104891743D01*
X162041743Y-104778501D01*
X162107870Y-104734317D01*
X162174898Y-104689530D01*
X162322858Y-104628242D01*
X162479925Y-104597000D01*
X162640075Y-104597000D01*
X162797142Y-104628242D01*
X162797142Y-104628242D01*
G37*
G36*
X148221000Y-105041000D02*
X146419000Y-105041000D01*
X146419000Y-103239000D01*
X148221000Y-103239000D01*
X148221000Y-105041000D01*
X148221000Y-105041000D01*
G37*
G36*
X152510443Y-103245519D02*
X152576627Y-103252037D01*
X152689853Y-103286384D01*
X152746467Y-103303557D01*
X152885087Y-103377652D01*
X152902991Y-103387222D01*
X152904253Y-103388258D01*
X153040186Y-103499814D01*
X153114584Y-103590470D01*
X153152778Y-103637009D01*
X153152779Y-103637011D01*
X153236443Y-103793533D01*
X153236443Y-103793534D01*
X153287963Y-103963373D01*
X153305359Y-104140000D01*
X153287963Y-104316627D01*
X153253616Y-104429853D01*
X153236443Y-104486467D01*
X153177361Y-104597000D01*
X153152778Y-104642991D01*
X153123448Y-104678729D01*
X153040186Y-104780186D01*
X152938729Y-104863448D01*
X152902991Y-104892778D01*
X152902989Y-104892779D01*
X152746467Y-104976443D01*
X152689853Y-104993616D01*
X152576627Y-105027963D01*
X152510442Y-105034482D01*
X152444260Y-105041000D01*
X152355740Y-105041000D01*
X152289557Y-105034481D01*
X152223373Y-105027963D01*
X152110147Y-104993616D01*
X152053533Y-104976443D01*
X151897011Y-104892779D01*
X151897009Y-104892778D01*
X151861271Y-104863448D01*
X151759814Y-104780186D01*
X151676552Y-104678729D01*
X151647222Y-104642991D01*
X151622639Y-104597000D01*
X151563557Y-104486467D01*
X151546384Y-104429853D01*
X151512037Y-104316627D01*
X151494641Y-104140000D01*
X151512037Y-103963373D01*
X151563557Y-103793534D01*
X151563557Y-103793533D01*
X151647221Y-103637011D01*
X151647222Y-103637009D01*
X151685416Y-103590470D01*
X151759814Y-103499814D01*
X151895747Y-103388258D01*
X151897009Y-103387222D01*
X151914913Y-103377652D01*
X152053533Y-103303557D01*
X152110147Y-103286384D01*
X152223373Y-103252037D01*
X152289558Y-103245518D01*
X152355740Y-103239000D01*
X152444260Y-103239000D01*
X152510443Y-103245519D01*
X152510443Y-103245519D01*
G37*
G36*
X155050443Y-103245519D02*
X155116627Y-103252037D01*
X155229853Y-103286384D01*
X155286467Y-103303557D01*
X155425087Y-103377652D01*
X155442991Y-103387222D01*
X155444253Y-103388258D01*
X155580186Y-103499814D01*
X155654584Y-103590470D01*
X155692778Y-103637009D01*
X155692779Y-103637011D01*
X155776443Y-103793533D01*
X155776443Y-103793534D01*
X155827963Y-103963373D01*
X155845359Y-104140000D01*
X155827963Y-104316627D01*
X155793616Y-104429853D01*
X155776443Y-104486467D01*
X155717361Y-104597000D01*
X155692778Y-104642991D01*
X155663448Y-104678729D01*
X155580186Y-104780186D01*
X155478729Y-104863448D01*
X155442991Y-104892778D01*
X155442989Y-104892779D01*
X155286467Y-104976443D01*
X155229853Y-104993616D01*
X155116627Y-105027963D01*
X155050442Y-105034482D01*
X154984260Y-105041000D01*
X154895740Y-105041000D01*
X154829557Y-105034481D01*
X154763373Y-105027963D01*
X154650147Y-104993616D01*
X154593533Y-104976443D01*
X154437011Y-104892779D01*
X154437009Y-104892778D01*
X154401271Y-104863448D01*
X154299814Y-104780186D01*
X154216552Y-104678729D01*
X154187222Y-104642991D01*
X154162639Y-104597000D01*
X154103557Y-104486467D01*
X154086384Y-104429853D01*
X154052037Y-104316627D01*
X154034641Y-104140000D01*
X154052037Y-103963373D01*
X154103557Y-103793534D01*
X154103557Y-103793533D01*
X154187221Y-103637011D01*
X154187222Y-103637009D01*
X154225416Y-103590470D01*
X154299814Y-103499814D01*
X154435747Y-103388258D01*
X154437009Y-103387222D01*
X154454913Y-103377652D01*
X154593533Y-103303557D01*
X154650147Y-103286384D01*
X154763373Y-103252037D01*
X154829558Y-103245518D01*
X154895740Y-103239000D01*
X154984260Y-103239000D01*
X155050443Y-103245519D01*
X155050443Y-103245519D01*
G37*
G36*
X149970443Y-103245519D02*
X150036627Y-103252037D01*
X150149853Y-103286384D01*
X150206467Y-103303557D01*
X150345087Y-103377652D01*
X150362991Y-103387222D01*
X150364253Y-103388258D01*
X150500186Y-103499814D01*
X150574584Y-103590470D01*
X150612778Y-103637009D01*
X150612779Y-103637011D01*
X150696443Y-103793533D01*
X150696443Y-103793534D01*
X150747963Y-103963373D01*
X150765359Y-104140000D01*
X150747963Y-104316627D01*
X150713616Y-104429853D01*
X150696443Y-104486467D01*
X150637361Y-104597000D01*
X150612778Y-104642991D01*
X150583448Y-104678729D01*
X150500186Y-104780186D01*
X150398729Y-104863448D01*
X150362991Y-104892778D01*
X150362989Y-104892779D01*
X150206467Y-104976443D01*
X150149853Y-104993616D01*
X150036627Y-105027963D01*
X149970442Y-105034482D01*
X149904260Y-105041000D01*
X149815740Y-105041000D01*
X149749557Y-105034481D01*
X149683373Y-105027963D01*
X149570147Y-104993616D01*
X149513533Y-104976443D01*
X149357011Y-104892779D01*
X149357009Y-104892778D01*
X149321271Y-104863448D01*
X149219814Y-104780186D01*
X149136552Y-104678729D01*
X149107222Y-104642991D01*
X149082639Y-104597000D01*
X149023557Y-104486467D01*
X149006384Y-104429853D01*
X148972037Y-104316627D01*
X148954641Y-104140000D01*
X148972037Y-103963373D01*
X149023557Y-103793534D01*
X149023557Y-103793533D01*
X149107221Y-103637011D01*
X149107222Y-103637009D01*
X149145416Y-103590470D01*
X149219814Y-103499814D01*
X149355747Y-103388258D01*
X149357009Y-103387222D01*
X149374913Y-103377652D01*
X149513533Y-103303557D01*
X149570147Y-103286384D01*
X149683373Y-103252037D01*
X149749558Y-103245518D01*
X149815740Y-103239000D01*
X149904260Y-103239000D01*
X149970443Y-103245519D01*
X149970443Y-103245519D01*
G37*
G36*
X162797142Y-102088242D02*
X162945102Y-102149530D01*
X163078258Y-102238502D01*
X163191498Y-102351742D01*
X163280470Y-102484898D01*
X163341758Y-102632858D01*
X163373000Y-102789925D01*
X163373000Y-102950075D01*
X163341758Y-103107142D01*
X163294354Y-103221583D01*
X163280471Y-103255100D01*
X163192191Y-103387222D01*
X163191498Y-103388258D01*
X163078258Y-103501498D01*
X162945102Y-103590470D01*
X162797142Y-103651758D01*
X162640075Y-103683000D01*
X162479925Y-103683000D01*
X162322858Y-103651758D01*
X162174898Y-103590470D01*
X162041742Y-103501498D01*
X161928502Y-103388258D01*
X161927810Y-103387222D01*
X161839529Y-103255100D01*
X161825646Y-103221583D01*
X161778242Y-103107142D01*
X161747000Y-102950075D01*
X161747000Y-102789925D01*
X161778242Y-102632858D01*
X161839530Y-102484898D01*
X161928502Y-102351742D01*
X162041742Y-102238502D01*
X162174898Y-102149530D01*
X162322858Y-102088242D01*
X162479925Y-102057000D01*
X162640075Y-102057000D01*
X162797142Y-102088242D01*
X162797142Y-102088242D01*
G37*
G36*
X139302142Y-102088242D02*
X139450102Y-102149530D01*
X139583258Y-102238502D01*
X139696498Y-102351742D01*
X139785470Y-102484898D01*
X139846758Y-102632858D01*
X139878000Y-102789925D01*
X139878000Y-102950075D01*
X139846758Y-103107142D01*
X139799354Y-103221583D01*
X139785471Y-103255100D01*
X139697191Y-103387222D01*
X139696498Y-103388258D01*
X139583258Y-103501498D01*
X139450102Y-103590470D01*
X139302142Y-103651758D01*
X139145075Y-103683000D01*
X138984925Y-103683000D01*
X138827858Y-103651758D01*
X138679898Y-103590470D01*
X138546742Y-103501498D01*
X138433502Y-103388258D01*
X138432810Y-103387222D01*
X138344529Y-103255100D01*
X138330646Y-103221583D01*
X138283242Y-103107142D01*
X138252000Y-102950075D01*
X138252000Y-102789925D01*
X138283242Y-102632858D01*
X138344530Y-102484898D01*
X138433502Y-102351742D01*
X138546742Y-102238502D01*
X138679898Y-102149530D01*
X138827858Y-102088242D01*
X138984925Y-102057000D01*
X139145075Y-102057000D01*
X139302142Y-102088242D01*
X139302142Y-102088242D01*
G37*
G36*
X139302142Y-99548242D02*
X139450102Y-99609530D01*
X139583258Y-99698502D01*
X139696498Y-99811742D01*
X139785470Y-99944898D01*
X139846758Y-100092858D01*
X139878000Y-100249925D01*
X139878000Y-100410075D01*
X139846758Y-100567142D01*
X139785470Y-100715102D01*
X139696498Y-100848258D01*
X139583258Y-100961498D01*
X139450102Y-101050470D01*
X139302142Y-101111758D01*
X139145075Y-101143000D01*
X138984925Y-101143000D01*
X138827858Y-101111758D01*
X138679898Y-101050470D01*
X138546742Y-100961498D01*
X138433502Y-100848258D01*
X138344530Y-100715102D01*
X138283242Y-100567142D01*
X138252000Y-100410075D01*
X138252000Y-100249925D01*
X138283242Y-100092858D01*
X138344530Y-99944898D01*
X138433502Y-99811742D01*
X138546742Y-99698502D01*
X138679898Y-99609530D01*
X138827858Y-99548242D01*
X138984925Y-99517000D01*
X139145075Y-99517000D01*
X139302142Y-99548242D01*
X139302142Y-99548242D01*
G37*
G36*
X162797142Y-99548242D02*
X162945102Y-99609530D01*
X163078258Y-99698502D01*
X163191498Y-99811742D01*
X163280470Y-99944898D01*
X163341758Y-100092858D01*
X163373000Y-100249925D01*
X163373000Y-100410075D01*
X163341758Y-100567142D01*
X163280470Y-100715102D01*
X163191498Y-100848258D01*
X163078258Y-100961498D01*
X162945102Y-101050470D01*
X162797142Y-101111758D01*
X162640075Y-101143000D01*
X162479925Y-101143000D01*
X162322858Y-101111758D01*
X162174898Y-101050470D01*
X162041742Y-100961498D01*
X161928502Y-100848258D01*
X161839530Y-100715102D01*
X161778242Y-100567142D01*
X161747000Y-100410075D01*
X161747000Y-100249925D01*
X161778242Y-100092858D01*
X161839530Y-99944898D01*
X161928502Y-99811742D01*
X162041742Y-99698502D01*
X162174898Y-99609530D01*
X162322858Y-99548242D01*
X162479925Y-99517000D01*
X162640075Y-99517000D01*
X162797142Y-99548242D01*
X162797142Y-99548242D01*
G37*
G36*
X160093665Y-99582622D02*
X160167222Y-99589867D01*
X160308786Y-99632810D01*
X160439252Y-99702546D01*
X160553606Y-99796394D01*
X160647454Y-99910748D01*
X160717190Y-100041214D01*
X160760133Y-100182778D01*
X160774633Y-100330000D01*
X160760133Y-100477222D01*
X160717190Y-100618786D01*
X160647454Y-100749252D01*
X160553606Y-100863606D01*
X160439252Y-100957454D01*
X160308786Y-101027190D01*
X160167222Y-101070133D01*
X160093665Y-101077378D01*
X160056888Y-101081000D01*
X159983112Y-101081000D01*
X159946335Y-101077378D01*
X159872778Y-101070133D01*
X159731214Y-101027190D01*
X159600748Y-100957454D01*
X159486394Y-100863606D01*
X159392546Y-100749252D01*
X159322810Y-100618786D01*
X159279867Y-100477222D01*
X159265367Y-100330000D01*
X159279867Y-100182778D01*
X159322810Y-100041214D01*
X159392546Y-99910748D01*
X159486394Y-99796394D01*
X159600748Y-99702546D01*
X159731214Y-99632810D01*
X159872778Y-99589867D01*
X159946335Y-99582622D01*
X159983112Y-99579000D01*
X160056888Y-99579000D01*
X160093665Y-99582622D01*
X160093665Y-99582622D01*
G37*
G36*
X162797142Y-97008242D02*
X162945102Y-97069530D01*
X163078258Y-97158502D01*
X163191498Y-97271742D01*
X163280470Y-97404898D01*
X163341758Y-97552858D01*
X163373000Y-97709925D01*
X163373000Y-97870075D01*
X163341758Y-98027142D01*
X163280470Y-98175102D01*
X163191498Y-98308258D01*
X163078258Y-98421498D01*
X162945102Y-98510470D01*
X162797142Y-98571758D01*
X162640075Y-98603000D01*
X162479925Y-98603000D01*
X162322858Y-98571758D01*
X162174898Y-98510470D01*
X162041742Y-98421498D01*
X161928502Y-98308258D01*
X161839530Y-98175102D01*
X161778242Y-98027142D01*
X161747000Y-97870075D01*
X161747000Y-97709925D01*
X161778242Y-97552858D01*
X161839530Y-97404898D01*
X161928502Y-97271742D01*
X162041742Y-97158502D01*
X162174898Y-97069530D01*
X162322858Y-97008242D01*
X162479925Y-96977000D01*
X162640075Y-96977000D01*
X162797142Y-97008242D01*
X162797142Y-97008242D01*
G37*
G36*
X139302142Y-97008242D02*
X139450102Y-97069530D01*
X139583258Y-97158502D01*
X139696498Y-97271742D01*
X139785470Y-97404898D01*
X139846758Y-97552858D01*
X139878000Y-97709925D01*
X139878000Y-97870075D01*
X139846758Y-98027142D01*
X139785470Y-98175102D01*
X139696498Y-98308258D01*
X139583258Y-98421498D01*
X139450102Y-98510470D01*
X139302142Y-98571758D01*
X139145075Y-98603000D01*
X138984925Y-98603000D01*
X138827858Y-98571758D01*
X138679898Y-98510470D01*
X138546742Y-98421498D01*
X138433502Y-98308258D01*
X138344530Y-98175102D01*
X138283242Y-98027142D01*
X138252000Y-97870075D01*
X138252000Y-97709925D01*
X138283242Y-97552858D01*
X138344530Y-97404898D01*
X138433502Y-97271742D01*
X138546742Y-97158502D01*
X138679898Y-97069530D01*
X138827858Y-97008242D01*
X138984925Y-96977000D01*
X139145075Y-96977000D01*
X139302142Y-97008242D01*
X139302142Y-97008242D01*
G37*
G36*
X139302142Y-94468242D02*
X139450102Y-94529530D01*
X139583258Y-94618502D01*
X139696498Y-94731742D01*
X139785470Y-94864898D01*
X139846758Y-95012858D01*
X139878000Y-95169925D01*
X139878000Y-95330075D01*
X139846758Y-95487142D01*
X139785470Y-95635102D01*
X139696498Y-95768258D01*
X139583258Y-95881498D01*
X139450102Y-95970470D01*
X139302142Y-96031758D01*
X139145075Y-96063000D01*
X138984925Y-96063000D01*
X138827858Y-96031758D01*
X138679898Y-95970470D01*
X138546742Y-95881498D01*
X138433502Y-95768258D01*
X138344530Y-95635102D01*
X138283242Y-95487142D01*
X138252000Y-95330075D01*
X138252000Y-95169925D01*
X138283242Y-95012858D01*
X138344530Y-94864898D01*
X138433502Y-94731742D01*
X138546742Y-94618502D01*
X138679898Y-94529530D01*
X138827858Y-94468242D01*
X138984925Y-94437000D01*
X139145075Y-94437000D01*
X139302142Y-94468242D01*
X139302142Y-94468242D01*
G37*
G36*
X162797142Y-94468242D02*
X162945102Y-94529530D01*
X163078258Y-94618502D01*
X163191498Y-94731742D01*
X163280470Y-94864898D01*
X163341758Y-95012858D01*
X163373000Y-95169925D01*
X163373000Y-95330075D01*
X163341758Y-95487142D01*
X163280470Y-95635102D01*
X163191498Y-95768258D01*
X163078258Y-95881498D01*
X162945102Y-95970470D01*
X162797142Y-96031758D01*
X162640075Y-96063000D01*
X162479925Y-96063000D01*
X162322858Y-96031758D01*
X162174898Y-95970470D01*
X162041742Y-95881498D01*
X161928502Y-95768258D01*
X161839530Y-95635102D01*
X161778242Y-95487142D01*
X161747000Y-95330075D01*
X161747000Y-95169925D01*
X161778242Y-95012858D01*
X161839530Y-94864898D01*
X161928502Y-94731742D01*
X162041742Y-94618502D01*
X162174898Y-94529530D01*
X162322858Y-94468242D01*
X162479925Y-94437000D01*
X162640075Y-94437000D01*
X162797142Y-94468242D01*
X162797142Y-94468242D01*
G37*
G36*
X139302142Y-91928242D02*
X139376397Y-91959000D01*
X139446071Y-91987860D01*
X139450102Y-91989530D01*
X139517130Y-92034317D01*
X139583257Y-92078501D01*
X139696499Y-92191743D01*
X139740683Y-92257870D01*
X139785470Y-92324898D01*
X139846758Y-92472858D01*
X139878000Y-92629925D01*
X139878000Y-92790075D01*
X139846758Y-92947142D01*
X139799354Y-93061583D01*
X139785471Y-93095100D01*
X139722905Y-93188738D01*
X139696498Y-93228258D01*
X139583258Y-93341498D01*
X139450102Y-93430470D01*
X139450101Y-93430471D01*
X139450100Y-93430471D01*
X139416583Y-93444354D01*
X139302142Y-93491758D01*
X139145075Y-93523000D01*
X138984925Y-93523000D01*
X138827858Y-93491758D01*
X138713417Y-93444354D01*
X138679900Y-93430471D01*
X138679899Y-93430471D01*
X138679898Y-93430470D01*
X138546742Y-93341498D01*
X138433502Y-93228258D01*
X138407096Y-93188738D01*
X138344529Y-93095100D01*
X138330646Y-93061583D01*
X138283242Y-92947142D01*
X138252000Y-92790075D01*
X138252000Y-92629925D01*
X138283242Y-92472858D01*
X138344530Y-92324898D01*
X138389317Y-92257870D01*
X138433501Y-92191743D01*
X138546743Y-92078501D01*
X138612870Y-92034317D01*
X138679898Y-91989530D01*
X138683930Y-91987860D01*
X138753603Y-91959000D01*
X138827858Y-91928242D01*
X138984925Y-91897000D01*
X139145075Y-91897000D01*
X139302142Y-91928242D01*
X139302142Y-91928242D01*
G37*
G36*
X162797142Y-91928242D02*
X162871397Y-91959000D01*
X162941071Y-91987860D01*
X162945102Y-91989530D01*
X163012130Y-92034317D01*
X163078257Y-92078501D01*
X163191499Y-92191743D01*
X163235683Y-92257870D01*
X163280470Y-92324898D01*
X163341758Y-92472858D01*
X163373000Y-92629925D01*
X163373000Y-92790075D01*
X163341758Y-92947142D01*
X163294354Y-93061583D01*
X163280471Y-93095100D01*
X163217905Y-93188738D01*
X163191498Y-93228258D01*
X163078258Y-93341498D01*
X162945102Y-93430470D01*
X162945101Y-93430471D01*
X162945100Y-93430471D01*
X162911583Y-93444354D01*
X162797142Y-93491758D01*
X162640075Y-93523000D01*
X162479925Y-93523000D01*
X162322858Y-93491758D01*
X162208417Y-93444354D01*
X162174900Y-93430471D01*
X162174899Y-93430471D01*
X162174898Y-93430470D01*
X162041742Y-93341498D01*
X161928502Y-93228258D01*
X161902096Y-93188738D01*
X161839529Y-93095100D01*
X161825646Y-93061583D01*
X161778242Y-92947142D01*
X161747000Y-92790075D01*
X161747000Y-92629925D01*
X161778242Y-92472858D01*
X161839530Y-92324898D01*
X161884317Y-92257870D01*
X161928501Y-92191743D01*
X162041743Y-92078501D01*
X162107870Y-92034317D01*
X162174898Y-91989530D01*
X162178930Y-91987860D01*
X162248603Y-91959000D01*
X162322858Y-91928242D01*
X162479925Y-91897000D01*
X162640075Y-91897000D01*
X162797142Y-91928242D01*
X162797142Y-91928242D01*
G37*
G36*
X160152004Y-91970544D02*
X160239059Y-91987860D01*
X160375732Y-92044472D01*
X160375733Y-92044473D01*
X160498738Y-92126662D01*
X160603338Y-92231262D01*
X160603340Y-92231265D01*
X160685528Y-92354268D01*
X160742140Y-92490941D01*
X160759456Y-92577996D01*
X160771000Y-92636031D01*
X160771000Y-92783969D01*
X160769785Y-92790075D01*
X160742140Y-92929059D01*
X160685528Y-93065732D01*
X160604446Y-93187079D01*
X160603338Y-93188738D01*
X160498738Y-93293338D01*
X160498735Y-93293340D01*
X160375732Y-93375528D01*
X160239059Y-93432140D01*
X160152004Y-93449456D01*
X160093969Y-93461000D01*
X159946031Y-93461000D01*
X159887996Y-93449456D01*
X159800941Y-93432140D01*
X159664268Y-93375528D01*
X159541265Y-93293340D01*
X159541262Y-93293338D01*
X159436662Y-93188738D01*
X159435554Y-93187079D01*
X159354472Y-93065732D01*
X159297860Y-92929059D01*
X159270215Y-92790075D01*
X159269000Y-92783969D01*
X159269000Y-92636031D01*
X159280544Y-92577996D01*
X159297860Y-92490941D01*
X159354472Y-92354268D01*
X159436660Y-92231265D01*
X159436662Y-92231262D01*
X159541262Y-92126662D01*
X159664267Y-92044473D01*
X159664268Y-92044472D01*
X159800941Y-91987860D01*
X159887996Y-91970544D01*
X159946031Y-91959000D01*
X160093969Y-91959000D01*
X160152004Y-91970544D01*
X160152004Y-91970544D01*
G37*
G36*
X139302142Y-89388242D02*
X139450102Y-89449530D01*
X139583258Y-89538502D01*
X139696498Y-89651742D01*
X139785470Y-89784898D01*
X139846758Y-89932858D01*
X139878000Y-90089925D01*
X139878000Y-90250075D01*
X139846758Y-90407142D01*
X139785470Y-90555102D01*
X139696498Y-90688258D01*
X139583258Y-90801498D01*
X139450102Y-90890470D01*
X139302142Y-90951758D01*
X139145075Y-90983000D01*
X138984925Y-90983000D01*
X138827858Y-90951758D01*
X138679898Y-90890470D01*
X138546742Y-90801498D01*
X138433502Y-90688258D01*
X138344530Y-90555102D01*
X138283242Y-90407142D01*
X138252000Y-90250075D01*
X138252000Y-90089925D01*
X138283242Y-89932858D01*
X138344530Y-89784898D01*
X138433502Y-89651742D01*
X138546742Y-89538502D01*
X138679898Y-89449530D01*
X138827858Y-89388242D01*
X138984925Y-89357000D01*
X139145075Y-89357000D01*
X139302142Y-89388242D01*
X139302142Y-89388242D01*
G37*
G36*
X162797142Y-89388242D02*
X162945102Y-89449530D01*
X163078258Y-89538502D01*
X163191498Y-89651742D01*
X163280470Y-89784898D01*
X163341758Y-89932858D01*
X163373000Y-90089925D01*
X163373000Y-90250075D01*
X163341758Y-90407142D01*
X163280470Y-90555102D01*
X163191498Y-90688258D01*
X163078258Y-90801498D01*
X162945102Y-90890470D01*
X162797142Y-90951758D01*
X162640075Y-90983000D01*
X162479925Y-90983000D01*
X162322858Y-90951758D01*
X162174898Y-90890470D01*
X162041742Y-90801498D01*
X161928502Y-90688258D01*
X161839530Y-90555102D01*
X161778242Y-90407142D01*
X161747000Y-90250075D01*
X161747000Y-90089925D01*
X161778242Y-89932858D01*
X161839530Y-89784898D01*
X161928502Y-89651742D01*
X162041742Y-89538502D01*
X162174898Y-89449530D01*
X162322858Y-89388242D01*
X162479925Y-89357000D01*
X162640075Y-89357000D01*
X162797142Y-89388242D01*
X162797142Y-89388242D01*
G37*
G36*
X162797142Y-86848242D02*
X162945102Y-86909530D01*
X163078258Y-86998502D01*
X163191498Y-87111742D01*
X163280470Y-87244898D01*
X163341758Y-87392858D01*
X163373000Y-87549925D01*
X163373000Y-87710075D01*
X163341758Y-87867142D01*
X163280470Y-88015102D01*
X163191498Y-88148258D01*
X163078258Y-88261498D01*
X162945102Y-88350470D01*
X162797142Y-88411758D01*
X162640075Y-88443000D01*
X162479925Y-88443000D01*
X162322858Y-88411758D01*
X162174898Y-88350470D01*
X162041742Y-88261498D01*
X161928502Y-88148258D01*
X161839530Y-88015102D01*
X161778242Y-87867142D01*
X161747000Y-87710075D01*
X161747000Y-87549925D01*
X161778242Y-87392858D01*
X161839530Y-87244898D01*
X161928502Y-87111742D01*
X162041742Y-86998502D01*
X162174898Y-86909530D01*
X162322858Y-86848242D01*
X162479925Y-86817000D01*
X162640075Y-86817000D01*
X162797142Y-86848242D01*
X162797142Y-86848242D01*
G37*
G36*
X139302142Y-86848242D02*
X139450102Y-86909530D01*
X139583258Y-86998502D01*
X139696498Y-87111742D01*
X139785470Y-87244898D01*
X139846758Y-87392858D01*
X139878000Y-87549925D01*
X139878000Y-87710075D01*
X139846758Y-87867142D01*
X139785470Y-88015102D01*
X139696498Y-88148258D01*
X139583258Y-88261498D01*
X139450102Y-88350470D01*
X139302142Y-88411758D01*
X139145075Y-88443000D01*
X138984925Y-88443000D01*
X138827858Y-88411758D01*
X138679898Y-88350470D01*
X138546742Y-88261498D01*
X138433502Y-88148258D01*
X138344530Y-88015102D01*
X138283242Y-87867142D01*
X138252000Y-87710075D01*
X138252000Y-87549925D01*
X138283242Y-87392858D01*
X138344530Y-87244898D01*
X138433502Y-87111742D01*
X138546742Y-86998502D01*
X138679898Y-86909530D01*
X138827858Y-86848242D01*
X138984925Y-86817000D01*
X139145075Y-86817000D01*
X139302142Y-86848242D01*
X139302142Y-86848242D01*
G37*
G36*
X162797142Y-84308242D02*
X162945102Y-84369530D01*
X163078258Y-84458502D01*
X163191498Y-84571742D01*
X163280470Y-84704898D01*
X163341758Y-84852858D01*
X163373000Y-85009925D01*
X163373000Y-85170075D01*
X163341758Y-85327142D01*
X163280470Y-85475102D01*
X163191498Y-85608258D01*
X163078258Y-85721498D01*
X162945102Y-85810470D01*
X162797142Y-85871758D01*
X162640075Y-85903000D01*
X162479925Y-85903000D01*
X162322858Y-85871758D01*
X162174898Y-85810470D01*
X162041742Y-85721498D01*
X161928502Y-85608258D01*
X161839530Y-85475102D01*
X161778242Y-85327142D01*
X161747000Y-85170075D01*
X161747000Y-85009925D01*
X161778242Y-84852858D01*
X161839530Y-84704898D01*
X161928502Y-84571742D01*
X162041742Y-84458502D01*
X162174898Y-84369530D01*
X162322858Y-84308242D01*
X162479925Y-84277000D01*
X162640075Y-84277000D01*
X162797142Y-84308242D01*
X162797142Y-84308242D01*
G37*
G36*
X139302142Y-84308242D02*
X139450102Y-84369530D01*
X139583258Y-84458502D01*
X139696498Y-84571742D01*
X139785470Y-84704898D01*
X139846758Y-84852858D01*
X139878000Y-85009925D01*
X139878000Y-85170075D01*
X139846758Y-85327142D01*
X139785470Y-85475102D01*
X139696498Y-85608258D01*
X139583258Y-85721498D01*
X139450102Y-85810470D01*
X139302142Y-85871758D01*
X139145075Y-85903000D01*
X138984925Y-85903000D01*
X138827858Y-85871758D01*
X138679898Y-85810470D01*
X138546742Y-85721498D01*
X138433502Y-85608258D01*
X138344530Y-85475102D01*
X138283242Y-85327142D01*
X138252000Y-85170075D01*
X138252000Y-85009925D01*
X138283242Y-84852858D01*
X138344530Y-84704898D01*
X138433502Y-84571742D01*
X138546742Y-84458502D01*
X138679898Y-84369530D01*
X138827858Y-84308242D01*
X138984925Y-84277000D01*
X139145075Y-84277000D01*
X139302142Y-84308242D01*
X139302142Y-84308242D01*
G37*
G36*
X162797142Y-81768242D02*
X162945102Y-81829530D01*
X163078258Y-81918502D01*
X163191498Y-82031742D01*
X163280470Y-82164898D01*
X163341758Y-82312858D01*
X163373000Y-82469925D01*
X163373000Y-82630075D01*
X163341758Y-82787142D01*
X163280470Y-82935102D01*
X163191498Y-83068258D01*
X163078258Y-83181498D01*
X162945102Y-83270470D01*
X162797142Y-83331758D01*
X162640075Y-83363000D01*
X162479925Y-83363000D01*
X162322858Y-83331758D01*
X162174898Y-83270470D01*
X162041742Y-83181498D01*
X161928502Y-83068258D01*
X161839530Y-82935102D01*
X161778242Y-82787142D01*
X161747000Y-82630075D01*
X161747000Y-82469925D01*
X161778242Y-82312858D01*
X161839530Y-82164898D01*
X161928502Y-82031742D01*
X162041742Y-81918502D01*
X162174898Y-81829530D01*
X162322858Y-81768242D01*
X162479925Y-81737000D01*
X162640075Y-81737000D01*
X162797142Y-81768242D01*
X162797142Y-81768242D01*
G37*
G36*
X139302142Y-81768242D02*
X139450102Y-81829530D01*
X139583258Y-81918502D01*
X139696498Y-82031742D01*
X139785470Y-82164898D01*
X139846758Y-82312858D01*
X139878000Y-82469925D01*
X139878000Y-82630075D01*
X139846758Y-82787142D01*
X139785470Y-82935102D01*
X139696498Y-83068258D01*
X139583258Y-83181498D01*
X139450102Y-83270470D01*
X139302142Y-83331758D01*
X139145075Y-83363000D01*
X138984925Y-83363000D01*
X138827858Y-83331758D01*
X138679898Y-83270470D01*
X138546742Y-83181498D01*
X138433502Y-83068258D01*
X138344530Y-82935102D01*
X138283242Y-82787142D01*
X138252000Y-82630075D01*
X138252000Y-82469925D01*
X138283242Y-82312858D01*
X138344530Y-82164898D01*
X138433502Y-82031742D01*
X138546742Y-81918502D01*
X138679898Y-81829530D01*
X138827858Y-81768242D01*
X138984925Y-81737000D01*
X139145075Y-81737000D01*
X139302142Y-81768242D01*
X139302142Y-81768242D01*
G37*
G36*
X176161000Y-78371000D02*
X174359000Y-78371000D01*
X174359000Y-76569000D01*
X176161000Y-76569000D01*
X176161000Y-78371000D01*
X176161000Y-78371000D01*
G37*
G36*
X167750443Y-76575519D02*
X167816627Y-76582037D01*
X167929853Y-76616384D01*
X167986467Y-76633557D01*
X168125087Y-76707652D01*
X168142991Y-76717222D01*
X168178729Y-76746552D01*
X168280186Y-76829814D01*
X168363448Y-76931271D01*
X168392778Y-76967009D01*
X168392779Y-76967011D01*
X168476443Y-77123533D01*
X168476443Y-77123534D01*
X168527963Y-77293373D01*
X168545359Y-77470000D01*
X168527963Y-77646627D01*
X168493616Y-77759853D01*
X168476443Y-77816467D01*
X168402348Y-77955087D01*
X168392778Y-77972991D01*
X168363448Y-78008729D01*
X168280186Y-78110186D01*
X168178729Y-78193448D01*
X168142991Y-78222778D01*
X168142989Y-78222779D01*
X167986467Y-78306443D01*
X167929853Y-78323616D01*
X167816627Y-78357963D01*
X167750443Y-78364481D01*
X167684260Y-78371000D01*
X167595740Y-78371000D01*
X167529557Y-78364481D01*
X167463373Y-78357963D01*
X167350147Y-78323616D01*
X167293533Y-78306443D01*
X167137011Y-78222779D01*
X167137009Y-78222778D01*
X167101271Y-78193448D01*
X166999814Y-78110186D01*
X166916552Y-78008729D01*
X166887222Y-77972991D01*
X166877652Y-77955087D01*
X166803557Y-77816467D01*
X166786384Y-77759853D01*
X166752037Y-77646627D01*
X166734641Y-77470000D01*
X166752037Y-77293373D01*
X166803557Y-77123534D01*
X166803557Y-77123533D01*
X166887221Y-76967011D01*
X166887222Y-76967009D01*
X166916552Y-76931271D01*
X166999814Y-76829814D01*
X167101271Y-76746552D01*
X167137009Y-76717222D01*
X167154913Y-76707652D01*
X167293533Y-76633557D01*
X167350147Y-76616384D01*
X167463373Y-76582037D01*
X167529557Y-76575519D01*
X167595740Y-76569000D01*
X167684260Y-76569000D01*
X167750443Y-76575519D01*
X167750443Y-76575519D01*
G37*
G36*
X172830443Y-76575519D02*
X172896627Y-76582037D01*
X173009853Y-76616384D01*
X173066467Y-76633557D01*
X173205087Y-76707652D01*
X173222991Y-76717222D01*
X173258729Y-76746552D01*
X173360186Y-76829814D01*
X173443448Y-76931271D01*
X173472778Y-76967009D01*
X173472779Y-76967011D01*
X173556443Y-77123533D01*
X173556443Y-77123534D01*
X173607963Y-77293373D01*
X173625359Y-77470000D01*
X173607963Y-77646627D01*
X173573616Y-77759853D01*
X173556443Y-77816467D01*
X173482348Y-77955087D01*
X173472778Y-77972991D01*
X173443448Y-78008729D01*
X173360186Y-78110186D01*
X173258729Y-78193448D01*
X173222991Y-78222778D01*
X173222989Y-78222779D01*
X173066467Y-78306443D01*
X173009853Y-78323616D01*
X172896627Y-78357963D01*
X172830443Y-78364481D01*
X172764260Y-78371000D01*
X172675740Y-78371000D01*
X172609557Y-78364481D01*
X172543373Y-78357963D01*
X172430147Y-78323616D01*
X172373533Y-78306443D01*
X172217011Y-78222779D01*
X172217009Y-78222778D01*
X172181271Y-78193448D01*
X172079814Y-78110186D01*
X171996552Y-78008729D01*
X171967222Y-77972991D01*
X171957652Y-77955087D01*
X171883557Y-77816467D01*
X171866384Y-77759853D01*
X171832037Y-77646627D01*
X171814641Y-77470000D01*
X171832037Y-77293373D01*
X171883557Y-77123534D01*
X171883557Y-77123533D01*
X171967221Y-76967011D01*
X171967222Y-76967009D01*
X171996552Y-76931271D01*
X172079814Y-76829814D01*
X172181271Y-76746552D01*
X172217009Y-76717222D01*
X172234913Y-76707652D01*
X172373533Y-76633557D01*
X172430147Y-76616384D01*
X172543373Y-76582037D01*
X172609557Y-76575519D01*
X172675740Y-76569000D01*
X172764260Y-76569000D01*
X172830443Y-76575519D01*
X172830443Y-76575519D01*
G37*
G36*
X170290443Y-76575519D02*
X170356627Y-76582037D01*
X170469853Y-76616384D01*
X170526467Y-76633557D01*
X170665087Y-76707652D01*
X170682991Y-76717222D01*
X170718729Y-76746552D01*
X170820186Y-76829814D01*
X170903448Y-76931271D01*
X170932778Y-76967009D01*
X170932779Y-76967011D01*
X171016443Y-77123533D01*
X171016443Y-77123534D01*
X171067963Y-77293373D01*
X171085359Y-77470000D01*
X171067963Y-77646627D01*
X171033616Y-77759853D01*
X171016443Y-77816467D01*
X170942348Y-77955087D01*
X170932778Y-77972991D01*
X170903448Y-78008729D01*
X170820186Y-78110186D01*
X170718729Y-78193448D01*
X170682991Y-78222778D01*
X170682989Y-78222779D01*
X170526467Y-78306443D01*
X170469853Y-78323616D01*
X170356627Y-78357963D01*
X170290443Y-78364481D01*
X170224260Y-78371000D01*
X170135740Y-78371000D01*
X170069557Y-78364481D01*
X170003373Y-78357963D01*
X169890147Y-78323616D01*
X169833533Y-78306443D01*
X169677011Y-78222779D01*
X169677009Y-78222778D01*
X169641271Y-78193448D01*
X169539814Y-78110186D01*
X169456552Y-78008729D01*
X169427222Y-77972991D01*
X169417652Y-77955087D01*
X169343557Y-77816467D01*
X169326384Y-77759853D01*
X169292037Y-77646627D01*
X169274641Y-77470000D01*
X169292037Y-77293373D01*
X169343557Y-77123534D01*
X169343557Y-77123533D01*
X169427221Y-76967011D01*
X169427222Y-76967009D01*
X169456552Y-76931271D01*
X169539814Y-76829814D01*
X169641271Y-76746552D01*
X169677009Y-76717222D01*
X169694913Y-76707652D01*
X169833533Y-76633557D01*
X169890147Y-76616384D01*
X170003373Y-76582037D01*
X170069557Y-76575519D01*
X170135740Y-76569000D01*
X170224260Y-76569000D01*
X170290443Y-76575519D01*
X170290443Y-76575519D01*
G37*
M02*
