G04 #@! TF.GenerationSoftware,KiCad,Pcbnew,5.0.2-bee76a0~70~ubuntu18.04.1*
G04 #@! TF.CreationDate,2020-05-13T22:21:42-07:00*
G04 #@! TF.ProjectId,pcb,7063622e-6b69-4636-9164-5f7063625858,rev?*
G04 #@! TF.SameCoordinates,Original*
G04 #@! TF.FileFunction,Legend,Bot*
G04 #@! TF.FilePolarity,Positive*
%FSLAX46Y46*%
G04 Gerber Fmt 4.6, Leading zero omitted, Abs format (unit mm)*
G04 Created by KiCad (PCBNEW 5.0.2-bee76a0~70~ubuntu18.04.1) date Wed 13 May 2020 10:21:42 PM PDT*
%MOMM*%
%LPD*%
G01*
G04 APERTURE LIST*
%ADD10C,0.200000*%
%ADD11C,0.120000*%
%ADD12C,0.150000*%
G04 APERTURE END LIST*
D10*
X174828142Y-105805857D02*
X174828142Y-106377285D01*
X176028142Y-106377285D01*
X174885285Y-104948714D02*
X174828142Y-105063000D01*
X174828142Y-105291571D01*
X174885285Y-105405857D01*
X174999571Y-105463000D01*
X175456714Y-105463000D01*
X175571000Y-105405857D01*
X175628142Y-105291571D01*
X175628142Y-105063000D01*
X175571000Y-104948714D01*
X175456714Y-104891571D01*
X175342428Y-104891571D01*
X175228142Y-105463000D01*
X175628142Y-104491571D02*
X174828142Y-104205857D01*
X175628142Y-103920142D01*
X174828142Y-102948714D02*
X175456714Y-102948714D01*
X175571000Y-103005857D01*
X175628142Y-103120142D01*
X175628142Y-103348714D01*
X175571000Y-103463000D01*
X174885285Y-102948714D02*
X174828142Y-103063000D01*
X174828142Y-103348714D01*
X174885285Y-103463000D01*
X174999571Y-103520142D01*
X175113857Y-103520142D01*
X175228142Y-103463000D01*
X175285285Y-103348714D01*
X175285285Y-103063000D01*
X175342428Y-102948714D01*
X174828142Y-102377285D02*
X175628142Y-102377285D01*
X176028142Y-102377285D02*
X175971000Y-102434428D01*
X175913857Y-102377285D01*
X175971000Y-102320142D01*
X176028142Y-102377285D01*
X175913857Y-102377285D01*
X175628142Y-101805857D02*
X174828142Y-101805857D01*
X175513857Y-101805857D02*
X175571000Y-101748714D01*
X175628142Y-101634428D01*
X175628142Y-101463000D01*
X175571000Y-101348714D01*
X175456714Y-101291571D01*
X174828142Y-101291571D01*
X174828142Y-99805857D02*
X176028142Y-99805857D01*
X175171000Y-99405857D01*
X176028142Y-99005857D01*
X174828142Y-99005857D01*
X174828142Y-98263000D02*
X174885285Y-98377285D01*
X174942428Y-98434428D01*
X175056714Y-98491571D01*
X175399571Y-98491571D01*
X175513857Y-98434428D01*
X175571000Y-98377285D01*
X175628142Y-98263000D01*
X175628142Y-98091571D01*
X175571000Y-97977285D01*
X175513857Y-97920142D01*
X175399571Y-97863000D01*
X175056714Y-97863000D01*
X174942428Y-97920142D01*
X174885285Y-97977285D01*
X174828142Y-98091571D01*
X174828142Y-98263000D01*
X175628142Y-97348714D02*
X174828142Y-97348714D01*
X175513857Y-97348714D02*
X175571000Y-97291571D01*
X175628142Y-97177285D01*
X175628142Y-97005857D01*
X175571000Y-96891571D01*
X175456714Y-96834428D01*
X174828142Y-96834428D01*
X174828142Y-96263000D02*
X175628142Y-96263000D01*
X176028142Y-96263000D02*
X175971000Y-96320142D01*
X175913857Y-96263000D01*
X175971000Y-96205857D01*
X176028142Y-96263000D01*
X175913857Y-96263000D01*
X175628142Y-95863000D02*
X175628142Y-95405857D01*
X176028142Y-95691571D02*
X174999571Y-95691571D01*
X174885285Y-95634428D01*
X174828142Y-95520142D01*
X174828142Y-95405857D01*
X174828142Y-94834428D02*
X174885285Y-94948714D01*
X174942428Y-95005857D01*
X175056714Y-95063000D01*
X175399571Y-95063000D01*
X175513857Y-95005857D01*
X175571000Y-94948714D01*
X175628142Y-94834428D01*
X175628142Y-94663000D01*
X175571000Y-94548714D01*
X175513857Y-94491571D01*
X175399571Y-94434428D01*
X175056714Y-94434428D01*
X174942428Y-94491571D01*
X174885285Y-94548714D01*
X174828142Y-94663000D01*
X174828142Y-94834428D01*
X174828142Y-93920142D02*
X175628142Y-93920142D01*
X175399571Y-93920142D02*
X175513857Y-93863000D01*
X175571000Y-93805857D01*
X175628142Y-93691571D01*
X175628142Y-93577285D01*
X176028142Y-92434428D02*
X174828142Y-92034428D01*
X176028142Y-91634428D01*
X174828142Y-90605857D02*
X174828142Y-91291571D01*
X174828142Y-90948714D02*
X176028142Y-90948714D01*
X175856714Y-91063000D01*
X175742428Y-91177285D01*
X175685285Y-91291571D01*
X174942428Y-90091571D02*
X174885285Y-90034428D01*
X174828142Y-90091571D01*
X174885285Y-90148714D01*
X174942428Y-90091571D01*
X174828142Y-90091571D01*
X176028142Y-89291571D02*
X176028142Y-89177285D01*
X175971000Y-89063000D01*
X175913857Y-89005857D01*
X175799571Y-88948714D01*
X175571000Y-88891571D01*
X175285285Y-88891571D01*
X175056714Y-88948714D01*
X174942428Y-89005857D01*
X174885285Y-89063000D01*
X174828142Y-89177285D01*
X174828142Y-89291571D01*
X174885285Y-89405857D01*
X174942428Y-89463000D01*
X175056714Y-89520142D01*
X175285285Y-89577285D01*
X175571000Y-89577285D01*
X175799571Y-89520142D01*
X175913857Y-89463000D01*
X175971000Y-89405857D01*
X176028142Y-89291571D01*
X174028142Y-107091571D02*
X173171000Y-107091571D01*
X172999571Y-107148714D01*
X172885285Y-107263000D01*
X172828142Y-107434428D01*
X172828142Y-107548714D01*
X172942428Y-106520142D02*
X172885285Y-106463000D01*
X172828142Y-106520142D01*
X172885285Y-106577285D01*
X172942428Y-106520142D01*
X172828142Y-106520142D01*
X172828142Y-105377285D02*
X172828142Y-105948714D01*
X174028142Y-105948714D01*
X172828142Y-104463000D02*
X173456714Y-104463000D01*
X173571000Y-104520142D01*
X173628142Y-104634428D01*
X173628142Y-104863000D01*
X173571000Y-104977285D01*
X172885285Y-104463000D02*
X172828142Y-104577285D01*
X172828142Y-104863000D01*
X172885285Y-104977285D01*
X172999571Y-105034428D01*
X173113857Y-105034428D01*
X173228142Y-104977285D01*
X173285285Y-104863000D01*
X173285285Y-104577285D01*
X173342428Y-104463000D01*
X172828142Y-103891571D02*
X173628142Y-103891571D01*
X173513857Y-103891571D02*
X173571000Y-103834428D01*
X173628142Y-103720142D01*
X173628142Y-103548714D01*
X173571000Y-103434428D01*
X173456714Y-103377285D01*
X172828142Y-103377285D01*
X173456714Y-103377285D02*
X173571000Y-103320142D01*
X173628142Y-103205857D01*
X173628142Y-103034428D01*
X173571000Y-102920142D01*
X173456714Y-102863000D01*
X172828142Y-102863000D01*
X173285285Y-101377285D02*
X173285285Y-100463000D01*
X173913857Y-99034428D02*
X173971000Y-98977285D01*
X174028142Y-98863000D01*
X174028142Y-98577285D01*
X173971000Y-98463000D01*
X173913857Y-98405857D01*
X173799571Y-98348714D01*
X173685285Y-98348714D01*
X173513857Y-98405857D01*
X172828142Y-99091571D01*
X172828142Y-98348714D01*
X174028142Y-97605857D02*
X174028142Y-97491571D01*
X173971000Y-97377285D01*
X173913857Y-97320142D01*
X173799571Y-97263000D01*
X173571000Y-97205857D01*
X173285285Y-97205857D01*
X173056714Y-97263000D01*
X172942428Y-97320142D01*
X172885285Y-97377285D01*
X172828142Y-97491571D01*
X172828142Y-97605857D01*
X172885285Y-97720142D01*
X172942428Y-97777285D01*
X173056714Y-97834428D01*
X173285285Y-97891571D01*
X173571000Y-97891571D01*
X173799571Y-97834428D01*
X173913857Y-97777285D01*
X173971000Y-97720142D01*
X174028142Y-97605857D01*
X173913857Y-96748714D02*
X173971000Y-96691571D01*
X174028142Y-96577285D01*
X174028142Y-96291571D01*
X173971000Y-96177285D01*
X173913857Y-96120142D01*
X173799571Y-96063000D01*
X173685285Y-96063000D01*
X173513857Y-96120142D01*
X172828142Y-96805857D01*
X172828142Y-96063000D01*
X174028142Y-95320142D02*
X174028142Y-95205857D01*
X173971000Y-95091571D01*
X173913857Y-95034428D01*
X173799571Y-94977285D01*
X173571000Y-94920142D01*
X173285285Y-94920142D01*
X173056714Y-94977285D01*
X172942428Y-95034428D01*
X172885285Y-95091571D01*
X172828142Y-95205857D01*
X172828142Y-95320142D01*
X172885285Y-95434428D01*
X172942428Y-95491571D01*
X173056714Y-95548714D01*
X173285285Y-95605857D01*
X173571000Y-95605857D01*
X173799571Y-95548714D01*
X173913857Y-95491571D01*
X173971000Y-95434428D01*
X174028142Y-95320142D01*
X174085285Y-93548714D02*
X172542428Y-94577285D01*
X174028142Y-92920142D02*
X174028142Y-92805857D01*
X173971000Y-92691571D01*
X173913857Y-92634428D01*
X173799571Y-92577285D01*
X173571000Y-92520142D01*
X173285285Y-92520142D01*
X173056714Y-92577285D01*
X172942428Y-92634428D01*
X172885285Y-92691571D01*
X172828142Y-92805857D01*
X172828142Y-92920142D01*
X172885285Y-93034428D01*
X172942428Y-93091571D01*
X173056714Y-93148714D01*
X173285285Y-93205857D01*
X173571000Y-93205857D01*
X173799571Y-93148714D01*
X173913857Y-93091571D01*
X173971000Y-93034428D01*
X174028142Y-92920142D01*
X174028142Y-91434428D02*
X174028142Y-92005857D01*
X173456714Y-92063000D01*
X173513857Y-92005857D01*
X173571000Y-91891571D01*
X173571000Y-91605857D01*
X173513857Y-91491571D01*
X173456714Y-91434428D01*
X173342428Y-91377285D01*
X173056714Y-91377285D01*
X172942428Y-91434428D01*
X172885285Y-91491571D01*
X172828142Y-91605857D01*
X172828142Y-91891571D01*
X172885285Y-92005857D01*
X172942428Y-92063000D01*
X174085285Y-90005857D02*
X172542428Y-91034428D01*
X172828142Y-88977285D02*
X172828142Y-89663000D01*
X172828142Y-89320142D02*
X174028142Y-89320142D01*
X173856714Y-89434428D01*
X173742428Y-89548714D01*
X173685285Y-89663000D01*
X174028142Y-88577285D02*
X174028142Y-87834428D01*
X173571000Y-88234428D01*
X173571000Y-88063000D01*
X173513857Y-87948714D01*
X173456714Y-87891571D01*
X173342428Y-87834428D01*
X173056714Y-87834428D01*
X172942428Y-87891571D01*
X172885285Y-87948714D01*
X172828142Y-88063000D01*
X172828142Y-88405857D01*
X172885285Y-88520142D01*
X172942428Y-88577285D01*
D11*
G04 #@! TO.C,R2*
X173812000Y-115824000D02*
X172862000Y-115824000D01*
X168072000Y-115824000D02*
X169022000Y-115824000D01*
X172862000Y-116744000D02*
X169022000Y-116744000D01*
X172862000Y-114904000D02*
X172862000Y-116744000D01*
X169022000Y-114904000D02*
X172862000Y-114904000D01*
X169022000Y-116744000D02*
X169022000Y-114904000D01*
G04 #@! TO.C,U4*
X160080000Y-107950000D02*
X160080000Y-106620000D01*
X160080000Y-106620000D02*
X158750000Y-106620000D01*
X157480000Y-106620000D02*
X142180000Y-106620000D01*
X142180000Y-109280000D02*
X142180000Y-106620000D01*
X157480000Y-109280000D02*
X142180000Y-109280000D01*
X157480000Y-109280000D02*
X157480000Y-106620000D01*
G04 #@! TO.C,R1*
X160020000Y-99390000D02*
X160020000Y-98440000D01*
X160020000Y-93650000D02*
X160020000Y-94600000D01*
X159100000Y-98440000D02*
X159100000Y-94600000D01*
X160940000Y-98440000D02*
X159100000Y-98440000D01*
X160940000Y-94600000D02*
X160940000Y-98440000D01*
X159100000Y-94600000D02*
X160940000Y-94600000D01*
G04 #@! TO.C,U2*
X145990000Y-104140000D02*
X145990000Y-105250000D01*
X145990000Y-105250000D02*
X147320000Y-105250000D01*
X145990000Y-94050000D02*
X156270000Y-94050000D01*
X156270000Y-94050000D02*
X156270000Y-102680000D01*
X145990000Y-102680000D02*
X156270000Y-102680000D01*
X145990000Y-94050000D02*
X145990000Y-102680000D01*
X153670000Y-94050000D02*
X153670000Y-102680000D01*
X151130000Y-94050000D02*
X151130000Y-102680000D01*
X148590000Y-94050000D02*
X148590000Y-102680000D01*
X155300000Y-102680000D02*
X155300000Y-103090000D01*
X154580000Y-102680000D02*
X154580000Y-103090000D01*
X152760000Y-102680000D02*
X152760000Y-103090000D01*
X152040000Y-102680000D02*
X152040000Y-103090000D01*
X150220000Y-102680000D02*
X150220000Y-103090000D01*
X149500000Y-102680000D02*
X149500000Y-103090000D01*
X147680000Y-102680000D02*
X147680000Y-103030000D01*
X146960000Y-102680000D02*
X146960000Y-103030000D01*
X148471900Y-94050000D02*
X148471900Y-102680000D01*
X148353805Y-94050000D02*
X148353805Y-102680000D01*
X148235710Y-94050000D02*
X148235710Y-102680000D01*
X148117615Y-94050000D02*
X148117615Y-102680000D01*
X147999520Y-94050000D02*
X147999520Y-102680000D01*
X147881425Y-94050000D02*
X147881425Y-102680000D01*
X147763330Y-94050000D02*
X147763330Y-102680000D01*
X147645235Y-94050000D02*
X147645235Y-102680000D01*
X147527140Y-94050000D02*
X147527140Y-102680000D01*
X147409045Y-94050000D02*
X147409045Y-102680000D01*
X147290950Y-94050000D02*
X147290950Y-102680000D01*
X147172855Y-94050000D02*
X147172855Y-102680000D01*
X147054760Y-94050000D02*
X147054760Y-102680000D01*
X146936665Y-94050000D02*
X146936665Y-102680000D01*
X146818570Y-94050000D02*
X146818570Y-102680000D01*
X146700475Y-94050000D02*
X146700475Y-102680000D01*
X146582380Y-94050000D02*
X146582380Y-102680000D01*
X146464285Y-94050000D02*
X146464285Y-102680000D01*
X146346190Y-94050000D02*
X146346190Y-102680000D01*
X146228095Y-94050000D02*
X146228095Y-102680000D01*
X146110000Y-94050000D02*
X146110000Y-102680000D01*
G04 #@! TO.C,R2*
D12*
X171108666Y-118196380D02*
X171442000Y-117720190D01*
X171680095Y-118196380D02*
X171680095Y-117196380D01*
X171299142Y-117196380D01*
X171203904Y-117244000D01*
X171156285Y-117291619D01*
X171108666Y-117386857D01*
X171108666Y-117529714D01*
X171156285Y-117624952D01*
X171203904Y-117672571D01*
X171299142Y-117720190D01*
X171680095Y-117720190D01*
X170727714Y-117291619D02*
X170680095Y-117244000D01*
X170584857Y-117196380D01*
X170346761Y-117196380D01*
X170251523Y-117244000D01*
X170203904Y-117291619D01*
X170156285Y-117386857D01*
X170156285Y-117482095D01*
X170203904Y-117624952D01*
X170775333Y-118196380D01*
X170156285Y-118196380D01*
G04 #@! TO.C,U4*
X160972380Y-107188095D02*
X161781904Y-107188095D01*
X161877142Y-107235714D01*
X161924761Y-107283333D01*
X161972380Y-107378571D01*
X161972380Y-107569047D01*
X161924761Y-107664285D01*
X161877142Y-107711904D01*
X161781904Y-107759523D01*
X160972380Y-107759523D01*
X161305714Y-108664285D02*
X161972380Y-108664285D01*
X160924761Y-108426190D02*
X161639047Y-108188095D01*
X161639047Y-108807142D01*
G04 #@! TO.C,R1*
X158552380Y-96353333D02*
X158076190Y-96020000D01*
X158552380Y-95781904D02*
X157552380Y-95781904D01*
X157552380Y-96162857D01*
X157600000Y-96258095D01*
X157647619Y-96305714D01*
X157742857Y-96353333D01*
X157885714Y-96353333D01*
X157980952Y-96305714D01*
X158028571Y-96258095D01*
X158076190Y-96162857D01*
X158076190Y-95781904D01*
X158552380Y-97305714D02*
X158552380Y-96734285D01*
X158552380Y-97020000D02*
X157552380Y-97020000D01*
X157695238Y-96924761D01*
X157790476Y-96829523D01*
X157838095Y-96734285D01*
G04 #@! TO.C,U2*
X144232380Y-99568095D02*
X145041904Y-99568095D01*
X145137142Y-99615714D01*
X145184761Y-99663333D01*
X145232380Y-99758571D01*
X145232380Y-99949047D01*
X145184761Y-100044285D01*
X145137142Y-100091904D01*
X145041904Y-100139523D01*
X144232380Y-100139523D01*
X144327619Y-100568095D02*
X144280000Y-100615714D01*
X144232380Y-100710952D01*
X144232380Y-100949047D01*
X144280000Y-101044285D01*
X144327619Y-101091904D01*
X144422857Y-101139523D01*
X144518095Y-101139523D01*
X144660952Y-101091904D01*
X145232380Y-100520476D01*
X145232380Y-101139523D01*
G04 #@! TD*
M02*
