M48
;DRILL file {KiCad 5.0.2-bee76a0~70~ubuntu18.04.1} date Wed 13 May 2020 10:21:39 PM PDT
;FORMAT={-:-/ absolute / inch / decimal}
FMAT,2
INCH,TZ
T1C0.0157
T2C0.0276
T3C0.0394
T4C0.0433
%
G90
G05
T1
X6.1Y-3.92
T2
X6.3Y-3.65
X6.3Y-3.95
X6.58Y-4.56
X6.88Y-4.56
T3
X5.65Y-4.25
X5.75Y-4.25
X5.85Y-4.25
X5.95Y-4.25
X6.05Y-4.25
X6.15Y-4.25
X6.25Y-4.25
X6.6Y-3.05
X6.7Y-3.05
X6.8Y-3.05
X6.9Y-3.05
X5.475Y-3.25
X5.475Y-3.35
X5.475Y-3.45
X5.475Y-3.55
X5.475Y-3.65
X5.475Y-3.75
X5.475Y-3.85
X5.475Y-3.95
X5.475Y-4.05
X5.475Y-4.15
X5.475Y-4.25
X5.475Y-4.35
X5.475Y-4.45
X5.475Y-4.55
X5.475Y-4.65
X6.4Y-3.25
X6.4Y-3.35
X6.4Y-3.45
X6.4Y-3.55
X6.4Y-3.65
X6.4Y-3.75
X6.4Y-3.85
X6.4Y-3.95
X6.4Y-4.05
X6.4Y-4.15
X6.4Y-4.25
X6.4Y-4.35
X6.4Y-4.45
X6.4Y-4.55
X6.4Y-4.65
X5.8Y-4.1
X5.9Y-4.1
X6.Y-4.1
X6.1Y-4.1
T4
X6.6Y-4.7
X6.6Y-4.8772
X6.8559Y-4.7
X6.8559Y-4.8772
T0
M30
